<mxfile host="app.diagrams.net" modified="2024-03-19T10:31:15.474Z" agent="Mozilla/5.0 (Windows NT 10.0; Win64; x64) AppleWebKit/537.36 (KHTML, like Gecko) Chrome/122.0.0.0 Safari/537.36" etag="xni0Lxxblqbfvdq1HUw-" version="24.0.7" type="github" pages="2">
  <diagram name="Page-1" id="WJIm7jW3jM0LuVXjwgmo">
    <mxGraphModel dx="2630" dy="2160" grid="1" gridSize="10" guides="1" tooltips="1" connect="1" arrows="1" fold="1" page="1" pageScale="1" pageWidth="827" pageHeight="1169" math="0" shadow="0">
      <root>
        <mxCell id="0" />
        <mxCell id="1" parent="0" />
        <mxCell id="RmjtfXcaY5Lmv4AUt83Y-4" value="" style="group" vertex="1" connectable="0" parent="1">
          <mxGeometry x="240" y="360" width="200" height="160" as="geometry" />
        </mxCell>
        <mxCell id="RmjtfXcaY5Lmv4AUt83Y-1" value="&lt;ol&gt;&lt;li&gt;Exact same thing&lt;/li&gt;&lt;/ol&gt;" style="rounded=0;whiteSpace=wrap;html=1;strokeWidth=1.5;align=left;verticalAlign=top;spacingTop=60;" vertex="1" parent="RmjtfXcaY5Lmv4AUt83Y-4">
          <mxGeometry width="200" height="160" as="geometry" />
        </mxCell>
        <mxCell id="RmjtfXcaY5Lmv4AUt83Y-2" value="&lt;b&gt;Virtual Machines&lt;/b&gt;" style="rounded=0;whiteSpace=wrap;html=1;strokeWidth=1;fillColor=#dae8fc;strokeColor=#007FFF;fontColor=#007FFF;" vertex="1" parent="RmjtfXcaY5Lmv4AUt83Y-4">
          <mxGeometry x="10" y="10" width="180" height="30" as="geometry" />
        </mxCell>
        <mxCell id="RmjtfXcaY5Lmv4AUt83Y-3" value="EC2" style="rounded=0;whiteSpace=wrap;html=1;strokeWidth=1;fillColor=#ffe6cc;strokeColor=#d79b00;fontColor=#FF9900;" vertex="1" parent="RmjtfXcaY5Lmv4AUt83Y-4">
          <mxGeometry x="10" y="40" width="180" height="20" as="geometry" />
        </mxCell>
        <mxCell id="RmjtfXcaY5Lmv4AUt83Y-152" style="edgeStyle=none;rounded=0;orthogonalLoop=1;jettySize=auto;html=1;entryX=0.5;entryY=0;entryDx=0;entryDy=0;" edge="1" parent="1" source="RmjtfXcaY5Lmv4AUt83Y-9" target="RmjtfXcaY5Lmv4AUt83Y-138">
          <mxGeometry relative="1" as="geometry" />
        </mxCell>
        <mxCell id="RmjtfXcaY5Lmv4AUt83Y-9" value="Identity Access Mgt" style="rounded=0;whiteSpace=wrap;html=1;" vertex="1" parent="1">
          <mxGeometry x="1241" y="560" width="120" height="60" as="geometry" />
        </mxCell>
        <mxCell id="RmjtfXcaY5Lmv4AUt83Y-153" style="edgeStyle=none;rounded=0;orthogonalLoop=1;jettySize=auto;html=1;entryX=1;entryY=0.5;entryDx=0;entryDy=0;" edge="1" parent="1" source="RmjtfXcaY5Lmv4AUt83Y-10" target="RmjtfXcaY5Lmv4AUt83Y-1">
          <mxGeometry relative="1" as="geometry" />
        </mxCell>
        <mxCell id="RmjtfXcaY5Lmv4AUt83Y-154" style="edgeStyle=none;rounded=0;orthogonalLoop=1;jettySize=auto;html=1;entryX=1;entryY=0.5;entryDx=0;entryDy=0;" edge="1" parent="1" source="RmjtfXcaY5Lmv4AUt83Y-10" target="RmjtfXcaY5Lmv4AUt83Y-12">
          <mxGeometry relative="1" as="geometry" />
        </mxCell>
        <mxCell id="RmjtfXcaY5Lmv4AUt83Y-10" value="Compute" style="rounded=0;whiteSpace=wrap;html=1;" vertex="1" parent="1">
          <mxGeometry x="610" y="360" width="120" height="60" as="geometry" />
        </mxCell>
        <mxCell id="RmjtfXcaY5Lmv4AUt83Y-11" value="" style="group" vertex="1" connectable="0" parent="1">
          <mxGeometry x="240" y="120" width="200" height="160" as="geometry" />
        </mxCell>
        <mxCell id="RmjtfXcaY5Lmv4AUt83Y-12" value="&lt;ol&gt;&lt;li&gt;Exact same thing&lt;/li&gt;&lt;/ol&gt;" style="rounded=0;whiteSpace=wrap;html=1;strokeWidth=1.5;align=left;verticalAlign=top;spacingTop=60;" vertex="1" parent="RmjtfXcaY5Lmv4AUt83Y-11">
          <mxGeometry width="200" height="160" as="geometry" />
        </mxCell>
        <mxCell id="RmjtfXcaY5Lmv4AUt83Y-13" value="&lt;b&gt;Virtual Machine Scale Sets&lt;/b&gt;" style="rounded=0;whiteSpace=wrap;html=1;strokeWidth=1;fillColor=#dae8fc;strokeColor=#007FFF;fontColor=#007FFF;" vertex="1" parent="RmjtfXcaY5Lmv4AUt83Y-11">
          <mxGeometry x="10" y="10" width="180" height="30" as="geometry" />
        </mxCell>
        <mxCell id="RmjtfXcaY5Lmv4AUt83Y-14" value="Auto Scaling Groups" style="rounded=0;whiteSpace=wrap;html=1;strokeWidth=1;fillColor=#ffe6cc;strokeColor=#d79b00;fontColor=#FF9900;" vertex="1" parent="RmjtfXcaY5Lmv4AUt83Y-11">
          <mxGeometry x="10" y="40" width="180" height="20" as="geometry" />
        </mxCell>
        <mxCell id="RmjtfXcaY5Lmv4AUt83Y-15" value="Storage" style="rounded=0;whiteSpace=wrap;html=1;" vertex="1" parent="1">
          <mxGeometry x="880" y="540" width="120" height="60" as="geometry" />
        </mxCell>
        <mxCell id="RmjtfXcaY5Lmv4AUt83Y-17" value="" style="group" vertex="1" connectable="0" parent="1">
          <mxGeometry x="840" y="680" width="200" height="160" as="geometry" />
        </mxCell>
        <mxCell id="RmjtfXcaY5Lmv4AUt83Y-18" value="&lt;ol&gt;&lt;li&gt;Storage Accounts basically group a bunch of storage services together (like a logical container).&lt;/li&gt;&lt;li&gt;Blob, Table, Queue Files&lt;/li&gt;&lt;/ol&gt;" style="rounded=0;whiteSpace=wrap;html=1;strokeWidth=1.5;align=left;verticalAlign=top;spacingTop=60;" vertex="1" parent="RmjtfXcaY5Lmv4AUt83Y-17">
          <mxGeometry width="200" height="160" as="geometry" />
        </mxCell>
        <mxCell id="RmjtfXcaY5Lmv4AUt83Y-19" value="&lt;b&gt;Storage Account&lt;/b&gt;" style="rounded=0;whiteSpace=wrap;html=1;strokeWidth=1;fillColor=#dae8fc;strokeColor=#007FFF;fontColor=#007FFF;" vertex="1" parent="RmjtfXcaY5Lmv4AUt83Y-17">
          <mxGeometry x="10" y="10" width="180" height="30" as="geometry" />
        </mxCell>
        <mxCell id="RmjtfXcaY5Lmv4AUt83Y-20" value="N/A" style="rounded=0;whiteSpace=wrap;html=1;strokeWidth=1;fillColor=#ffe6cc;strokeColor=#d79b00;fontColor=#FF9900;" vertex="1" parent="RmjtfXcaY5Lmv4AUt83Y-17">
          <mxGeometry x="10" y="40" width="180" height="20" as="geometry" />
        </mxCell>
        <mxCell id="RmjtfXcaY5Lmv4AUt83Y-21" value="" style="group" vertex="1" connectable="0" parent="1">
          <mxGeometry x="720" y="920" width="200" height="160" as="geometry" />
        </mxCell>
        <mxCell id="RmjtfXcaY5Lmv4AUt83Y-22" value="&lt;ol&gt;&lt;li&gt;&lt;br&gt;&lt;/li&gt;&lt;/ol&gt;" style="rounded=0;whiteSpace=wrap;html=1;strokeWidth=1.5;align=left;verticalAlign=top;spacingTop=60;" vertex="1" parent="RmjtfXcaY5Lmv4AUt83Y-21">
          <mxGeometry width="200" height="160" as="geometry" />
        </mxCell>
        <mxCell id="RmjtfXcaY5Lmv4AUt83Y-23" value="&lt;b&gt;Azure Blob Container&lt;/b&gt;" style="rounded=0;whiteSpace=wrap;html=1;strokeWidth=1;fillColor=#dae8fc;strokeColor=#007FFF;fontColor=#007FFF;" vertex="1" parent="RmjtfXcaY5Lmv4AUt83Y-21">
          <mxGeometry x="10" y="10" width="180" height="30" as="geometry" />
        </mxCell>
        <mxCell id="RmjtfXcaY5Lmv4AUt83Y-24" value="S3 Bucket" style="rounded=0;whiteSpace=wrap;html=1;strokeWidth=1;fillColor=#ffe6cc;strokeColor=#d79b00;fontColor=#FF9900;" vertex="1" parent="RmjtfXcaY5Lmv4AUt83Y-21">
          <mxGeometry x="10" y="40" width="180" height="20" as="geometry" />
        </mxCell>
        <mxCell id="RmjtfXcaY5Lmv4AUt83Y-25" value="" style="group" vertex="1" connectable="0" parent="1">
          <mxGeometry x="950" y="920" width="200" height="160" as="geometry" />
        </mxCell>
        <mxCell id="RmjtfXcaY5Lmv4AUt83Y-26" value="&lt;ol&gt;&lt;li&gt;&lt;br&gt;&lt;/li&gt;&lt;/ol&gt;" style="rounded=0;whiteSpace=wrap;html=1;strokeWidth=1.5;align=left;verticalAlign=top;spacingTop=60;" vertex="1" parent="RmjtfXcaY5Lmv4AUt83Y-25">
          <mxGeometry width="200" height="160" as="geometry" />
        </mxCell>
        <mxCell id="RmjtfXcaY5Lmv4AUt83Y-27" value="&lt;b&gt;Azure Files&lt;/b&gt;" style="rounded=0;whiteSpace=wrap;html=1;strokeWidth=1;fillColor=#dae8fc;strokeColor=#007FFF;fontColor=#007FFF;" vertex="1" parent="RmjtfXcaY5Lmv4AUt83Y-25">
          <mxGeometry x="10" y="10" width="180" height="30" as="geometry" />
        </mxCell>
        <mxCell id="RmjtfXcaY5Lmv4AUt83Y-28" value="AWS FSx" style="rounded=0;whiteSpace=wrap;html=1;strokeWidth=1;fillColor=#ffe6cc;strokeColor=#d79b00;fontColor=#FF9900;" vertex="1" parent="RmjtfXcaY5Lmv4AUt83Y-25">
          <mxGeometry x="10" y="40" width="180" height="20" as="geometry" />
        </mxCell>
        <mxCell id="RmjtfXcaY5Lmv4AUt83Y-29" style="rounded=0;orthogonalLoop=1;jettySize=auto;html=1;" edge="1" parent="1" source="RmjtfXcaY5Lmv4AUt83Y-22" target="RmjtfXcaY5Lmv4AUt83Y-18">
          <mxGeometry relative="1" as="geometry" />
        </mxCell>
        <mxCell id="RmjtfXcaY5Lmv4AUt83Y-30" style="rounded=0;orthogonalLoop=1;jettySize=auto;html=1;" edge="1" parent="1" source="RmjtfXcaY5Lmv4AUt83Y-26" target="RmjtfXcaY5Lmv4AUt83Y-18">
          <mxGeometry relative="1" as="geometry" />
        </mxCell>
        <mxCell id="RmjtfXcaY5Lmv4AUt83Y-31" style="edgeStyle=none;rounded=0;orthogonalLoop=1;jettySize=auto;html=1;entryX=0.5;entryY=1;entryDx=0;entryDy=0;" edge="1" parent="1" source="RmjtfXcaY5Lmv4AUt83Y-18" target="RmjtfXcaY5Lmv4AUt83Y-15">
          <mxGeometry relative="1" as="geometry" />
        </mxCell>
        <mxCell id="RmjtfXcaY5Lmv4AUt83Y-33" style="edgeStyle=none;rounded=0;orthogonalLoop=1;jettySize=auto;html=1;entryX=0.5;entryY=1;entryDx=0;entryDy=0;" edge="1" parent="1" source="RmjtfXcaY5Lmv4AUt83Y-32" target="RmjtfXcaY5Lmv4AUt83Y-22">
          <mxGeometry relative="1" as="geometry" />
        </mxCell>
        <mxCell id="RmjtfXcaY5Lmv4AUt83Y-34" style="edgeStyle=none;rounded=0;orthogonalLoop=1;jettySize=auto;html=1;entryX=0.5;entryY=1;entryDx=0;entryDy=0;" edge="1" parent="1" source="RmjtfXcaY5Lmv4AUt83Y-32" target="RmjtfXcaY5Lmv4AUt83Y-26">
          <mxGeometry relative="1" as="geometry" />
        </mxCell>
        <mxCell id="RmjtfXcaY5Lmv4AUt83Y-32" value="&lt;b&gt;AzCopy&lt;/b&gt;&lt;div&gt;CLI Tool used to copy between a machine and Az Blob Containers or Files. Useful interface to copy from AWS as well&lt;/div&gt;" style="rounded=0;whiteSpace=wrap;html=1;" vertex="1" parent="1">
          <mxGeometry x="870" y="1240" width="170" height="100" as="geometry" />
        </mxCell>
        <mxCell id="RmjtfXcaY5Lmv4AUt83Y-42" style="edgeStyle=none;rounded=0;orthogonalLoop=1;jettySize=auto;html=1;entryX=0.5;entryY=0;entryDx=0;entryDy=0;" edge="1" parent="1" source="RmjtfXcaY5Lmv4AUt83Y-39" target="RmjtfXcaY5Lmv4AUt83Y-15">
          <mxGeometry relative="1" as="geometry" />
        </mxCell>
        <mxCell id="RmjtfXcaY5Lmv4AUt83Y-43" style="edgeStyle=none;rounded=0;orthogonalLoop=1;jettySize=auto;html=1;entryX=1;entryY=0.5;entryDx=0;entryDy=0;" edge="1" parent="1" source="RmjtfXcaY5Lmv4AUt83Y-39" target="RmjtfXcaY5Lmv4AUt83Y-10">
          <mxGeometry relative="1" as="geometry" />
        </mxCell>
        <mxCell id="RmjtfXcaY5Lmv4AUt83Y-45" style="edgeStyle=none;rounded=0;orthogonalLoop=1;jettySize=auto;html=1;entryX=0;entryY=0.5;entryDx=0;entryDy=0;" edge="1" parent="1" source="RmjtfXcaY5Lmv4AUt83Y-39" target="RmjtfXcaY5Lmv4AUt83Y-44">
          <mxGeometry relative="1" as="geometry" />
        </mxCell>
        <mxCell id="RmjtfXcaY5Lmv4AUt83Y-103" style="edgeStyle=none;rounded=0;orthogonalLoop=1;jettySize=auto;html=1;entryX=0.5;entryY=1;entryDx=0;entryDy=0;" edge="1" parent="1" source="RmjtfXcaY5Lmv4AUt83Y-39" target="RmjtfXcaY5Lmv4AUt83Y-84">
          <mxGeometry relative="1" as="geometry" />
        </mxCell>
        <mxCell id="RmjtfXcaY5Lmv4AUt83Y-124" style="edgeStyle=none;rounded=0;orthogonalLoop=1;jettySize=auto;html=1;entryX=0.5;entryY=0;entryDx=0;entryDy=0;" edge="1" parent="1" source="RmjtfXcaY5Lmv4AUt83Y-39" target="RmjtfXcaY5Lmv4AUt83Y-9">
          <mxGeometry relative="1" as="geometry" />
        </mxCell>
        <mxCell id="RmjtfXcaY5Lmv4AUt83Y-158" style="edgeStyle=none;rounded=0;orthogonalLoop=1;jettySize=auto;html=1;entryX=0.5;entryY=1;entryDx=0;entryDy=0;" edge="1" parent="1" source="RmjtfXcaY5Lmv4AUt83Y-39" target="RmjtfXcaY5Lmv4AUt83Y-58">
          <mxGeometry relative="1" as="geometry" />
        </mxCell>
        <mxCell id="RmjtfXcaY5Lmv4AUt83Y-39" value="&lt;b style=&quot;font-size: 16px;&quot;&gt;Azure&lt;/b&gt;" style="rounded=0;whiteSpace=wrap;html=1;strokeColor=#007FFF;fontColor=#007FFF;fontSize=16;strokeWidth=2;" vertex="1" parent="1">
          <mxGeometry x="860" y="360" width="160" height="60" as="geometry" />
        </mxCell>
        <mxCell id="RmjtfXcaY5Lmv4AUt83Y-41" value="" style="shape=image;verticalLabelPosition=bottom;labelBackgroundColor=default;verticalAlign=top;aspect=fixed;imageAspect=0;image=https://swimburger.net/media/ppnn3pcl/azure.png;" vertex="1" parent="1">
          <mxGeometry x="870" y="370" width="40" height="40" as="geometry" />
        </mxCell>
        <mxCell id="RmjtfXcaY5Lmv4AUt83Y-104" style="edgeStyle=none;rounded=0;orthogonalLoop=1;jettySize=auto;html=1;" edge="1" parent="1" source="RmjtfXcaY5Lmv4AUt83Y-44" target="RmjtfXcaY5Lmv4AUt83Y-46">
          <mxGeometry relative="1" as="geometry" />
        </mxCell>
        <mxCell id="RmjtfXcaY5Lmv4AUt83Y-44" value="Architecture" style="rounded=0;whiteSpace=wrap;html=1;" vertex="1" parent="1">
          <mxGeometry x="1241" y="340" width="120" height="60" as="geometry" />
        </mxCell>
        <mxCell id="RmjtfXcaY5Lmv4AUt83Y-156" style="edgeStyle=none;rounded=0;orthogonalLoop=1;jettySize=auto;html=1;entryX=0.5;entryY=1;entryDx=0;entryDy=0;" edge="1" parent="1" source="RmjtfXcaY5Lmv4AUt83Y-46" target="RmjtfXcaY5Lmv4AUt83Y-105">
          <mxGeometry relative="1" as="geometry" />
        </mxCell>
        <mxCell id="RmjtfXcaY5Lmv4AUt83Y-46" value="&lt;b&gt;Hub and spoke &lt;/b&gt;network topology" style="rounded=0;whiteSpace=wrap;html=1;" vertex="1" parent="1">
          <mxGeometry x="1440" y="340" width="120" height="60" as="geometry" />
        </mxCell>
        <mxCell id="RmjtfXcaY5Lmv4AUt83Y-50" value="" style="group" vertex="1" connectable="0" parent="1">
          <mxGeometry x="660" y="2120" width="200" height="80" as="geometry" />
        </mxCell>
        <mxCell id="RmjtfXcaY5Lmv4AUt83Y-6" value="" style="rounded=0;whiteSpace=wrap;html=1;strokeWidth=1.5;align=left;verticalAlign=top;spacingTop=60;" vertex="1" parent="RmjtfXcaY5Lmv4AUt83Y-50">
          <mxGeometry width="200" height="80" as="geometry" />
        </mxCell>
        <mxCell id="RmjtfXcaY5Lmv4AUt83Y-7" value="&lt;b&gt;Virtual Machines&lt;/b&gt;" style="rounded=0;whiteSpace=wrap;html=1;strokeWidth=1;fillColor=#dae8fc;strokeColor=#007FFF;fontColor=#007FFF;" vertex="1" parent="RmjtfXcaY5Lmv4AUt83Y-50">
          <mxGeometry x="10" y="10" width="180" height="30" as="geometry" />
        </mxCell>
        <mxCell id="RmjtfXcaY5Lmv4AUt83Y-8" value="EC2" style="rounded=0;whiteSpace=wrap;html=1;strokeWidth=1;fillColor=#ffe6cc;strokeColor=#d79b00;fontColor=#FF9900;" vertex="1" parent="RmjtfXcaY5Lmv4AUt83Y-50">
          <mxGeometry x="10" y="50" width="180" height="20" as="geometry" />
        </mxCell>
        <mxCell id="RmjtfXcaY5Lmv4AUt83Y-51" value="" style="group" vertex="1" connectable="0" parent="1">
          <mxGeometry x="240" y="-160" width="200" height="160" as="geometry" />
        </mxCell>
        <mxCell id="RmjtfXcaY5Lmv4AUt83Y-52" value="&lt;ol&gt;&lt;li&gt;They work and behave &lt;br&gt;&lt;b&gt;VERY differently &lt;/b&gt;between&lt;br&gt;the two clouds&lt;/li&gt;&lt;/ol&gt;" style="rounded=0;whiteSpace=wrap;html=1;strokeWidth=1.5;align=left;verticalAlign=top;spacingTop=60;" vertex="1" parent="RmjtfXcaY5Lmv4AUt83Y-51">
          <mxGeometry width="200" height="160" as="geometry" />
        </mxCell>
        <mxCell id="RmjtfXcaY5Lmv4AUt83Y-53" value="&lt;b&gt;Network Security Groups&lt;/b&gt;" style="rounded=0;whiteSpace=wrap;html=1;strokeWidth=1;fillColor=#dae8fc;strokeColor=#007FFF;fontColor=#007FFF;" vertex="1" parent="RmjtfXcaY5Lmv4AUt83Y-51">
          <mxGeometry x="10" y="10" width="180" height="30" as="geometry" />
        </mxCell>
        <mxCell id="RmjtfXcaY5Lmv4AUt83Y-54" value="Security Groups" style="rounded=0;whiteSpace=wrap;html=1;strokeWidth=1;fillColor=#ffe6cc;strokeColor=#d79b00;fontColor=#FF9900;" vertex="1" parent="RmjtfXcaY5Lmv4AUt83Y-51">
          <mxGeometry x="10" y="40" width="180" height="20" as="geometry" />
        </mxCell>
        <mxCell id="RmjtfXcaY5Lmv4AUt83Y-55" value="&lt;b&gt;Granularity&lt;/b&gt;&lt;div&gt;&lt;b&gt;&lt;br&gt;&lt;/b&gt;&lt;div&gt;&lt;span style=&quot;background-color: initial;&quot;&gt;In AWS, it&#39;s stateful (what goes in must be able to come out)&amp;nbsp;&lt;/span&gt;&lt;br&gt;&lt;/div&gt;&lt;div&gt;&lt;span style=&quot;background-color: initial;&quot;&gt;&lt;br&gt;&lt;/span&gt;&lt;/div&gt;&lt;div&gt;&lt;div&gt;in Az, you can control inbound and outbound flow&lt;/div&gt;&lt;div&gt;&lt;br&gt;&lt;/div&gt;&lt;/div&gt;&lt;/div&gt;" style="rounded=0;whiteSpace=wrap;html=1;fillColor=#e1d5e7;strokeColor=#9673a6;" vertex="1" parent="1">
          <mxGeometry x="10" y="-330" width="160" height="140" as="geometry" />
        </mxCell>
        <mxCell id="RmjtfXcaY5Lmv4AUt83Y-56" value="&lt;b&gt;Scope&lt;/b&gt;&lt;div&gt;&lt;b&gt;&lt;br&gt;&lt;/b&gt;&lt;div&gt;In AWS, it&#39;s all implicit deny. rules are explicit allows&lt;/div&gt;&lt;div&gt;&lt;br&gt;&lt;/div&gt;&lt;div&gt;In Az, rules can be explicit deny, explicit allows&lt;/div&gt;&lt;/div&gt;" style="rounded=0;whiteSpace=wrap;html=1;fillColor=#e1d5e7;strokeColor=#9673a6;" vertex="1" parent="1">
          <mxGeometry x="180" y="-450" width="160" height="140" as="geometry" />
        </mxCell>
        <mxCell id="RmjtfXcaY5Lmv4AUt83Y-57" value="&lt;b&gt;Attachments&lt;/b&gt;&lt;div&gt;&lt;b&gt;&lt;br&gt;&lt;/b&gt;&lt;/div&gt;&lt;div&gt;In AWS, SG to EC2s are Many:one&lt;/div&gt;&lt;div&gt;&lt;br&gt;&lt;/div&gt;&lt;div&gt;In Az, SGs are attached to a subnet, not VMs, resembling more of an AWS NACL structure&lt;/div&gt;" style="rounded=0;whiteSpace=wrap;html=1;fillColor=#e1d5e7;strokeColor=#9673a6;" vertex="1" parent="1">
          <mxGeometry y="-130" width="160" height="140" as="geometry" />
        </mxCell>
        <mxCell id="RmjtfXcaY5Lmv4AUt83Y-63" style="edgeStyle=none;rounded=0;orthogonalLoop=1;jettySize=auto;html=1;entryX=0.5;entryY=1;entryDx=0;entryDy=0;" edge="1" parent="1" source="RmjtfXcaY5Lmv4AUt83Y-58" target="RmjtfXcaY5Lmv4AUt83Y-60">
          <mxGeometry relative="1" as="geometry" />
        </mxCell>
        <mxCell id="RmjtfXcaY5Lmv4AUt83Y-58" value="Network" style="rounded=0;whiteSpace=wrap;html=1;" vertex="1" parent="1">
          <mxGeometry x="780" y="190" width="120" height="60" as="geometry" />
        </mxCell>
        <mxCell id="RmjtfXcaY5Lmv4AUt83Y-59" value="" style="group" vertex="1" connectable="0" parent="1">
          <mxGeometry x="600" y="-20" width="200" height="160" as="geometry" />
        </mxCell>
        <mxCell id="RmjtfXcaY5Lmv4AUt83Y-60" value="&lt;ol&gt;&lt;li&gt;Exact same thing&lt;/li&gt;&lt;/ol&gt;" style="rounded=0;whiteSpace=wrap;html=1;strokeWidth=1.5;align=left;verticalAlign=top;spacingTop=60;" vertex="1" parent="RmjtfXcaY5Lmv4AUt83Y-59">
          <mxGeometry width="200" height="160" as="geometry" />
        </mxCell>
        <mxCell id="RmjtfXcaY5Lmv4AUt83Y-61" value="&lt;b&gt;Subnets&lt;/b&gt;" style="rounded=0;whiteSpace=wrap;html=1;strokeWidth=1;fillColor=#dae8fc;strokeColor=#007FFF;fontColor=#007FFF;" vertex="1" parent="RmjtfXcaY5Lmv4AUt83Y-59">
          <mxGeometry x="10" y="10" width="180" height="30" as="geometry" />
        </mxCell>
        <mxCell id="RmjtfXcaY5Lmv4AUt83Y-62" value="Subnets" style="rounded=0;whiteSpace=wrap;html=1;strokeWidth=1;fillColor=#ffe6cc;strokeColor=#d79b00;fontColor=#FF9900;" vertex="1" parent="RmjtfXcaY5Lmv4AUt83Y-59">
          <mxGeometry x="10" y="40" width="180" height="20" as="geometry" />
        </mxCell>
        <mxCell id="RmjtfXcaY5Lmv4AUt83Y-64" style="edgeStyle=none;rounded=0;orthogonalLoop=1;jettySize=auto;html=1;entryX=1;entryY=0.5;entryDx=0;entryDy=0;" edge="1" parent="1" source="RmjtfXcaY5Lmv4AUt83Y-60" target="RmjtfXcaY5Lmv4AUt83Y-52">
          <mxGeometry relative="1" as="geometry" />
        </mxCell>
        <mxCell id="RmjtfXcaY5Lmv4AUt83Y-65" value="" style="group" vertex="1" connectable="0" parent="1">
          <mxGeometry x="-80" y="360" width="200" height="160" as="geometry" />
        </mxCell>
        <mxCell id="RmjtfXcaY5Lmv4AUt83Y-66" value="&lt;ul&gt;&lt;li&gt;In AWS, SGs can reference SG in their rule src/dest.&lt;/li&gt;&lt;li&gt;in Az, VMs are grouped by ASGs, which can be used in NSG rule src/dest.&lt;/li&gt;&lt;/ul&gt;" style="rounded=0;whiteSpace=wrap;html=1;strokeWidth=1.5;align=left;verticalAlign=top;spacingTop=60;" vertex="1" parent="RmjtfXcaY5Lmv4AUt83Y-65">
          <mxGeometry width="200" height="160" as="geometry" />
        </mxCell>
        <mxCell id="RmjtfXcaY5Lmv4AUt83Y-67" value="&lt;b&gt;Application Security Group&lt;/b&gt;" style="rounded=0;whiteSpace=wrap;html=1;strokeWidth=1;fillColor=#dae8fc;strokeColor=#007FFF;fontColor=#007FFF;" vertex="1" parent="RmjtfXcaY5Lmv4AUt83Y-65">
          <mxGeometry x="10" y="10" width="180" height="30" as="geometry" />
        </mxCell>
        <mxCell id="RmjtfXcaY5Lmv4AUt83Y-68" value="N/A" style="rounded=0;whiteSpace=wrap;html=1;strokeWidth=1;fillColor=#ffe6cc;strokeColor=#d79b00;fontColor=#FF9900;" vertex="1" parent="RmjtfXcaY5Lmv4AUt83Y-65">
          <mxGeometry x="10" y="40" width="180" height="20" as="geometry" />
        </mxCell>
        <mxCell id="RmjtfXcaY5Lmv4AUt83Y-69" style="edgeStyle=none;rounded=0;orthogonalLoop=1;jettySize=auto;html=1;entryX=1;entryY=0.5;entryDx=0;entryDy=0;" edge="1" parent="1" source="RmjtfXcaY5Lmv4AUt83Y-1" target="RmjtfXcaY5Lmv4AUt83Y-66">
          <mxGeometry relative="1" as="geometry" />
        </mxCell>
        <mxCell id="RmjtfXcaY5Lmv4AUt83Y-72" value="can attach&lt;br&gt;(Optional)" style="edgeLabel;html=1;align=center;verticalAlign=middle;resizable=0;points=[];" vertex="1" connectable="0" parent="RmjtfXcaY5Lmv4AUt83Y-69">
          <mxGeometry x="0.0333" y="-4" relative="1" as="geometry">
            <mxPoint as="offset" />
          </mxGeometry>
        </mxCell>
        <mxCell id="RmjtfXcaY5Lmv4AUt83Y-70" style="edgeStyle=none;rounded=0;orthogonalLoop=1;jettySize=auto;html=1;entryX=0.5;entryY=0;entryDx=0;entryDy=0;" edge="1" parent="1" source="RmjtfXcaY5Lmv4AUt83Y-52" target="RmjtfXcaY5Lmv4AUt83Y-66">
          <mxGeometry relative="1" as="geometry" />
        </mxCell>
        <mxCell id="RmjtfXcaY5Lmv4AUt83Y-71" value="Can Reference in rules" style="edgeLabel;html=1;align=center;verticalAlign=middle;resizable=0;points=[];" vertex="1" connectable="0" parent="RmjtfXcaY5Lmv4AUt83Y-70">
          <mxGeometry x="0.5055" y="-3" relative="1" as="geometry">
            <mxPoint as="offset" />
          </mxGeometry>
        </mxCell>
        <mxCell id="RmjtfXcaY5Lmv4AUt83Y-73" style="edgeStyle=none;rounded=0;orthogonalLoop=1;jettySize=auto;html=1;entryX=1;entryY=0.5;entryDx=0;entryDy=0;" edge="1" parent="1" source="RmjtfXcaY5Lmv4AUt83Y-52" target="RmjtfXcaY5Lmv4AUt83Y-55">
          <mxGeometry relative="1" as="geometry" />
        </mxCell>
        <mxCell id="RmjtfXcaY5Lmv4AUt83Y-74" style="edgeStyle=none;rounded=0;orthogonalLoop=1;jettySize=auto;html=1;entryX=1;entryY=0.5;entryDx=0;entryDy=0;" edge="1" parent="1" source="RmjtfXcaY5Lmv4AUt83Y-52" target="RmjtfXcaY5Lmv4AUt83Y-57">
          <mxGeometry relative="1" as="geometry" />
        </mxCell>
        <mxCell id="RmjtfXcaY5Lmv4AUt83Y-75" style="edgeStyle=none;rounded=0;orthogonalLoop=1;jettySize=auto;html=1;entryX=0.5;entryY=1;entryDx=0;entryDy=0;" edge="1" parent="1" source="RmjtfXcaY5Lmv4AUt83Y-52" target="RmjtfXcaY5Lmv4AUt83Y-56">
          <mxGeometry relative="1" as="geometry" />
        </mxCell>
        <mxCell id="RmjtfXcaY5Lmv4AUt83Y-80" value="" style="group" vertex="1" connectable="0" parent="1">
          <mxGeometry x="600" y="-280" width="200" height="160" as="geometry" />
        </mxCell>
        <mxCell id="RmjtfXcaY5Lmv4AUt83Y-81" value="&lt;ol&gt;&lt;li&gt;Exact same thing&lt;/li&gt;&lt;/ol&gt;" style="rounded=0;whiteSpace=wrap;html=1;strokeWidth=1.5;align=left;verticalAlign=top;spacingTop=60;" vertex="1" parent="RmjtfXcaY5Lmv4AUt83Y-80">
          <mxGeometry width="200" height="160" as="geometry" />
        </mxCell>
        <mxCell id="RmjtfXcaY5Lmv4AUt83Y-82" value="&lt;b&gt;Virtual Network (VNET)&lt;/b&gt;" style="rounded=0;whiteSpace=wrap;html=1;strokeWidth=1;fillColor=#dae8fc;strokeColor=#007FFF;fontColor=#007FFF;" vertex="1" parent="RmjtfXcaY5Lmv4AUt83Y-80">
          <mxGeometry x="10" y="10" width="180" height="30" as="geometry" />
        </mxCell>
        <mxCell id="RmjtfXcaY5Lmv4AUt83Y-83" value="Virtual Private Cloud (VPC)" style="rounded=0;whiteSpace=wrap;html=1;strokeWidth=1;fillColor=#ffe6cc;strokeColor=#d79b00;fontColor=#FF9900;" vertex="1" parent="RmjtfXcaY5Lmv4AUt83Y-80">
          <mxGeometry x="10" y="40" width="180" height="20" as="geometry" />
        </mxCell>
        <mxCell id="RmjtfXcaY5Lmv4AUt83Y-102" style="edgeStyle=none;rounded=0;orthogonalLoop=1;jettySize=auto;html=1;entryX=0.5;entryY=1;entryDx=0;entryDy=0;" edge="1" parent="1" source="RmjtfXcaY5Lmv4AUt83Y-84" target="RmjtfXcaY5Lmv4AUt83Y-90">
          <mxGeometry relative="1" as="geometry" />
        </mxCell>
        <mxCell id="RmjtfXcaY5Lmv4AUt83Y-84" value="Management" style="rounded=0;whiteSpace=wrap;html=1;" vertex="1" parent="1">
          <mxGeometry x="1020" y="170" width="120" height="60" as="geometry" />
        </mxCell>
        <mxCell id="RmjtfXcaY5Lmv4AUt83Y-89" value="" style="group" vertex="1" connectable="0" parent="1">
          <mxGeometry x="1041" y="-40" width="200" height="160" as="geometry" />
        </mxCell>
        <mxCell id="RmjtfXcaY5Lmv4AUt83Y-90" value="&lt;ol&gt;&lt;li&gt;Basically a logical container for a group of cloud resources&lt;/li&gt;&lt;/ol&gt;" style="rounded=0;whiteSpace=wrap;html=1;strokeWidth=1.5;align=left;verticalAlign=top;spacingTop=60;" vertex="1" parent="RmjtfXcaY5Lmv4AUt83Y-89">
          <mxGeometry width="200" height="160" as="geometry" />
        </mxCell>
        <mxCell id="RmjtfXcaY5Lmv4AUt83Y-91" value="&lt;b&gt;Resource Groups (RG)&lt;/b&gt;" style="rounded=0;whiteSpace=wrap;html=1;strokeWidth=1;fillColor=#dae8fc;strokeColor=#007FFF;fontColor=#007FFF;" vertex="1" parent="RmjtfXcaY5Lmv4AUt83Y-89">
          <mxGeometry x="10" y="10" width="180" height="30" as="geometry" />
        </mxCell>
        <mxCell id="RmjtfXcaY5Lmv4AUt83Y-92" value="N/A" style="rounded=0;whiteSpace=wrap;html=1;strokeWidth=1;fillColor=#ffe6cc;strokeColor=#d79b00;fontColor=#FF9900;" vertex="1" parent="RmjtfXcaY5Lmv4AUt83Y-89">
          <mxGeometry x="10" y="40" width="180" height="20" as="geometry" />
        </mxCell>
        <mxCell id="RmjtfXcaY5Lmv4AUt83Y-101" style="edgeStyle=none;rounded=0;orthogonalLoop=1;jettySize=auto;html=1;entryX=0.5;entryY=1;entryDx=0;entryDy=0;" edge="1" parent="1" source="RmjtfXcaY5Lmv4AUt83Y-94" target="RmjtfXcaY5Lmv4AUt83Y-98">
          <mxGeometry relative="1" as="geometry" />
        </mxCell>
        <mxCell id="RmjtfXcaY5Lmv4AUt83Y-172" value="Many Subs to one Mgt group" style="edgeLabel;html=1;align=center;verticalAlign=middle;resizable=0;points=[];" vertex="1" connectable="0" parent="RmjtfXcaY5Lmv4AUt83Y-101">
          <mxGeometry x="0.0417" y="2" relative="1" as="geometry">
            <mxPoint as="offset" />
          </mxGeometry>
        </mxCell>
        <mxCell id="RmjtfXcaY5Lmv4AUt83Y-169" style="edgeStyle=none;rounded=0;orthogonalLoop=1;jettySize=auto;html=1;" edge="1" parent="1" source="RmjtfXcaY5Lmv4AUt83Y-94" target="RmjtfXcaY5Lmv4AUt83Y-81">
          <mxGeometry relative="1" as="geometry" />
        </mxCell>
        <mxCell id="RmjtfXcaY5Lmv4AUt83Y-170" value="Contains" style="edgeLabel;html=1;align=center;verticalAlign=middle;resizable=0;points=[];" vertex="1" connectable="0" parent="RmjtfXcaY5Lmv4AUt83Y-169">
          <mxGeometry x="0.1465" y="-2" relative="1" as="geometry">
            <mxPoint as="offset" />
          </mxGeometry>
        </mxCell>
        <mxCell id="RmjtfXcaY5Lmv4AUt83Y-200" style="edgeStyle=none;rounded=0;orthogonalLoop=1;jettySize=auto;html=1;entryX=0;entryY=0.5;entryDx=0;entryDy=0;" edge="1" parent="1" source="RmjtfXcaY5Lmv4AUt83Y-94" target="RmjtfXcaY5Lmv4AUt83Y-196">
          <mxGeometry relative="1" as="geometry" />
        </mxCell>
        <mxCell id="RmjtfXcaY5Lmv4AUt83Y-201" style="edgeStyle=none;rounded=0;orthogonalLoop=1;jettySize=auto;html=1;entryX=0;entryY=0.5;entryDx=0;entryDy=0;" edge="1" parent="1" source="RmjtfXcaY5Lmv4AUt83Y-94" target="RmjtfXcaY5Lmv4AUt83Y-197">
          <mxGeometry relative="1" as="geometry" />
        </mxCell>
        <mxCell id="RmjtfXcaY5Lmv4AUt83Y-202" style="edgeStyle=none;rounded=0;orthogonalLoop=1;jettySize=auto;html=1;entryX=0;entryY=0.5;entryDx=0;entryDy=0;" edge="1" parent="1" source="RmjtfXcaY5Lmv4AUt83Y-94" target="RmjtfXcaY5Lmv4AUt83Y-198">
          <mxGeometry relative="1" as="geometry" />
        </mxCell>
        <mxCell id="RmjtfXcaY5Lmv4AUt83Y-94" value="&lt;ol&gt;&lt;li&gt;Basically a logical container for a group of RGs.&lt;/li&gt;&lt;li&gt;Some specific network policies, services and management layer can be configured here for easier management.&lt;/li&gt;&lt;/ol&gt;" style="rounded=0;whiteSpace=wrap;html=1;strokeWidth=1.5;align=left;verticalAlign=top;spacingTop=60;" vertex="1" parent="1">
          <mxGeometry x="1041" y="-320" width="200" height="200" as="geometry" />
        </mxCell>
        <mxCell id="RmjtfXcaY5Lmv4AUt83Y-95" value="&lt;b&gt;Subscription (Sub)&lt;/b&gt;" style="rounded=0;whiteSpace=wrap;html=1;strokeWidth=1;fillColor=#dae8fc;strokeColor=#007FFF;fontColor=#007FFF;" vertex="1" parent="1">
          <mxGeometry x="1051" y="-310" width="180" height="30" as="geometry" />
        </mxCell>
        <mxCell id="RmjtfXcaY5Lmv4AUt83Y-96" value="N/A" style="rounded=0;whiteSpace=wrap;html=1;strokeWidth=1;fillColor=#ffe6cc;strokeColor=#d79b00;fontColor=#FF9900;" vertex="1" parent="1">
          <mxGeometry x="1051" y="-280" width="180" height="20" as="geometry" />
        </mxCell>
        <mxCell id="RmjtfXcaY5Lmv4AUt83Y-97" style="edgeStyle=none;rounded=0;orthogonalLoop=1;jettySize=auto;html=1;entryX=0.5;entryY=1;entryDx=0;entryDy=0;" edge="1" parent="1" source="RmjtfXcaY5Lmv4AUt83Y-90" target="RmjtfXcaY5Lmv4AUt83Y-94">
          <mxGeometry relative="1" as="geometry" />
        </mxCell>
        <mxCell id="RmjtfXcaY5Lmv4AUt83Y-171" value="Many RG to 1 Sub" style="edgeLabel;html=1;align=center;verticalAlign=middle;resizable=0;points=[];" vertex="1" connectable="0" parent="RmjtfXcaY5Lmv4AUt83Y-97">
          <mxGeometry x="-0.0774" y="1" relative="1" as="geometry">
            <mxPoint as="offset" />
          </mxGeometry>
        </mxCell>
        <mxCell id="RmjtfXcaY5Lmv4AUt83Y-98" value="&lt;ol&gt;&lt;li&gt;&lt;br&gt;&lt;/li&gt;&lt;/ol&gt;" style="rounded=0;whiteSpace=wrap;html=1;strokeWidth=1.5;align=left;verticalAlign=top;spacingTop=60;" vertex="1" parent="1">
          <mxGeometry x="1041" y="-600" width="200" height="200" as="geometry" />
        </mxCell>
        <mxCell id="RmjtfXcaY5Lmv4AUt83Y-99" value="&lt;b&gt;Management Groups&lt;/b&gt;" style="rounded=0;whiteSpace=wrap;html=1;strokeWidth=1;fillColor=#dae8fc;strokeColor=#007FFF;fontColor=#007FFF;" vertex="1" parent="1">
          <mxGeometry x="1051" y="-590" width="180" height="30" as="geometry" />
        </mxCell>
        <mxCell id="RmjtfXcaY5Lmv4AUt83Y-100" value="N/A" style="rounded=0;whiteSpace=wrap;html=1;strokeWidth=1;fillColor=#ffe6cc;strokeColor=#d79b00;fontColor=#FF9900;" vertex="1" parent="1">
          <mxGeometry x="1051" y="-560" width="180" height="20" as="geometry" />
        </mxCell>
        <mxCell id="RmjtfXcaY5Lmv4AUt83Y-157" style="edgeStyle=none;rounded=0;orthogonalLoop=1;jettySize=auto;html=1;entryX=0.5;entryY=1;entryDx=0;entryDy=0;" edge="1" parent="1" source="RmjtfXcaY5Lmv4AUt83Y-105" target="RmjtfXcaY5Lmv4AUt83Y-106">
          <mxGeometry relative="1" as="geometry" />
        </mxCell>
        <mxCell id="RmjtfXcaY5Lmv4AUt83Y-160" style="edgeStyle=none;rounded=0;orthogonalLoop=1;jettySize=auto;html=1;entryX=0.5;entryY=1;entryDx=0;entryDy=0;" edge="1" parent="1" source="RmjtfXcaY5Lmv4AUt83Y-105" target="RmjtfXcaY5Lmv4AUt83Y-159">
          <mxGeometry relative="1" as="geometry" />
        </mxCell>
        <mxCell id="RmjtfXcaY5Lmv4AUt83Y-105" value="&lt;div&gt;&lt;b&gt;Overview&lt;/b&gt;&lt;/div&gt;This is how NAB manages its Azure 2.0 Network. Imagine two network types:&lt;div&gt;&lt;ol&gt;&lt;li&gt;Spoke Network&lt;/li&gt;&lt;li&gt;Hub Network&lt;/li&gt;&lt;/ol&gt;&lt;/div&gt;" style="rounded=0;whiteSpace=wrap;html=1;fillColor=#e1d5e7;strokeColor=#9673a6;" vertex="1" parent="1">
          <mxGeometry x="1480" y="120" width="160" height="140" as="geometry" />
        </mxCell>
        <mxCell id="RmjtfXcaY5Lmv4AUt83Y-106" value="&lt;div&gt;&lt;b&gt;Spoke Network&lt;/b&gt;&lt;/div&gt;These are your &quot;LZ&quot;s. Spoke network is a self-contained environment where you can deploy your fundamenta" style="rounded=0;whiteSpace=wrap;html=1;fillColor=#e1d5e7;strokeColor=#9673a6;" vertex="1" parent="1">
          <mxGeometry x="1340" y="-100" width="160" height="140" as="geometry" />
        </mxCell>
        <mxCell id="RmjtfXcaY5Lmv4AUt83Y-107" value="" style="group" vertex="1" connectable="0" parent="1">
          <mxGeometry x="-320" y="610" width="200" height="160" as="geometry" />
        </mxCell>
        <mxCell id="RmjtfXcaY5Lmv4AUt83Y-108" value="&lt;ol&gt;&lt;li&gt;Unlike AMI&#39;s, which is just an extension of EC2s. ACG is a resource that holds images&lt;/li&gt;&lt;li&gt;HIP wouldn&#39;t give us fuckin access lmao&lt;/li&gt;&lt;/ol&gt;" style="rounded=0;whiteSpace=wrap;html=1;strokeWidth=1.5;align=left;verticalAlign=top;spacingTop=60;" vertex="1" parent="RmjtfXcaY5Lmv4AUt83Y-107">
          <mxGeometry width="200" height="160" as="geometry" />
        </mxCell>
        <mxCell id="RmjtfXcaY5Lmv4AUt83Y-109" value="&lt;b&gt;Azure Compute Gallery&lt;/b&gt;" style="rounded=0;whiteSpace=wrap;html=1;strokeWidth=1;fillColor=#dae8fc;strokeColor=#007FFF;fontColor=#007FFF;" vertex="1" parent="RmjtfXcaY5Lmv4AUt83Y-107">
          <mxGeometry x="10" y="10" width="180" height="30" as="geometry" />
        </mxCell>
        <mxCell id="RmjtfXcaY5Lmv4AUt83Y-110" value="AMIs" style="rounded=0;whiteSpace=wrap;html=1;strokeWidth=1;fillColor=#ffe6cc;strokeColor=#d79b00;fontColor=#FF9900;" vertex="1" parent="RmjtfXcaY5Lmv4AUt83Y-107">
          <mxGeometry x="10" y="40" width="180" height="20" as="geometry" />
        </mxCell>
        <mxCell id="RmjtfXcaY5Lmv4AUt83Y-111" value="" style="group" vertex="1" connectable="0" parent="1">
          <mxGeometry x="-320" y="840" width="200" height="160" as="geometry" />
        </mxCell>
        <mxCell id="RmjtfXcaY5Lmv4AUt83Y-112" value="&lt;ol&gt;&lt;li&gt;Marketplace for public/shared/vendor images&lt;/li&gt;&lt;/ol&gt;" style="rounded=0;whiteSpace=wrap;html=1;strokeWidth=1.5;align=left;verticalAlign=top;spacingTop=60;" vertex="1" parent="RmjtfXcaY5Lmv4AUt83Y-111">
          <mxGeometry width="200" height="160" as="geometry" />
        </mxCell>
        <mxCell id="RmjtfXcaY5Lmv4AUt83Y-113" value="&lt;b&gt;Azure Marketplace&lt;/b&gt;" style="rounded=0;whiteSpace=wrap;html=1;strokeWidth=1;fillColor=#dae8fc;strokeColor=#007FFF;fontColor=#007FFF;" vertex="1" parent="RmjtfXcaY5Lmv4AUt83Y-111">
          <mxGeometry x="10" y="10" width="180" height="30" as="geometry" />
        </mxCell>
        <mxCell id="RmjtfXcaY5Lmv4AUt83Y-114" value="AWS Marketplace" style="rounded=0;whiteSpace=wrap;html=1;strokeWidth=1;fillColor=#ffe6cc;strokeColor=#d79b00;fontColor=#FF9900;" vertex="1" parent="RmjtfXcaY5Lmv4AUt83Y-111">
          <mxGeometry x="10" y="40" width="180" height="20" as="geometry" />
        </mxCell>
        <mxCell id="RmjtfXcaY5Lmv4AUt83Y-122" style="edgeStyle=none;rounded=0;orthogonalLoop=1;jettySize=auto;html=1;entryX=1;entryY=0.5;entryDx=0;entryDy=0;" edge="1" parent="1" source="RmjtfXcaY5Lmv4AUt83Y-120" target="RmjtfXcaY5Lmv4AUt83Y-108">
          <mxGeometry relative="1" as="geometry" />
        </mxCell>
        <mxCell id="RmjtfXcaY5Lmv4AUt83Y-123" style="edgeStyle=none;rounded=0;orthogonalLoop=1;jettySize=auto;html=1;entryX=1;entryY=0.5;entryDx=0;entryDy=0;" edge="1" parent="1" source="RmjtfXcaY5Lmv4AUt83Y-120" target="RmjtfXcaY5Lmv4AUt83Y-112">
          <mxGeometry relative="1" as="geometry" />
        </mxCell>
        <mxCell id="RmjtfXcaY5Lmv4AUt83Y-120" value="Compute Images" style="rounded=0;whiteSpace=wrap;html=1;" vertex="1" parent="1">
          <mxGeometry y="610" width="120" height="60" as="geometry" />
        </mxCell>
        <mxCell id="RmjtfXcaY5Lmv4AUt83Y-121" style="edgeStyle=none;rounded=0;orthogonalLoop=1;jettySize=auto;html=1;entryX=1;entryY=0.5;entryDx=0;entryDy=0;" edge="1" parent="1" source="RmjtfXcaY5Lmv4AUt83Y-1" target="RmjtfXcaY5Lmv4AUt83Y-120">
          <mxGeometry relative="1" as="geometry" />
        </mxCell>
        <mxCell id="RmjtfXcaY5Lmv4AUt83Y-125" value="" style="group" vertex="1" connectable="0" parent="1">
          <mxGeometry x="-40" y="960" width="200" height="210" as="geometry" />
        </mxCell>
        <mxCell id="RmjtfXcaY5Lmv4AUt83Y-126" value="&lt;ol&gt;&lt;li&gt;An identity for VM to auth into Azure services&lt;/li&gt;&lt;li&gt;We usually only use MSI because its easy.&lt;/li&gt;&lt;li&gt;MSI is usually a toggle for VMs&lt;/li&gt;&lt;/ol&gt;" style="rounded=0;whiteSpace=wrap;html=1;strokeWidth=1.5;align=left;verticalAlign=top;spacingTop=60;" vertex="1" parent="RmjtfXcaY5Lmv4AUt83Y-125">
          <mxGeometry width="200" height="200" as="geometry" />
        </mxCell>
        <mxCell id="RmjtfXcaY5Lmv4AUt83Y-127" value="&lt;b&gt;Managed System Identity&lt;/b&gt;" style="rounded=0;whiteSpace=wrap;html=1;strokeWidth=1;fillColor=#dae8fc;strokeColor=#007FFF;fontColor=#007FFF;" vertex="1" parent="RmjtfXcaY5Lmv4AUt83Y-125">
          <mxGeometry x="10" y="10" width="180" height="30" as="geometry" />
        </mxCell>
        <mxCell id="RmjtfXcaY5Lmv4AUt83Y-128" value="Instance Profile" style="rounded=0;whiteSpace=wrap;html=1;strokeWidth=1;fillColor=#ffe6cc;strokeColor=#d79b00;fontColor=#FF9900;" vertex="1" parent="RmjtfXcaY5Lmv4AUt83Y-125">
          <mxGeometry x="10" y="40" width="180" height="20" as="geometry" />
        </mxCell>
        <mxCell id="RmjtfXcaY5Lmv4AUt83Y-134" style="edgeStyle=none;rounded=0;orthogonalLoop=1;jettySize=auto;html=1;entryX=0.5;entryY=0;entryDx=0;entryDy=0;" edge="1" parent="1" source="RmjtfXcaY5Lmv4AUt83Y-129" target="RmjtfXcaY5Lmv4AUt83Y-126">
          <mxGeometry relative="1" as="geometry" />
        </mxCell>
        <mxCell id="RmjtfXcaY5Lmv4AUt83Y-129" value="Identity" style="rounded=0;whiteSpace=wrap;html=1;" vertex="1" parent="1">
          <mxGeometry x="280" y="800" width="120" height="60" as="geometry" />
        </mxCell>
        <mxCell id="RmjtfXcaY5Lmv4AUt83Y-148" style="edgeStyle=none;rounded=0;orthogonalLoop=1;jettySize=auto;html=1;entryX=0;entryY=0.5;entryDx=0;entryDy=0;" edge="1" parent="1" source="RmjtfXcaY5Lmv4AUt83Y-138" target="RmjtfXcaY5Lmv4AUt83Y-146">
          <mxGeometry relative="1" as="geometry" />
        </mxCell>
        <mxCell id="RmjtfXcaY5Lmv4AUt83Y-138" value="&lt;ol&gt;&lt;li&gt;Used to be called Azure AD, but they changed the name for no reason&lt;/li&gt;&lt;li&gt;It&#39;s Azure&#39;s enteprise RBAC and identity management solution&lt;/li&gt;&lt;li&gt;&lt;b&gt;VERY &lt;/b&gt;different to on-prem ADDS (Active Directory Domain Services)&lt;/li&gt;&lt;/ol&gt;" style="rounded=0;whiteSpace=wrap;html=1;strokeWidth=1.5;align=left;verticalAlign=top;spacingTop=60;" vertex="1" parent="1">
          <mxGeometry x="1480" y="755" width="200" height="210" as="geometry" />
        </mxCell>
        <mxCell id="RmjtfXcaY5Lmv4AUt83Y-139" value="&lt;b&gt;Azure Entra ID&lt;/b&gt;" style="rounded=0;whiteSpace=wrap;html=1;strokeWidth=1;fillColor=#dae8fc;strokeColor=#007FFF;fontColor=#007FFF;" vertex="1" parent="1">
          <mxGeometry x="1490" y="765" width="180" height="30" as="geometry" />
        </mxCell>
        <mxCell id="RmjtfXcaY5Lmv4AUt83Y-140" value="" style="rounded=0;whiteSpace=wrap;html=1;strokeWidth=1;fillColor=#ffe6cc;strokeColor=#d79b00;fontColor=#FF9900;" vertex="1" parent="1">
          <mxGeometry x="1490" y="795" width="180" height="20" as="geometry" />
        </mxCell>
        <mxCell id="RmjtfXcaY5Lmv4AUt83Y-143" value="&lt;div&gt;&lt;b&gt;Principals&lt;/b&gt;&lt;/div&gt;&lt;div&gt;Basically your actors. e.g. user (p123456d), VM&#39;s managed system identities, service principals, etc.&lt;/div&gt;&lt;div&gt;&lt;br&gt;&lt;/div&gt;&lt;div&gt;Anything that can act on another service&lt;/div&gt;" style="rounded=0;whiteSpace=wrap;html=1;fillColor=#e1d5e7;strokeColor=#9673a6;" vertex="1" parent="1">
          <mxGeometry x="2290" y="790" width="160" height="140" as="geometry" />
        </mxCell>
        <mxCell id="RmjtfXcaY5Lmv4AUt83Y-145" value="&lt;div&gt;&lt;b&gt;Role&lt;/b&gt;&lt;/div&gt;&lt;div style=&quot;text-align: left;&quot;&gt;&lt;ol&gt;&lt;li&gt;Container for a set of permissions&amp;nbsp;&lt;/li&gt;&lt;li&gt;Don&#39;t really need to fuck around with these unless you&#39;re a cloud sys admin who need to ring fence roles for your org users&lt;/li&gt;&lt;li&gt;Most default roles are pretty solid&lt;/li&gt;&lt;/ol&gt;&lt;/div&gt;" style="rounded=0;whiteSpace=wrap;html=1;fillColor=#e1d5e7;strokeColor=#9673a6;" vertex="1" parent="1">
          <mxGeometry x="1920" y="570" width="320" height="140" as="geometry" />
        </mxCell>
        <mxCell id="RmjtfXcaY5Lmv4AUt83Y-147" style="edgeStyle=none;rounded=0;orthogonalLoop=1;jettySize=auto;html=1;entryX=0.5;entryY=1;entryDx=0;entryDy=0;" edge="1" parent="1" source="RmjtfXcaY5Lmv4AUt83Y-146" target="RmjtfXcaY5Lmv4AUt83Y-145">
          <mxGeometry relative="1" as="geometry" />
        </mxCell>
        <mxCell id="RmjtfXcaY5Lmv4AUt83Y-149" style="edgeStyle=none;rounded=0;orthogonalLoop=1;jettySize=auto;html=1;" edge="1" parent="1" source="RmjtfXcaY5Lmv4AUt83Y-146" target="RmjtfXcaY5Lmv4AUt83Y-143">
          <mxGeometry relative="1" as="geometry" />
        </mxCell>
        <mxCell id="RmjtfXcaY5Lmv4AUt83Y-151" style="edgeStyle=none;rounded=0;orthogonalLoop=1;jettySize=auto;html=1;entryX=0.5;entryY=0;entryDx=0;entryDy=0;" edge="1" parent="1" source="RmjtfXcaY5Lmv4AUt83Y-146" target="RmjtfXcaY5Lmv4AUt83Y-150">
          <mxGeometry relative="1" as="geometry" />
        </mxCell>
        <mxCell id="RmjtfXcaY5Lmv4AUt83Y-146" value="&lt;div&gt;&lt;b&gt;RBAC Assignment&lt;/b&gt;&lt;/div&gt;&lt;div&gt;Each RBAC Assignment requires:&lt;/div&gt;&lt;div&gt;&lt;ol&gt;&lt;li&gt;Principal: Who&lt;/li&gt;&lt;li&gt;Role: What&lt;/li&gt;&lt;li&gt;Scope: Where&lt;/li&gt;&lt;/ol&gt;&lt;/div&gt;" style="rounded=0;whiteSpace=wrap;html=1;fillColor=#e1d5e7;strokeColor=#9673a6;" vertex="1" parent="1">
          <mxGeometry x="2000" y="790" width="160" height="140" as="geometry" />
        </mxCell>
        <mxCell id="RmjtfXcaY5Lmv4AUt83Y-150" value="&lt;div&gt;&lt;b&gt;Scope&lt;/b&gt;&lt;/div&gt;&lt;div&gt;Basically what resources you want to act on. they usually have a unique ID that you reference.&lt;/div&gt;" style="rounded=0;whiteSpace=wrap;html=1;fillColor=#e1d5e7;strokeColor=#9673a6;" vertex="1" parent="1">
          <mxGeometry x="2280" y="1000" width="160" height="140" as="geometry" />
        </mxCell>
        <mxCell id="RmjtfXcaY5Lmv4AUt83Y-155" style="edgeStyle=none;rounded=0;orthogonalLoop=1;jettySize=auto;html=1;entryX=0.5;entryY=1;entryDx=0;entryDy=0;" edge="1" parent="1" source="RmjtfXcaY5Lmv4AUt83Y-60" target="RmjtfXcaY5Lmv4AUt83Y-81">
          <mxGeometry relative="1" as="geometry" />
        </mxCell>
        <mxCell id="RmjtfXcaY5Lmv4AUt83Y-173" value="Belongs to&lt;br&gt;many subnets to 1 VNET" style="edgeLabel;html=1;align=center;verticalAlign=middle;resizable=0;points=[];" vertex="1" connectable="0" parent="RmjtfXcaY5Lmv4AUt83Y-155">
          <mxGeometry x="-0.0333" y="2" relative="1" as="geometry">
            <mxPoint as="offset" />
          </mxGeometry>
        </mxCell>
        <mxCell id="RmjtfXcaY5Lmv4AUt83Y-163" style="edgeStyle=none;rounded=0;orthogonalLoop=1;jettySize=auto;html=1;entryX=0.25;entryY=0;entryDx=0;entryDy=0;exitX=0.75;exitY=1;exitDx=0;exitDy=0;" edge="1" parent="1" source="RmjtfXcaY5Lmv4AUt83Y-105" target="RmjtfXcaY5Lmv4AUt83Y-161">
          <mxGeometry relative="1" as="geometry" />
        </mxCell>
        <mxCell id="RmjtfXcaY5Lmv4AUt83Y-164" style="edgeStyle=none;rounded=0;orthogonalLoop=1;jettySize=auto;html=1;entryX=0;entryY=0.5;entryDx=0;entryDy=0;exitX=1;exitY=0.75;exitDx=0;exitDy=0;" edge="1" parent="1" source="RmjtfXcaY5Lmv4AUt83Y-105" target="RmjtfXcaY5Lmv4AUt83Y-162">
          <mxGeometry relative="1" as="geometry" />
        </mxCell>
        <mxCell id="RmjtfXcaY5Lmv4AUt83Y-180" style="edgeStyle=none;rounded=0;orthogonalLoop=1;jettySize=auto;html=1;entryX=0.25;entryY=1;entryDx=0;entryDy=0;" edge="1" parent="1" source="RmjtfXcaY5Lmv4AUt83Y-159" target="RmjtfXcaY5Lmv4AUt83Y-179">
          <mxGeometry relative="1" as="geometry" />
        </mxCell>
        <mxCell id="RmjtfXcaY5Lmv4AUt83Y-181" value="Example" style="edgeLabel;html=1;align=center;verticalAlign=middle;resizable=0;points=[];" vertex="1" connectable="0" parent="RmjtfXcaY5Lmv4AUt83Y-180">
          <mxGeometry x="-0.2102" y="3" relative="1" as="geometry">
            <mxPoint as="offset" />
          </mxGeometry>
        </mxCell>
        <mxCell id="RmjtfXcaY5Lmv4AUt83Y-159" value="&lt;div&gt;&lt;b&gt;Hub Network&lt;/b&gt;&lt;/div&gt;&lt;div&gt;Your central resources.&lt;/div&gt;&lt;div&gt;Firewalls, expressroute gateways and shit. All your spoke networks will route their traffic and reference specific resources in your hub network.&amp;nbsp;&lt;/div&gt;" style="rounded=0;whiteSpace=wrap;html=1;fillColor=#e1d5e7;strokeColor=#9673a6;" vertex="1" parent="1">
          <mxGeometry x="1580" y="-100" width="160" height="140" as="geometry" />
        </mxCell>
        <mxCell id="RmjtfXcaY5Lmv4AUt83Y-161" value="&lt;div&gt;&lt;b&gt;Pros:&lt;/b&gt;&lt;/div&gt;&lt;div&gt;Basically minimising your network complexity to a single point, maximising usage and reducing cost&lt;b&gt;&lt;br&gt;&lt;/b&gt;&lt;/div&gt;" style="rounded=0;whiteSpace=wrap;html=1;fillColor=#e1d5e7;strokeColor=#9673a6;" vertex="1" parent="1">
          <mxGeometry x="1630" y="370" width="160" height="140" as="geometry" />
        </mxCell>
        <mxCell id="RmjtfXcaY5Lmv4AUt83Y-162" value="&lt;div&gt;&lt;b&gt;Cons:&lt;/b&gt;&lt;/div&gt;&lt;div&gt;Single point of failure. Basically if your hub goes down you&#39;re fucked. Good thing is that it&#39;s very rare and generally have real good availability/uptime until it doesnt. then you&#39;re fucked.&lt;/div&gt;" style="rounded=0;whiteSpace=wrap;html=1;fillColor=#e1d5e7;strokeColor=#9673a6;" vertex="1" parent="1">
          <mxGeometry x="1720" y="194" width="160" height="140" as="geometry" />
        </mxCell>
        <mxCell id="RmjtfXcaY5Lmv4AUt83Y-165" value="" style="shape=image;verticalLabelPosition=bottom;labelBackgroundColor=default;verticalAlign=top;aspect=fixed;imageAspect=0;image=data:image/png,iVBORw0KGgoAAAANSUhEUgAAA0oAAAJVCAYAAADgLQUXAAAgAElEQVR4Aey9z4ttWZmue/4jGyKKWlCWeZAq9SQo3qJOenbKLa+/khQDtPBsOAqVFzItgsQELyhIbasjCOeADTeKDc3OMToiuBtpJ6oRILtjy54t5+WNU+/O1y+/Medca0WstSLW0wjGnGN84/s1njnX+OZcEfGf3vWud038kAMYgAEYgAEYgAEYgAEYgAEY+D8M/PVf//X0n0gGFwQMwAAMwAAMwAAMwAAMwAAMvM0AhRJv03ibCAMwAAMwAAMwAAMwAAMwUBigUCoJoYp+u4omF+QCBmAABmAABmAABmDgVBmgUKJQ4ukBDMAADMAADMAADMAADMBAYYBCqSTkVCtm4uZpEQzAAAzAAAzAAAzAAAy8zQCFEoUSTw9gAAZgAAZgAAZgAAZgAAYKAxRKJSFU0W9X0eSCXMAADMAADMAADMAADJwqAxRKFEo8PYABGIABGIABGIABGIABGCgMUCiVhJxqxUzcPC2CARiAARiAARiAARiAgbcZoFCiUOLpAQzAAAzAAAzAAAzAAAzAQGGAQqkkhCr67SqaXJALGIABGIABGIABGICBU2WAQolCiacHMAADMAADMAADMAADMAADhQEKpZKQU62YiZunRTAAAzAAAzAAAzAAAzDwNgMUShRKPD2AARiAARiAARiAARiAARgoDGxVKF1cXExPnz6d1FJ1vl11kgtyAQMwAAMwAAMwAAMwAAP3g4GNC6VHjx5Nl5eX09nZGUVSqTq5KO7HRcE6so4wAAMwAAMwAAMwAAMbF0qPHz/mTRIFEkUyDMAADMAADMAADMAADNxrBiiUAPxeA87TIJ4GwQAMwAAMwAAMwAAMbMMAhRKFEoUSDMAADMAADMAADMAADMBAYWDjQkl/wEFfv9umKmMO1TwMwAAMwAAMwAAMwAAMwMBdYGB1oaTiSH/pTn/M4S4Eho9cgDAAAzAAAzAAAzAAAzAAA9sysLpQsgHeKAGbWaCFBRiAARiAARiAARiAgfvKwMaFEn/1jovhvl4MxAXbMAADMAADMAADMAADZoBCqfzSlhNDy0UCAzAAAzAAAzAAAzAAA6fLAIUShRK/cwYDMAADMAADMAADMAADMFAY2LhQ0h9zePLkyfTgwQOSWZLJE4fTfeLA2rP2MAADMAADMAADMHC/GNi4UBIA+oMO+gt4agHifgHBerKeMAADMAADMAADMAADMPCuaatCicRx8cAADMAADMAADMAADMAADNxnBiiU+PocbwVhAAZgAAZgAAZgAAZgAAYKAxRKJSH3uSomNp76wAAMwAAMwAAMwAAMwMA6BiiUKJR4egADMAADMAADMAADMAADMFAYoFAqCaHCXldhkyfyBAMwAAMwAAMwAAMwcJ8ZoFCiUOLpAQzAAAzAAAzAAAzAAAzAQGFgb4XSl17/wfTdt/40PXj4renhD38xfee3f5w+/uIX9rYgsiv7r/78rb3ZVMyv/+r304c+9onWpn36/uWf956PQ1b/uf5aj7kcbeqn/r+X/s+X/nw9f8Kep1yb8oM8zMAADMAADMAADJgBCqVSOToxN9EuFUq2oYLpjV//YePCUQWHiiz/3GTBYd9uo91HoaR/jHwbvqOTmycMwAAMwAAMwAAMnAYDeyuUshhYW0DcdQjXxpm5WRuzdO/7rdxa35bkMi8qmm7yLZ/fKFEoncYNbIk1xuEABmAABmAABmBgWwb2VigtOajNs9+MqNV5zqlvT3JcX23T2xTPrwWENuIek57Uq+OqW7KaI73/8ua/X/sineqvuvX1QY95nvW7IPjG//rVrP1RoVTjyoJCx3lum9lW3/KN09KYZOW/vq6ouHJuzVnNSfW7jqePo+PHjx9PV1dX0/n5+TvWazRH/RRK3Azn+GAMPmAABmAABmAABtYycBSFkjbt/+N//u9nG2Jt0HNzPSokHOTatxIqLGqhJN2ypVb6JOOiwBt+/26Vz1OH/Jb/muviw0Wc2iyeqi37P4ovi6Fqu+q2Lrf2JX31WNXlcxdenus18Lh11fVRv3MmGzq3LtvctKVQ4ia2KTPIwwwMwAAMwAAMwMBNMnAUhVINSBt1/c6Oixe1KlZcgFR5bcy9qa9jea7Nuzf77q+b/CwCXCCk3aUiIG1oXhYQ1ld96Aol5UBz1drXqs8FTfemq8ZlHWozRvenDzX/ksm4FWPmpMpLds162PZNtrxR4gZ5kzyhC55gAAZgAAZg4HQZOJpCSZtvbfj947c4hlMbc49l8eHxnF8LkZSpY9KbtqRHP5rjwiaLgiwYJJN+2T/b0Fj1Vbo9br+ySMk++WWdbqs+y0vvKA7LuO38Sh9q4aN58lm2n//HL1+39sdt2pa8/PFYjdd+3EZLoXS6N7Pb4Amd8AQDMAADMAADp8vAURRK2kjnG4huo56QahM+Khg0V7q6zfmoSMmCJP1YKpRUXGhuFlJpoxYknT7FlUWK4+z6PNa1jtu+KH750slKJuOUTPZ1+be+UQydHfXZr249RnN26adQOt2b2S7cMBduYAAGYAAGYAAGKgNHUyhl4aMNfn1DkY5r053yOeaNfLcxzyLGc7o+j1mXiw/1u2DQsYoZFRxqdS45vUWxbZ2nn1mM2Ib11D8PbtujYifn23bmTD7VIs5zavFiW/a7FkpVl+RqoWXdta266/jonN9R4mY1YoN+2IABGIABGIABGNgHA0dRKHnj7q9q/fNPfvMXv6OkjbnH1OYm3RvxHM/iouq2nIsCFwHuT/3WPSqUtECy5bkqivRX8qzbhZPH02/NrXGlbY3bvuer1ZyuP4skg1Njy6Kt5mUpZ5mDznfr7nxL3fZtqaVQ4ga4xAjjMAIDMAADMAADMHCbDBxFoXSbAS7p1ibehY1l1bfN5t7z73pb3yjdpXj46h03zLvEK77CKwzAAAzAAAwcLwMnXSj57UcWSn7Tkn2nBjCF0vFesKfGIvHCIgzAAAzAAAzAwKEYOOlCSUmvX0/z19sOtSDHYPc+FEpPnz6d9HNxcdH+QYtjyDM+cOOHARiAARiAARiAgeNl4OQLJeA8XjhZG9YGBmAABmAABmAABmDgUAxQKL0L+A4FH3ZhDwZgAAZgAAZgAAZg4FgZoFCiUOKraTAAAzAAAzAAAzAAAzAAA4UBCqWSkGOtaPGLpy0wAAMwAAMwAAMwAAMwsD8GKJQolHh6AAMwAAMwAAMwAAMwAAMwUBigUCoJoUrfX5VOrsk1DMAADMAADMAADMDAsTJwJwql5z74vumXr55Nr33u76cX/u7D08X5V6eXP/XRYdX7b1/7x2tZJ13zNF96NPbjb3xxev973j2c73m0XLgwAAMwAAMwAAMwAAMwcJoM3LtCSYXUT195+booMtQUSqcJt9eflvWHARiAARiAARiAARjYlIE7USjp7Y/eAuktkt4KqRBSQdQFq6JIPzmmeX6LpDG9VcpxjrlwYAAGYAAGYAAGYAAGYAAGkoE7USilw3PHS0XU3FzGuDBgAAZgAAZgAAZgAAZgAAbMwL0qlHhbBNgGmxYWYAAGYAAGYAAGYAAGdmHg3hRK+fW8XRLCXC4oGIABGIABGIABGIABGICBe1Mo5e8hATZgwwAMwAAMwAAMwAAMwAAM7MLAvSmU6p8E3yUpzOWiggEYgAEYgAEYgAEYgIHTZuBeFErdnwQH7NMGm/Vn/WEABmAABmAABmAABnZh4F4USvwRBy6CXS4C5sIPDMAADMAADMAADMBAZeDOF0r8SXCgrlBzDhMwAAMwAAMwAAMwAAO7MnDnC6VdE8B8LiIYgAEYgAEYgAEYgAEYgIHKAIXSu4CiQsE5TMAADMAADMAADMAADJw6AxRKFErTqV8ExM8HAQzAAAzAAAzAAAzAQGWAQolCiUIJBmAABmAABmAABmAABmCgMEChVBJSK0nOeboAAzAAAzAAAzAAAzAAA6fHAIUShRJPD2AABmAABmAABmAABmAABgoDFEolITwtOL2nBaw5aw4DMAADMAADMAADMFAZoFCiUOLpAQzAAAzAAAzAAAzAAAzAQGFgb4XS2dnZdHl5OT19+vT659GjRyxGWYxaxXLOkw0YgAEYgAEYgAEYgAEYOAwDeyuUvMAPHjyYnjx5MlEoHWbBvQ605B8GYAAGYAAGYAAGYAAGxgxQKPFWhzd7MAADMAADMAADMAADMAADhQEKpZIQqupxVU1uyA0MwAAMwAAMwAAMwMCpMEChRKHE0wMYgAEYgAEYgAEYgAEYgIHCAIVSScipVMjEydMgGIABGIABGIABGIABGBgzQKFEocTTAxiAARiAARiAARiAARiAgcIAhVJJCFX1uKomN+QGBmAABmAABmAABmDgVBg4qkLp4uKC/7FE4cbTDBiAARiAARiAARiAARg4OANHVSjpfyvpH9I+fvz44Ik5lUqZOHkqBAMwAAMwAAMwAAMwAAPvZOCoCqXz8/Pp6uqKf0bLEwQKZRiAARiAARiAARiAARg4KANHUSg9ePBgevLkCV+742I46MXAk5R3PkkhJ+QEBmAABmAABmDgVBnYW6F0dnY2XV5eXhdD+nqdvmZ3qkknbm44MAADMAADMAADMAADMHDcDOytUAKE4waB9WF9YAAGYAAGYAAGYAAGYOBtBiiU+Lobb/ZgAAZgAAZgAAZgAAZgAAYKAxRKJSFU0W9X0eSCXMAADMAADMAADMAADJwqAxRKFEo8PYABGIABGIABGIABGIABGCgMUCiVhJxqxUzcPC2CARiAARiAARiAARiAgbcZoFCiUOLpAQzAAAzAAAzAAAzAAAzAQGFgb4XSl17/wfTdt/40PXj4renhD38xfee3f5w+/uIX2gWRzBu//sNwfN+VrvyUv6//6vfThz72idbnXXx69edvPcvNLnpyrn1WrpVP5V5rkDLbHr//Pe+efvyNL07/9rV/nJ774PumX756Nr32ub+/Ed3b+rTPeS9/6qPTb974+vXPxflXpxf+7sOLsUtGspqnfClv6bPyZ53Ka45x/PaTHXKxWy6WOBN75vCUrulj5Er3iJ++8vKq+8tt+6/7l3yp963btnuX9PuzUNdP97mw9Blwl2I9FV+9ptrvaN9zF+I+NGd3MWdL60qhVCrHLmEuOrYplNYUffexUMoNWfeh0eX5pvq02butTZ5vAiqWtvF3acMhvymU3i4GlOe79CG1DROHmLPE2W1eQ4eI9y7a1L1m10Lppq6fpfvWXcrvbceytG63bf/Y1sIPVrf9zDxkPP68v4ufQYfi7DZzppi0n9z3euytUMqCQW825oqOlD3kRXITtg8Vi958KcfKtQo9vaGTLzcRk3R4I9XdBDWWb00k8+2XXtjbExn7dlOxpp5dbz5L85c2sOnLKRzf1EbvFHK1SYxLnN3mNbSJn6csu7ThXpObm7p+lu5ba3w5FpnbjmVp3W7b/rHk2X50ewSP0b79UPCmc3EfOdPnlvaSP3r4+b2+ad9bobQEgTb037/887Of+tU8fYXM43XMRcFoXLZzvuT8NTQXMv/tv792/fU6jWURl/P05ifjUAHiYkRfbcu5fgtln9z664fSI9ueV2PSeNWRfsl/+ZP+6Tj9Wzo+OzubLi8vp4uLi43mzenVxfnma2dDiPOmqc1Y9zUFfbj76z9q80mULhRv8izjcfW7L1vZsc9Vt+Z4bE2r+VkEek734dhtNpduXo7Nete2NS7nxPP9lMd5qU9kau5yfuru3g7OzfV6226XO/uYrfIkW57nNucvxZT68lg+6UarG670ap3MYsadcWXcsqv8SdY+1nxmzmQj9coX23NcamVPYzVnkk3/l45Hfuc8yczp1Zj9yXlzx56T9jPuul5Vf81ZHZd+5yvXw/lKW5rr+HzN/cPf/s31tSsddb2qbzlu/bZtvc7F3FzLbNNKr94offMzn2w5U7zpp+UV75rrZ8mnuh557WnuaD00dls5k15du/JN/mhNql81dq9XXSevZ7K0lJOqw7pzXq5D9vvYPErOfWqrbq/tSL6uf+rKY+cq7dW+Uc6kp9pZii9tJyPOt9q8tnWcY7KXOuaOK2fOmedIV+pOu5KZs51j3TrXnMmOWZRdzUkd1bZ9rK1jsg7prYymXo13ORtxUzmrfi3lrPqb5+lXzZnsan2kf/S5mbrqceZFdtLvGlPNmWwmG5Vhj3/2+Y888y39P4pCSQWDCgW/8XDxokJByVJRkIWECoIsGnRei5hMssZzfo65WHEB4+LEhZRlOxuWtW4XbJL1vBqL+7PtZKounztO+afiK8/tR+qeO76NQknwJpDVvmEXyAZdQBpKAfzGS59+lj8B7JuPdGlOzu3sSZd1p/16ceTY0rHtynb+pN/1azKdH6Obl+3LjnW6b6ldypnGlcMuJ9Kt/sxx2pO/WfjW9biNeNK+b2DiJvvNkWPy+ZrcWVac+sYoPfrxfMWlDaptasxcO5/Omc/lq+SX1iNzaF9sV/N17HOPO077M2rn/M45GWv2+1j219rMObo27HvmrMbR5axeP9arNnX53Pm3buff4/ZDOdEHszcbne2560N6rMu2Mjcay/P0e5dj+1njtK16bUi+5rDKrPVHOcvrXufSLRvOr68Hn9tPnd9Wzpx/r6XPnRPnzCz43OPyrcaivrU/+mxyDqzbtqxD/XUdPKa2s1/j8LnyONK3dm07P3N96rjPnbNqZ+RPxpjHjqXmSTLqS2507rVNHaNj3aOVT43bjv1e8rNbh86O9ClfOVZtVb91nvfCGmfqqsfWrfmOJder6qq2ra+Lz7qt12stHZq3lDPrXmq7nNmW19vntr2kM+PRnLz/1Lmy7xg1VuVrnBpXvu2bbPn+p5wdRaHkNyMOthYOGs/CRQVKfpVsrhByMZPzbUetC6Ucr/5IblQopR+dXI0lbfu4k5E/tfBJOY1nsVhzYt37bgWnARZsuukJQPf5Qs0bT4U4fa5A1wswLx7Pk+68SNzvC7Mbs8xSK199MaVs9VNjnR+dv6mnxpdja4+rL9Lp/FcdzoniqmM619zMl9fP8l5jn1cdmtvlq8qNzqW38139Ve9Sbm0jY8g58jW5tLzalKv51Xi31p5f5SWbdmTXMUpWx2o9f5QDj8+16XfKzcUqubl4Uk8ea47jUH/a1rHeBCj3npM+KF6tp/o87tZjyViuYR57TuqWbd2Hcn7GJ9n02zrUrlmPGnfO3+VYtuuGO32tXHTyVWatP5kfzcm1XFqP28zZ0lpnfhxrzUHGYplt25on6enWIfV39uXj6H72Xz70gWdfNcq5yXjq745Ttvq3lLOavzq/s5d93Zpp3P2yn/JdTnN87rjGObqnSIdyWe8Lne7U6XHN9UZafcqJbClXOt8lZ86L8mB71vfcB957fa9ak7NkxXrUt+192DrWtF3OOm42WevU2emyX12Mzp9yK7k6X+NZoHsN1C99R18o+U2Kv7rm1m+AnBwVNx6rb3RUcKjIsGy2WXxkfz3epFDKAmaN/k6mFkLyJ+Xq+DEWSs5hQpoAery2unhUXPknAc6LRfO6m8HcxSd56cunB9X+3LliqR9okq8Xnvo6Pzp/016NL8fmjudypjH9dPPlT97wq0zV6zVRHiyrY/d3G87Uofg8b02b7KR817+UW89PBnNO5t4yjit5WbPWGbPmVobNkO04L/LHfKbtLq+OJ1vry7m2lXIZa/b7WP7bJ/cttXNzkpH0TXOsN2NPn7t8O07pzWPryvhyjT2erXxIP3IsfUq/cz1s3+PyKXVse9zFndznsWwsyW/iR13LzGFnxzmQT7eZs7TjeHKt89jjNU8Zi2XWttLldXZbr5MuP6m/s199lHzKaT0kozcoOtaY7FbbaSePU5f0JO9LOau+LcWXdnXcrdlcf2Wv6stzxVXvlxlbjuc9xToUm9cxr2mPq+3yoxxIn/MvPal/l5yN8iVfRmNdznLNHU/G67jVbpIz65prRzmrD346vzu9XdzdXMmpEFTsqWdpPep4nXtnCiUVBun86NhvkFwsLRUQWXyMdKp/k0JJRZt1rdHfySje+kYp+461UBJwuSlUHhLCDnjnSq0usLzh1JtyvQC7m0F3AaUNH1db7p9rFUv6Z9nqp/o7Pzp/rUNtjS/HRsc1jurLnM4qW210MVSZPJf86ANHtvLDJeeNjpOdlOnWoevLOT5OBnM9Mk81jpTrcpZ5WloP+ZkfUpmvtGN/N2nn/E49GWv2+zjjcd9SOzdntI4jnZlDcyMdls++XE+PZ3xLOU1Zz3e7NNdybiWv+1/66rFN246z9LXmtJOvMmt9qGuZecjcW1/2pazH59pNcra01spPXk+yW/s29c++d37WPEm2WwfrUNvZ1zrVz5XsUwz6nUrZU78LJh2n7tFx5s06LFvzo/7sk43M6VJ81us2bbtPrftly/1dn8dqa+Zyvo4VX5XVucZqjlNO8zJOj3U67Wfex3MtdsmZdac+++KxjLnrk/yIsy5G66/tUs6qvM+7nHXcKOcZi+fX1tde5lvHNRbp6vQtrUcdT/saO4pCSUWI38K40MkiQeN5nkHUY7+BcqGkcRUu1l/luyKlyuh8TaEkXXrTlUWd48m+qr/zwfMcR43rJgql2/gdJV+0CXBC6HH11TzoXJDnXF1IWXhpPG+E3c2g6ujsqE8+zN04u3mjOb5pOy75oAtZberp/M3xGl+OjY5rvDVnvsnYt6pH8pnzHNeczH+OdcfVl5Tx2tecpEw9lu/dGy/n27o20W1ZxZbrIV1mS62PLW9Wlm74NQfS4xxa12gtPG7bNR9L53N+59yMNft9LD3OrfuW2rk5db2WdCk/zrdkpTsZzRw7Z/ZXc3XtaY7m5hp3dueuD+u2rm5+9jnOXF/rMAMpP3dcOau6M0cjG6PrZ86uxjK/trvpeuySs5F/jjPzK19tq66lfU/5rm9kL/trLqWzu8dLf31yXvVoXHLut09m2HH6XO33vvLi9e/vSlZPzXU9yCfrWGrlr+6l9atXSznTPK+9/dqUZa2P1yj9VFzWrf60lXLdsXOmORp3HJ2dNbrlS95jbFP9VadsdrKeU8fl6xwTnqfWOXZcOabjtTlTPpY4q7rruXzI9anjo/MuZ10OlFfJjvS4v+ZT/Yov9wadTM53HM5vMjw3V34fRaHkIkBfnXOhocJGxYIDVcHgr9apdeGTcz2eb3Q8P7+aJzkXLl2R4jmdbs21fhcztpt6rUOtbFkmvzJYY5JMFoRVv+1ap3Ogc8nW35dKH7rj2yiUbEcXgD5E/OObiiEVmJbN1jc/z9OHQ95g6gXY3Qxswzp8k5NN96nNCyV9mDuWDl9wVS71y2beBOR32tax9VR/LWe/q516vpQzyftDxLq9HtYlWx5Tm+uTcWnMfmtujSvHurjWxmS/qo3UX+Neq9t+Ka7kJ9mq+dLTXH/oyG4yKR9lW/N1XP2qDNd8Kqe5HvYv18O6My/d8ZzfnV7ZcN6q37a/1nbmoPOt02/Oak66a1P67VNyIFsZt3Lpp+8e89p1fllGNq1/7Xp0MXX5Up90O96RH9nf6a7zMyd6y1C5lD7blv2at7SXx8mK8iK7yol8slzarnpzvnPqvHRxecy6R631Zh40V754TrIg251uzbdfHWvWVduMWflQ0WH9qbPTLTn3u8281bxkTNbtuDWWc6uf3bn129+UWcpZxj3iLPXVY9t23OlD5mWTtZCNnKt86F7rvDlntll151zJZD7Nmee6te7RuNdHbd5DFH93bdY86dy6rauTSd+X4qqx1bXQuG2pdaxqq+7OF/fZ75yvY+esy4HGFIt1jNpOzvY0v4tJtlO3dNi3ynBdr+rHURRK1am7cr5NcXJXYsPP9X8JiVyRq7UM+ObuDybNc1/e1NfqQ+5usKf13mTTwbrejXW9S+vUbVTvkv/H5Gu3sVZfFlvH5C++7HY/oVDa4E+DVtgolHaDr+aTc/J53xnwk68slPw0N/vuex5OJT6vN0US97ZDM68n6vo5tB/3wb4eauUbI8Wk3Na++xArMbzrOL56d1cXgkKJD7+7yi5+H45dFUT+CoBbiqTDrQfXArm/zwz4K0ds4m+Oc38LwPdvteT35vJ7bNcjb5R2eKN0bIuJP/f3QmVtWVsYgAEYgAEYgAEY2C8DFEoUSryKhwEYgAEYgAEYgAEYgAEYKAxQKJWEUKnvt1In3+QbBmAABmAABmAABmDgGBmgUKJQ4ukBDMAADMAADMAADMAADMBAYYBCqSTkGKtZfOIpCwzAAAzAAAzAAAzAAAzslwEKJQolnh7AAAzAAAzAAAzAAAzAAAwUBvZWKH3p9R9M333rT9ODh9+aHv7wF9N3fvvHSX9eOytj9X//8s+TZLO/Hmv89V/9fvrQxz5xLbdGd9Wx9lx/ttf/A0N/O3/uH4r5T0Ye05/61Z8Gtf9zMUvuEP/wctucrY1rLuZDjPn/qvjPih4i55vELZZv+8+e+v8IaU038e0mZJV/rcVtXrOKT/+VXWu/q8/Jz5rreld73Xxfs2Y4183+bcvMLuuxq+0u1k37nBvzpHgyP5vqQ36/T47var7vOme+brp7yrGsia5j5bnzx/77uu9kbqrPtuSP73kjv27K5qnroVAqlWMFQuB7QyIY5wolyW67Qah2b+pcF5P9n9M5dxOYm7frWM2Z/MgcexNdbwRr49rVv5ueL7/10+lVf42zkxv1af42m37feLubfF2fke1d+r3Go7xsq3suLutUvrfJmeevaXdd186GPiBVfCl33XjXp7X0RsTtNrxpzug+5w/u0XjnV/bNrccSi7vaTj+2Pa4+Kp45rs2+10PzO9teu6rL+dL8vG9ah+StW23qr7a3XTPb2rRN+91nlHzv+r3OjqvGXceVo019872j2vc6yHYdW2Njab3W6OhkljirOak5y7VQbJuwUOcmY/K12u7WQ33VptfA6+w28z7Ht2xnvjU/bVf99dqqedZ4zs9x68rY02fNTHkAACAASURBVLcam+c6d6Nxy2VrW9Lv3I78ynkcb//QZW+Fkt4kvfHrP1y/RapvhDZdwDr/JnVXXwSynwbrIpgDWuDmhVJ1HfP53E3gNv3OnOkG8KOHn59+9sqXn20AdQPQ+X24EfgGN2JklzXQDVNsfvMzn5zdmHVrOefXEvOdvmPpm4trXz56XdTepE3p26ZQyg2SP6Q3vbZ24XSXHNwFFvN+pliVW/V1cft+p3XQuOLLTaDneK11b0xdks/1lK38fKq2U946bdvXyqYs2MdN21Gs0iPfFNe3X3phevO1s2efBRqzn5pvm8qJ8+Jxx2HGU97z5lrnMq8x+aX8qtVcyWT+5/RpLPOvc/mc67U0f25cvjgHVc45yRxkznZhQbrFpTmSjWTYtpfWQ/5Ypvqf5zWHOSYfkhfJZn7ruOzZppnzeer18ZyPjtM5Vuv18JjPrS/700+Pz7X2xTpsd24OY3egUJpbJH0FT1/F09fu/PW8Ku+v5UlGP/nVuyrbnZ+fn09XV1fT48ePn91gO7lt+3QRuqCyDl8suvj8NCQvRI3rAvns8x+5vrlIJi8mX7ye64vJF0fqqn3yRzcsze1u5pa3brWpr9rOMcf6D3/7N9e6Nde+Kfaqu7MvOeuRLc/TTVcfkLInPTrWj/OyFJf0aG7G5ZuI7Y381lzZ8dy84ds/xenxGlf6Jhn7rLn6cU7tj/urv9Zf51u+a83S8x/+q+u1cE4lK/2py3mQTMZru2o1R3OtV2vgcY/Zj9RRc6YxyevH8zP+nFv15hzPlbztVs6SwdTruWptw2uhvuqz9Oe4ZFK3xnSuOHyN5bj9Uyt76bP6nNNNr/vUKx9yE5djmbdkVHbz3L5kX43b+bJ+57z2azzt1piXcpZ263rU68rrmX7P2a6+aX4yqLn6SWZy3DF3dp0XtXldud96R7otp9Y5SNvq11z9WJf67JP6rEPzkwnP8Xj6l8cer/LywzHXnGmO/bXM6BqwfrfyPTfX7nf7va+8eJ1L+ZgbX43XGNWXeZHPyYXGnT/rX2ptV7oyn3We5dR6bJSzbr26+dbTtSPdknUOFKvXQ/IaW8qZ/Kh7l8pC50/XZyZsW+3SenS56XSrb86vGqdzYl113P1uKyf2y/lUW683xZbjjts63WpevT7c90//9fl3jGmextfotg3a7Quhpdzt7Y3SkiMaV8Gkt056Q5TyeoOUv9NU3yil7Oj4tgul7gLWRSPQNSa/6o3R476R5LgvUl+YPrcuX2Tql+7RTaC7CUq+3hTSf9uy7Xrzk05tZryhqeOaZz9H62EfbEPnsqsPUOVF87WR1BuSTt8oLsk6n9X2Gr/zZlZ1dX7YRs2BzzXHdvOmp+PqZ66B9a5tPddrlzfs6nfNXTfHds2o9KtP5+m3dM/lTPPyGqjytmP/fV5b5VN21HpMbCgWnTsG6fe4+zIXHnMrfXUz5HnW5XPnwGvrPPi82ul0y65z6vmKwRtC2xrZnvPbuq1X55nvunYan7Odcfm4Mux7gP2yTefK/Z5v33y+NmfSI9lkzbqzVbzVdo1b5+m35igu5zxzJt2dzrTp447hqrv64rlqu5ykfPphTjRuHbVPY4pLrcecG587n5LJnMiXN1769DPdGvfapa/yyfbXtr7/qCAyT/YjdSSb2a8Y7Itk5Lf8k0zmyOey0elPnT52XqRHOaj3Bsuprf7N5azq0rli8Pqk3u54Trfk5a90eT3qes3lzDE7R5WFzp9Rn+Nasx4f/9AHnuXAHKhNDtOOuZGN7PexbDoG9ZkN50Q5yHHPc6tx/cydW5dzVs8dt3W4lVzaTnaq35ojeTNuHbS3Vwgt5fboCyX9wQa9PVJx5GC2KZQ89zZaXbjdDbVeAL64fDGpzZtCjmusXih5o6g2JZ8XuePMOXN9muuLXnNUsMgfz9GY9Ws8P5wkk/PXXOTVf+nIPn2ISqdspW3708Wl+cqZ82tZt3N+d3NzPaRjLi6N5Y1Q8vIj+zob9k1t5jD7l44zb5Kt+arnNXc1zrTXxWDWu3iqLsWUOai2bWspdo2P1tU6apzVF8tlW3OnMdnZ5NrTnM7/mjvbVf+21711dH7bj8xTynVx5bjWZu66l37nVLm2L7Wt66DxtGP5LmednOVH+fS42mp75G/arnMqoxqvPKRNHY/8rrolN7pHyae8Vuy717Pq0nnK67xuvG0vN9Hpu+dsGl+1nTqXjhVP+uM4FX/O1Tr4AUL269g68jpSv/ySHo8rP3rgpnuWclH11HPNc05Ha6o5I59TX873sXyRfq9Tcphzl46tTzmSrOP2PI1XzpyTmjPPWcuC5bu2Mmy/bLtbD+dSsp1O93W58lzl0zm1vNoc1/wcy2P5l3mp9wDJpv3kJO2oP/XqWLqkO8fmdHVrV3Vyvt+iiUJp4Y85rAHSN4MqO7qYfEOo4zm/G6sXb15sOs4L0brqHPV3falLenzjyVYyo/m251aynut4Paa2y1ne/DN+Hdu2dXQxqG/0wap53RzrS9vu80028zqKq4snY5DOpRugdHe5sj+jttqpcVbf6ngXp21V3ZmnPLZ81bU2pjk5+aBx23CrOPQBZM7Uplz1xfOy7WKoMUs+c9bNqf7P2e7026duLG1brvPBNjMfOvYGQLrrhli6fc1ovM4d5XSO08qbfO78rTkbyTnmLjcec1ttOyeaaxm1abvO6fIteeemi73qsK3aP/JHcnVt6tx6bl32S1+Pza+0KWavvfIv/S4CPFdxyVfplp7MU8asMety/jzXsWarHOa1mbF169j1JZupW3Ydh+bJN/kvGcfhcfVV3TUuz62M1vORD7Xf65E5c/7VJ380x2vg87mcSb76neuhGHI9qu65nFnW851D+9XZds4ydvXlOmvMuubWw/Y7ndY/YsHjaqse51NxeKz6p3kpZ33qq8W18mMfpTNjsv7MmXR53T1PfXVuPV8Tq/2k3U/BRKG0Y6E0ukC6C6LK1gskoddYvahrn+d3v5diXd0F3/XN3QSsy20332O17W4UNQ+eI1ndfNS6T63j1Dz3dz5ont92WC7bbo7H7adszfXVMd8A1eaNU3K1r7NhfWpzDbJ/6Vjz8sPZx45FfkjGemoeRush+Zr7zHEXT+1bG9NITvo6JmzH+ZevNc65uJwL6anMKOa5a6+bU/2vOba9Lqd1bM62ZTsfluLt4lLObK+utW1laxuZ9xzXcV0H9XX+1pyN5Kx/jX/Vdudv7atz5tZOcShfGb/1yT/76rbq7vIgmdz0aq51+lrOtsralnT7WvH89NO+y0/9eN09X7K+h+k4x6vfGtf6ee4mbZffbm0l5yLe+ru+jCWPPWetr5qbec7jjFXHmZu0k/2Zs9F61HuPddV20/VI29vmzCxUX7pz+ddxuWY9utxUG8p5rkEd93mudZ3T2VFu5LfmWYda9e9aKPl6q37rPNnKY+Ur1y594ng/RVGX56MvlOT0qz9/6/pHx/r9Jf3Bh2P5Yw4Ce3RDqWP1ZlfHc4F8kfkC7i5yyci2f48n5/u4u+CtW/YlJxu6WG3L4z63LredTo/VtvN7FLfjUZt6OvmRD7oJjdZjNMe26lzFP9JV45Ju3XCdU+fQ57LR9dm22jl7GpcurVPeeO1H2pGsZCyXeu1DfqBXeZ37R3ozB5qfH+5LOdP4iCPbsP0qN4pN8o7DcTv/jtm6dV77PGY9GY/7lB/7Yz98XnOgOTXOep42a05zzHHZVrVt2c4HjWleXVvPkd0c07l4cg6rbc/LduRPysiHmvPO3y5HnZx1a43rxtljbjvbNSc1D3XO3H2ii1/68hqxL2qrbp2nrM67DWbq8HHV5X61Xjuvpf3MddCYbeWx5lf56qf0eK7kfb3ZXvqydGxbspG2fe753Xp3duWbc+o8OG6fb+Nnx6L05jVkX9Uu5UzjmcMqn7rqcZWt66Fxx1x9WcrZEgvVl3pe48px59+++TzXo/KQ83XccVBldF51y6a5sB7l37adF/lf9VVdksk9UvVJtrp7qeOu+vNc/qSfGqu+p/ya4wcPHkxPnjy5/gNm+v38NXOQeXvfU3NxFIWSfufIf83Obf71u/yrePqjDpL/lzf//dk/nK1Bdee39cccBHR3ockHXQC6ePxTb7DdBZK++2L1/O6iG92kfGF7rtq0n745hoyj2tZ8zZF/uknUpy322ze9tFv9tj3PcTvSm3laiku6pD/tr/HbPuTczNeauHzjte3Mp/Q7p/bHNt1WGzVvmifd2T+XM/ufevVBocK6rp99q75n7h1DLSxGOZO8xmoeHG+1WW0vrXWOK1b/Xpv121+NVd3OpfvV5iam+pY511iXA8fZjadPNac51vmctpf81vzMi+Lyh3Cdm/Hahxq35muex82SY639mU8d2/cuJ8lG9U1zO/8yto7vtG/bNSdVr3SmbF5TjnekV7ozDufDbforHV4LjXe5rjLWo7b6mTmrMXX6q0z1LXNQfdO1VZmv97uMLf3ujqt++WK56pdykr5n3F2+qu7k1zbWtNKTMdd4ZVs/zlu12+UsY9slX1V36u1yspSzOt8xLeWpxuycZGxVpq6HrzH5UO15rPPHY7apNnUvjUtnztXxiDPJyr/0MXOmY8nYfo6lDY9nnOrLfHms+tfNtWzX6i88P336dHr06NE78trJ03fkhdJdXaD8QO1iGF0Aneyp9C3l7FTyQJzjm9Jdz40/NO96HPi/zCj3s+UcwRE5goH9M6ACSf8ShzdKu+f+KN4o3deLiEJpd0DvKxvEBRswAAMwAAMwAAM3ycDZ2dl0eXlJkRS/QrBrfimUbjCZdTEolLgBViY4hwkYgAEYgAEYgAEYuBsMUCjdYqHERXA3LgLWiXWCARiAARiAARiAARioDFAoUSjxi34wAAMwAAMwAAMwAAMwAAOFAQqlkpBaSXLO0wUYgAEYgAEYgAEYgAEYOD0GKJQolHh6AAMwAAMwAAMwAAMwAAMwUBigUCoJ4WnB6T0tYM1ZcxiAARiAARiAARiAgcoAhRKFEk8PYAAGYAAGYAAGYAAGYAAGCgN7K5S+9PoPpu++9afpwcNvTQ9/+IvpO7/94/TxF79w8AX50Mc+Mb3+q99Pr/78rWt/5Jf8qxXlNuf+z9D6D8v+79T6Z5TWxT+m5MmFWbjN9q5z5mvH/+E8r6HbzNta3b7OR/85fZ//lNS5Uo5kV/9pfuTX2viQ4z4FAzAAAzBwqgxQKB1xoeSNjjeIow2PCjHJ1HH3a+zH3/jipA2dQfeGyrp/+erZdTHn8Wq7zrfcbbXa6Nm3zrZi0yZQfqYPS34rR9bbzU9do2PbqH7totubbfum+Eb2N+1fKpQcj23XuHItJKPztT5U3ZXRymGnW7mo+ah6q+81n91az8VV9Ve/M37bGslI109fefnZ9WV5+1xjs277UNfD413rfCo2zx/51c2nj80QDMAADMAADLzNwN4KJb1JeuPXf7h+a6O3S3qLo7c5x7AYepukt0h+uyT/bsovbYK0afHmKDct6h9tkiT/o4eff1YIaF632VO/NmH6qbpzgyU7ttX5kuPabEmfNlrKg+Xl703lZU6PfEnfU9YbwW+/9ML05mtnz3yUzJLfiifnKJ5aIKat7ti5qD7KtnxWq3mb6q75l183lW/pkf4unqWcialci5rDTqf7lhh2Lh1nt7G3TLJt/bXNHNYxzc+1notrye+qe8lHxZWFkuJ1zMp/t9bWWTmrtuu55ym+urZVlvO3PwjJBbmAARiAARjoGNhbodQZd58KExcr37/886Sf+vU3nXvMX+HTfM39lzf//brwUv/X/vUn11/xy0JMX/HTV+o8v+q2H6P27Oxsury8nC4uLtrN5mjeUr83sNoM+enyaEPoDVWOu++f/uvz15tZj7nf5/IjN2vdBsq+VFnHIB+9uVOfdNtntWmrG8+51tm18lMFojZ83fj3vvLidSySy6JHshmj56bfOtaPx7o8eWzUKg4VDs75yM/OP811zrLoHclmgTLyx/1z6yG7jt32vV5LOfNc2+nY8dhSW/MtH7J40Xz7aV11jvtru+RXjXOTuDof3Od81mugrkeNM/2vMWtM/o04czFk23O60w7HbAJgAAZgAAZgYDMGjqZQUhGjYkkLqOInf4dJb6NUAHlxVei4EJKs5rrY0rz/9t9fu357pXl+S+TiyEWT5K1vqb3NQkmbHW2K5EO3cbRv3ph5g6t+b7C8cfJYt2msfZrrDZY2kdq4e771eaOu/tzYS9cbL336Wf40bl2OI+Udw5pWuVChJNveCDo/Ob8rLub89liNMfOf+rvjtCk9zs+SrMY195uf+eSznHkjLL+qLp3Lr8xpZ8N9S+shWxmn9Fu38+JYNJZrZza8BuLGsra/tpWfsisbmiOd0uf59lP6/+//8p+v/TADbu2357itutzvto5vElf12zmTTun3ueNKTjSu83yjZJ/c+jr2ec6Xzsy3bWXePI92sw8/8kW+YAAGYAAGlhg4mkLJhY8cVjGjr+mp0OkCGH2Nz2+lcr5k9cYpv+anoslFWad/X31181Y3ZOlH3aDm5subJ2/UNK9uvnSeG2DJSF4b0Npvu/JP46PNqeXkt7+qZ1+8ibTM2rb6qTjlX8YmXbmZrLo7v+2X9MiG4pKcfnRedXTnknNc0pMb2JS3rTm9uX7W9dnnP3Idq/L9D3/7N89ymrrXHOd6SL7G2HEmmdFaOx6Nz8W05JvmZs7sl+KXbo0pB1lUdL5WOzVej3uudHeMr42r+u310nzZsh7161zy5kTnudb2za3mVN9yfrWl86Xr0bpp2QDAAAzAAAzAwG4M3IlCyW+F/NU5tX7jpDdDLrK6QslvnHKujo+xUKobLsOtTVdujqpcPde83CRqo6i3GdqIql/jufnT5ksy3txZn2Qkq36NS84+aUx9/vFmz3ZT1nPc2p7n5uY5N4mW7/q6QmnOb4/JpuOU/tSdMvbNcahNP+u5fbXOlFVfp9tr6nz4XPJ1c20Z+1X1j9ZDuhSvxnWcvkin/fJ4XWv54ULVsumn++yXWum1LbfSm/PUb1sZi+bm+RqepCfn2Ga2Vc9SXJ7b+V19dA4cdzIlPXUtrTt9cF/VXc/XxGpdtLt9OJI/8gcDMAADMHAnCiUVNS6GBO0mb5SykDo24LXp8QZVvmkz5zcz9lUyLkLc5w1Wbk59PNowao5/90fH9fd7tCHzRjaPbTM3aDq2bPW7bho9f21bc6J5deOpvqUYbC/9lp7M9ya+ap5zXFvly/Ykl7nJ/lwb+e83J6NYUt56unZuPSRfc5qcLa31KGfS2fnS9Um2Miy5ke1co1rgVP1L4ykvvfZ7TVxzfufaVI7SjuznWtsf9Skn9sf9mlv58rnypZ+07Xm0fJjDAAzAAAzAwM0zcGcKJb8B8tultW+U/DtJ/h2lbSC6zd9R0sbIPmnTlJug0UbN8m7rRs39butG3Js0bbosIz9sW/25sbV++1r9VH/Ka7wrFmxrru18rUWd5lc59S35rXFtOh232m391Fzny/EoDyN9GnP+nE/L+tz6fK48Wvdcu2Y9bFt6Ul5x5NrZtuXV2i/N7dhZ8i31p6yLHNvyuddHsl1f6shYsr8eV16W4pLekd+druQqfbL/Xmv55RxKrvpZzytn1rdmbtXl8/Pz8+nq6mp68uTJ9ODBg0UfPI/25j+AySk5hQEYgIHjZuBOFEp6g6S/aOevz33jf/2q/VPj3VfvBKCLJc9Xe0x/zMFPjHND6g2Rx9ymjC8ub25zg6mNlOfkJs1zJOtxtVVvzte4N7OaX33TX6Lr3oSl/k02dulb3axWv2QjZep4+i3fU3eXF+dnqZWezJk3vxlz5q2O68+b+42SbHkNPX+TfC2tR81J+i3bdTxzVv2Sf4p9KT8ar345trRfZapuj9d+6XdOuzHPs81kRHPn4qpzrSP9zpzpWDmzH6lbdtWvudIr25K1TrfVP8npx3Ol033Vv005VnGkIkl/yVMPgayX9rg/rFkf1gcGYAAG9s/AURRKLPz+F56ck3MYOF0G9K8OeKN0uuvPtc/awwAMwMA6BiiU/uPJLcCsA4Y8kScYuLsMPHr0aHr69ClFEvd93iTCAAzAAAysYIBCaUWS2Bje3Y0ha8fawQAMwAAMwAAMwAAMbMMAhRKFEk8UYAAGYAAGYAAGYAAGYAAGCgMUSiUh21SbzOEpBQzAAAzAAAzAAAzAAAzcLwYolCiUeHoAAzAAAzAAAzAAAzAAAzBQGKBQKgnhScD9ehLAerKeMAADMAADMAADMAAD2zBAoUShxNMDGIABGIABGIABGIABGICBwgCFUknINtUmc3hKAQMwAAMwAAMwAAMwAAP3i4G9FUpfev0H03ff+tP04OG3poc//MX0nd/+cfr4i184mspVPn3/8s+T/LxpyG9T98hX5VY5lm3lXLm/ydjOz8+nq6ur6//Jov/Lov/PMvKF/vt102A9WU8YgAEYgAEYgIFTYIBC6T/eKN1mMXObukeQ7qNQ+t3vfjednZ1RIPFWEgZgAAZgAAZgAAZg4N4xsLdCSW813vj1H67fIunNxuu/+v30oY994t4ldFS47LtfuVWOlWsVTcq91uCm/NAbJQolnibdFE/ogSUYgAEYgAEYgIFjY2BvhdJc4NrMv/rzt66/Jqavv+lHb2Fyjt/KaKx+bc9zU8ZfM1PfP//kN9dzNO9r//qTa/2aI/1+8yK9/mpg2nXBYb+q7ZwvmSwAc6zTLTvyw7pTRnb/5c1/vy50ZFMy1bZi9Fy1NWcZR3est0GXl5fTxcXFX+S6k619FErczCoTnMMEDMAADMAADMDAfWLgaAolbfRdvOjNh4oCvwFRQZBFggqCLEhcbHh+jutYBchn/9//73qO5unYb7e8mKO3LppvvZbNVmOSyb56PKc745Aex+kCzcWTz21rpLPanjunUOJmNscHY/ABAzAAAzAAAzBwygwcTaGUBYOLAr8VUjHiYy1WLRI0nvPza34udFJnjnvxq073Z/Hivmyr7RzzcadbfSqKMq70MY+tx7Ho3PNdOFlmXy1vlLhx7os17MAaDMAADMAADMDAIRg46kJJRYALhvyKmY79pkVJm3ur4+LCelSYbFIoWb/t18LEej2ehY8XdFQo1d8bsi7pyGPrcSw+VxzKg2z7TZTHbrulUOKGdduMoR/GYAAGYAAGYAAGDsnAURdKo4KhJuy2CyXbW3qL48KlFkujQqm+UbL+Udy1ULJfajW2z2KJQokbV/LHMTzAAAzAAAzAAAzcNwaOslCqm/56XhdhX4WS3/LIn+qDzrPQyfGuUNJ4/dqe9PorhLaVRZfGNSd1+1hymxZK/I4SNzTzQwsLMAADMAADMAADMPCXDBxNoeSvro2+RqYiIWVcUGhBdymUVGCkXh37a30uVnI8CxUXRjmeRdScboMofZ6fhY5tjwqlqts+W++alkLpLy+GNTlDhpzBAAzAAAzAAAzAwGkwcDSFUhY+wHf88PHVu+NfI64j1ggGYAAGYAAGYAAGtmeAQon/otx+lW/poqJQ2v6iW8ot4+QWBmAABmAABmAABg7PAIUShdLWhdLV1dX09OnT659Hjx5tpYebwOFvAqwBawADMAADMAADMAAD72TgKAolFuadC0NOyAkMwAAMwAAMwAAMwAAMHI4BCiXeKPEmCAZgAAZgAAZgAAZgAAZgoDBAoVQSQtV+uKqd3JN7GIABGIABGIABGICBY2GAQolCiacHMAADMAADMAADMAADMAADhQEKpZKQY6lg8YOnKTAAAzAAAzAAAzAAAzBwOAYolCiUeHoAAzAAAzAAAzAAAzAAAzBQGLhThdKDBw+mJ0+eXP856sePH7OYZTF54nC4Jw7kntzDAAzAAAzAAAzAwP1i4E4VSiqOVCipYALE+wUi68l6wgAMwAAMwAAMwAAMHBMDd6pQuri4mHiTxAV0TBcQvsAjDMAADMAADMAADNxPBiiU+Poab+dgAAZgAAZgAAZgAAZgAAYKAxRKJSE8EbifTwRYV9YVBmAABmAABmAABmBgEwbuTKHkP+Tw6NEjql2KOxiAARiAARiAARiAARiAgVtl4E4USvrdpKurq+n8/PxWk7FJhYksTyRgAAZgAAZgAAZgAAZg4P4ycCcKJQHIG6X7CyE3GNYWBmAABmAABmAABmDg2Bi4M4WSEsdfveMCOrYLCH9gEgZgAAZgAAZgAAbuJwMUSny3k68zwgAMwAAMwAAMwAAMwAAMFAYolEpCeCJwP58IsK6sKwzAAAzAAAzAAAzAwCYM3KlCSf9sVl+/2yRAZLkgYAAGYAAGYAAGYAAGYAAGNmXgThVK/oMOT58+nVQ0bRos8lwgMAADMAADMAADMAADMAADaxi4U4XSmoCQAXwYgAEYgAEYgAEYgAEYgIFdGaBQ4neUeDMHAzAAAzAAAzAAAzAAAzBQGKBQKgnZtfJkPk8vYAAGYAAGYAAGYAAGYODuM0ChRKHE0wMYgAEYgAEYgAEYgAEYgIHCAIVSSQjV/92v/llD1hAGYAAGYAAGYAAGYGBXBiiUKJR4egADMAADMAADMAADMAADMFAYOIlC6eEPfzF957d/nD7+4hemV3/+1vT6r34/fehjn9gbDLL//cs/T196/Qd7s6lYFbNsP3j4rem7b/3pRu0/evRo0p9p18/V1dV0fn6+t9h2fTrAfJ4wwQAMwAAMwAAMwAAMLDFAoVQqx6WE1XEVXCq85oqg+1ooPXnyZNL/tqo54ZwbDwzAAAzAAAzAAAzAwF1n4CQKJRUxfoukokVvlW5q4dYUSjdlaxM96ZfeLr3x6z9cv1naRMecrN4oUShxA5xjhDH4gAEYgAEYgAEYuMsMnEShtLRAKqT01Tj/1LdDdVzFlnSq4PKcbD3ur79pTF9901fgqi+pI2U012+q1C8dLvasY+SXx5fas7Oz6fLycrq4dOYxTwAAIABJREFUuHiHX0tzKZS48S0xwjiMwAAMwAAMwAAM3GUGTr5QUkHyP/7n/35WKKj48O8zaWF1ngVMXex8c1PHfD56o6OCKosfndu2i6x6Ln+kd6TTNte0FErcvNZwggycwAAMwAAMwAAMnCIDJ18o1UXPAsRFkN8QVVmdW8YFTCeTOj3uQijnpa5ujt4+2RfP97n17qvljRI3zH2xhh1YgwEYgAEYgAEYOAQDFErNV+j8BsnFSBYzdZGyuKljPu+Knq4vdXXjWShJt/+anb6W5zdPtnnbLYUSN6zbZgz9MAYDMAADMAADMHBIBk6+UMqvu2khskDJwmW0SGtkUqf1qE/FTRZh2dfNqYWSdamtceTYbRxTKHHjug2u0AlXMAADMAADMAADx8IAhVL5PSEVI36jpEVaU4Bojn5Gi9oVPZLVnPo7Sj7v5kh+9FU7FVybvlXid5S4EY2YpR82YAAGYAAGYAAGTp2Bky+U/BbHf7Xun3/ym3f8KW0VJx5XW4uVqsPjKl5yno6zCBN8Kn4sk4XOUqFUdVe9a8CmUOIGuIYTZOAEBmAABmAABmDgFBk4+ULpFBf9JmLmq3fcMG+CI3TAEQzAAAzAAAzAwLEyQKH0LuDcBk4KJbjZhhvmwA0MwAAMwAAMwMBdYYBCiUJp+LtVcxCrUHr69On1z9XV1XR+fr6VnjkbjHEjhQEYgAEYgAEYgAEYOBQDFEoUShQ4MAADMAADMAADMAADMAADhQEKpZKQQ1Ws2OVpCQzAAAzAAAzAAAzAAAwcDwMUShRKPD2AARiAARiAARiAARiAARgoDFAolYRQxR9PFc9asBYwAAMwAAMwAAMwAAOHYoBCiUKJpwcwAAMwAAMwAAMwAAMwAAOFAQqlkpBDVazY5WkJDMAADMAADMAADMAADBwPAxRKC4XSy5/66HRx/tXphb/78PTa5/5++uWrZ9NzH3zfX1Tc73/Pu6d/+9o/tv0//sYXn41prnRwARzPBcBasBYwAAMwAAMwAAMwAAMdAxRKOxRKKpB+9PDz10XUGy99enr+w3/17FzJ1jiFEhded+HRBxcwAAMwAAMwAAMwcNwMUCgtFEp6k/TTV16+flukt0sqfFQAGWwXQ7954+uTfiTjMbV606S3SJar4ynL8XFfLKwP6wMDMAADMAADMAADp8MAhdJCobR0MbgAUpHkr+gtzWH8dC4w1pq1hgEYgAEYgAEYgIG7yQCF0g6Fkoqkua/ecVHczYuCdWPdYAAGYAAGYAAGYAAGKJR2KJR8Aalg6v6Yg8dpudBgAAZgAAZgAAZgAAZg4G4xQKF0A4US0N8t6Fkv1gsGYAAGYAAGYAAGYGCJAQolCqW/+OMTS8Awzk0FBmAABmAABmAABmDgFBigUKJQolCCARiAARiAARiAARiAARgoDFAolYScQnVMjDwFggEYgAEYgAEYgAEYgIF5BiiUKJR4egADMAADMAADMAADMAADMFAYoFAqCaGynq+syQ/5gQEYgAEYgAEYgAEYOAUGKJQolHh6AAMwAAMwAAMwAAMwAAMwUBigUCoJOYXqmBh5CgQDMAADMAADMAADMAAD8wxQKFEo8fQABmAABmAABmAABmAABmCgMEChVBJCZT1fWZMf8gMDMAADMAADMAADMHAKDFAoUSjx9AAGYAAGYAAGYAAGYAAGYKAwQKFUEnIK1TEx8hQIBmAABmAABmAABmAABuYZoFCiUOLpAQzAAAzAAAzAAAzAAAzAQGHgJAql8/Pz6erqanr69Ol1q3Mq6PkKmvyQHxiAARiAARiAARiAgVNm4CQKJS/w2dnZ9Lvf/W6iUOKiNxO0sAADMAADMAADMAADMNAxQKFUXrF1SaKPiwcGYAAGYAAGYAAGYAAGTosBCiUKJb6GCAMwAAMwAAMwAAMwAAMwUBigUCoJ4UnBaT0pYL1ZbxiAARiAARiAARiAgY4BCiUKJZ4ewAAMwAAMwAAMwAAMwAAMFAYolEpCumqSPp4ywAAMwAAMwAAMwAAMwMBpMUChRKHE0wMYgAEYgAEYgAEYgAEYgIHCAIXSfyTk4uLi+v8sPXr0CEgKJDw9Oa2nJ6w36w0DMAADMAADMAAD75oolP6jKFCBpH9I+/jxYwolCiUYgAEYgAEYgAEYgAEYOHEGKJT+AwD9E9qrq6uJN0o8QeEJCgzAAAzAAAzAAAzAAAycfKH04MGD6cmTJ3zt7sSfGHAz5GYIAzAAAzAAAzAAAzCQDJxEoeS3Rfpqnd4a6TyTwDEXBQzAAAzAAAzAAAzAAAzAQDJwEoVSBswxFwAMwAAMwAAMwAAMwAAMwMASAxRKfOWMt2swAAMwAAMwAAMwAAMwAAOFAQqlkpClypJxnj7AAAzAAAzAAAzAAAzAwP1ngEKJQomnBzAAAzAAAzAAAzAAAzAAA4UBCqWSEJ4O3P+nA6wxawwDMAADMAADMAADMLDEAIUShRJPD2AABmAABmAABmAABmAABgoDJ1EoPfzhL6bv/PaP08df/ML06s/fml7/1e+nD33sE/cCBsX2/cs/T196/Qd7i0d5VD5l+8HDb03ffetPN2o//5y7/qQ7/wSYJz5LT3wYhxEYgAEYgAEYgIGbZoBCqVSOmyZYBZcKr7lCRcXZNsXMGt33tVD63e9+N52dne2t+Nt03ZHnZgwDMAADMAADMAAD95uBkyiUVMT4LZIKCxUuNwX2UjGjty+y/bV//cnGdpd031QMm+pJvxTfG7/+w/WbpU31jOT1RolC6X7feEZrTz/rDgMwAAMwAAMwcCwMnEShNJdsFVEqnPxmRm9+dOw5/pqZ+vXjgkvjflPkMbc530Xa//Xyw+u50mfdakf6l3TnPH31TV+BS73Vv5RRofMvb/779VswfYVOfvuridaR+mvclplr9Tbo8vJyuri4eIdfc/M0RqHEDXKJEcZhBAZgAAZgAAZg4LYZoFB6/QfXhYLfMqmwcdHgNycufHxuWS2O+zSvWyzJan4n52LE+uv8bk6VkY7ujY50ZlGn8xqXiyfbST/sd7W39pxCiZvXWlaQgxUYgAEYgAEYgIFjZIBCKb6WpwXKwiOLJi+e3tyoMJGc+lxkdIVS6pKsCpEssmoxYxtu53RbptpQv/pUFKVPqSuPraf6Jj+z0LLcPlreKHGz3Adn2IAzGIABGIABGICBOQYolBYKpVosbFIoqVDJ+XWuipEsnOpCdQVNlRkVSvUtU+rKY+urhZJl/HXCLLo857ZaCiVuWrfFFnphCwZgAAZgAAZgYC0DFEqlmMnCQ8WBv67mhNY+FxRdIaEiyIVGtpatxYltuJ3TbZn0N/vqG6V8y9TpnfNFBd5N/wlw+9q1FErcwDou6IMLGIABGIABGICBfTJAoTRTKLm4UBGhRXGB4XMvVPdmyLIuijrZNQVIp9u61HaFkvo1L99myWefd77NFUrOQ40l/ajH/I4SN7LKBOcwAQMwAAMwAAMwcJcYoFCaKZS0kC4S/EZIBUhd4CqjoqN+zc5zVGzkWyoXS9bvYsbynW6NSY/nuPUfZ/Bc+eqxtLlUKFWb0lGLQ9sYtRRK3AhHbNAPGzAAAzAAAzAAA3eBgZMvlO7CIp2aj3z1jpvnqTFPvDAPAzAAAzAAA8fHAIXSu45vUU79QqFQgslTvwaIn2sABmAABmAABg7PAIUShdI7vkp46AtThdLV1dX09OnT659Hjx4dnY+HzhH2D3/zZA1YAxiAARiAARi43wxQKFEoUYTAAAzAAAzAAAzAAAzAAAwUBiiUSkJ4MnC/nwywvqwvDMAADMAADMAADMDAGgYolCiUeHoAAzAAAzAAAzAAAzAAAzBQGKBQKglZU10iw1MIGIABGIABGIABGIABGLjfDFAoUSjx9AAGYAAGYAAGYAAGYAAGYKAwQKFUEsKTgfv9ZID1ZX1hAAZgAAZgAAZgAAbWMEChtFAovfypj04X51+dXvi7D0+vfe7vp1++ejY998H3bVRxa95v3vj6JF1rFuWYZOy7/N8m9n3GonX56SsvX6/VbdmVDeXhx9/44vT+97x7r+spBsXiv33tH2/NrmJSbJVV2f7eV15ctKt5N5Ubx3sI9m7iur8tBtHLhzsMwAAMwAAM7IcBCqUdCiVtprIA8iazbhRdbNTN57FDro3qm6+dtYXHrhti526bTf/I9l0vlJQLsTLiwoXDNjkb6az9Nbey+aOHn5+e//BfTW+89OlrFnTeFYnmXzqk12usa8Q/c/FVX3wuH1QAb/qAovpjfWta+b7rA5I1dpDZzwcdeSbPMAADMAAD2zBAobRQKOUmrW4iten72Stffra5lazORxvJbRbokHNqvOnL3FjKjY612f/mZz55/fZh0w3wyPY+CqVRPDfRv1Qo3YSNJR3yQflNOXGtomHpzY7kkn3pybeQ1rNpsaR5+y6U0uaIt8wRx3wAwwAMwAAMwMD9Y4BCaaFQmoNeGz59HUmbSz291sZfP97UaeOujaI2mH46XfWljOT8Niqfhkt/p0P21e+fusGdGx/ZTf803/6435td23SbG2LLjtosaOrGvG5KU3bJtmW1Bt7YV//ncmLbn33+I8/myz/HkXOzX+M1n8pLXfOcn2PZ73yqTRs69pjk7ZPbqsMsiCMVLzo3i6O1yuLAetVm3ms+U04+pm+2qdxYrvbp3HFlTixv+76mst/XiOeP8uVxtdU/j41spz2O798HIGvKmsIADMAADMwxQKG0Y6GkjZeKJW2uv/3SC9dt3dR5A68NZy6GN9e5efN4bgI9ro2gN4PdhjM3e6NNr/Rbt/X63LrVegOZreWlQ/bnNs2Oo2tzrnTabqe3y13OT/3OpwsBn0veuj3m88yZ5BSvZZTD7quH1ef0wceSyXxJlwq4HK/5Ux5yjmWz7WTkt32WrM4dl9e2nnd2Ot3yW4XW0lfvOt6qX/Itc5rH9jvjcNydbo3JX/3o2HFmXO6TH9bldq1ty9PyQQoDMAADMAADp8cAhdIOhZI3ltqIaTOpjXC3qes2+7rYtKmrm2VfhN7keSOoftmR/HMfeO91m5tCjdsfHcsPbY67TaL66oa083vOP/siP+3z2rb6mYVl1dvlrsrYbidrW87nXM6k1wWFdHqO+m1DrXTkuuSYjpXL/ApaHbdMxq0++9rJu6/K2MdRXB7PGDr/u9zZplrFNPfHHDqdslk5Szuak353vtp2zZX0XF8L5W1VXk8jfdK51nbmgOPT+4BkzVlzGIABGDhtBiiUbqBQys1ft4HL8bzgtOkdbbjnNnmjsbqJ1kbVb4RyA6n+PJdP+yqUai5qLNW3Ki9fq4xz2sk6J9WO53h8Tq9l3XZFgcdkR0WS8uk+tbbv9cg3V5ZLX9xX2ypjvcpJylquG+/87/pS39xxl3fJy6daKCkvfksnHzMfPq6xdGyqT0Wt57hNrrvYHcda25anPe0PStaf9YcBGICB02SAQmnHQqlu6rpNY9enC25uczq3yfOY5vvC7fo8plYbQ28iuw1s1yf9npO6dCz50ViVzXPN86Y2W/nX6e1yN7LdyUqv4ujyU/tGetN/Hc+tm8b0U+dk/jXWbf7ta52b51WmxiDZ7POxYrOe6n8nY9k17Shv6q+Fkmy7r8YystXlquur8+fiWmu76uT8ND8oWXfWHQZgAAZOkwEKpQMWSn4qnptYX4hzmzzJ5IZT592m1Los78JGBYU2q97Q25bPPU/nnuM+t/Ldbwbcl61jq/OlU5vUlE3f89h+5dfhNG9ke65Q0jzZ9iZd52nL59Vf9defLoal+YrZcTuu9EXz5/JtH7oN/lxctqVYraP6r7E1cXt+tp1+j3f5VXFsX9TWtfXcbLXe9at3tuucpnweZ96zf63tnFOPHz16ND19+nS6uLh4ltsqw/k7rx9yQk5gAAZgAAbuCgMUSs1GeM3ieaPmTZ/n5GZdY/nWRMd1Y+iCwnLesI70245abXg9r+rNMcnUTbmLJc/vNpzSYX/Sro/TRtXvuHL+KCb74lzKF/vlvyIofbZbY7ftzL1lpUt++jx9rjmT/fTXc9Tad/vl1nlzDO53a9vOh/v1hz9Gm3/LrNUt/0Zx2W/n1rLWrfOaI/Wt/VFcNQ7PrfzXfEuuyngtNZYxOSc57tg8ptb5tg91XXJ8zrbnz7VnZ2fT5eXl9OTJk+nBgwerczank7H17JErcgUDMAADMHDbDFAobbApvO3FQD8X/L4ZmCt01viyS5G1Rv8xy6g4UpHEGyWu22PmFN/gEwZgAAa2Z4BCiUKJJ+EwAAMbMvD48WO+drdhzvig3v6DmtyROxiAARg4DAMUSnzYs0mGARiAARiAARiAARiAARgoDFAolYRQsR+mYifv5B0GYAAGYAAGYAAGYOCYGKBQolDi6QEMwAAMwAAMwAAMwAAMwEBhgEKpJOSYqlh84akKDMAADMAADMAADMAADByGAQolCiWeHsAADMAADMAADMAADMAADBQGKJRKQqjYD1Oxk3fyDgMwAAMwAAMwAAMwcEwMUChRKPH0AAZgAAZgAAZgAAZgAAZgoDBAoVQSUqvYlz/10eni/KuT/jHna5/7++mXr55Nz33wfRuBpHm/eePrk3RV/cd+bt/l/zax7zM+rctPX3n5eq1uy65sKA8//sYXp/e/5917XU8xKBb1T15vKz7FpNgqq7L9va+8uGhX8246N4rX1+BNxe04pdtrKtZvSj96eCIKAzAAAzAAA3efAQqlHQolbQqzAPLmq24UXWzUzeexX0DaHL/52llbeOy6IXbuttn0j2zf9UJJuZjbrO+jUKq5lc0fPfz89PyH/2p646VPX7Og865INP/SIbZH8ajfMmuuAcmPCqWRjSW99lXzKZTu/gfZ0nozzhrDAAzAAAxswwCF0kKhpI2i3lJoM1U3kdrU/uyVLz/b3EpW56ON5DYLdMg5Nd70ZW4s5UbH2qB+8zOfvH77oNyO5Lr+ke19FEqdPzfVt+2m/6bsS498UH5Tpwu0pbeKLqpcREmXflLXyEaVWXu+S84810VTjXutD8jx4QsDMAADMAAD95MBCqWFQmkOfBVK+jqSNlzabGnjrx8XVn5SrQ3m6Il4ykjOb6Ny8yb9nQ6/qdKYfupGb258ZDfj1Xz74/7cNNuu2k2+lpcFjWJLv3WcNlN2ybZltQbKt/xKXYphLie2/dnnP/Jsvvxz7Dk3+zVe8ynbdc1zfo5lf+Y0bejYY5K3T26rDudUHKlw17nWSDpGa6X8ml3rVZt5r/lMOfmYvuk4Y5Bscm17//C3f/PMt9SfdqvPNV7nJu3VNUnf0m+O7+eHG+vKusIADMAADOzKAIXSjoWSNl8qlrS5/vZLL1y3dbPpDbw2frlg3sh1GzhvKLUB9Lg2gd4IeuMrHdKp89x8exPq8bRr3dbrc+tW641ntpa3vdzUpv6lY/nqudJpu53eLnc5P205n95U+1zy1u0xn2fOJKd4LaMcdl89rD6nDz6WTOZLulTA5bhz4D7lIee4P9tORn7bZ8nq3HF5bet5Z6fTLb/XfPWu4002vLZq5Zf8kT7J60d+2be6Xo670+2xzmeNOW7HOdJtPbR8mMIADMAADMAADFQGKJR2KJS8SdMGUJs/bYS7TZ02aSqeNJYLoE1c3Sx73Bs9bzTVLzuSf+4D771uvQn0HPujc29CNcfjbtWXG2vL1wJvzj/7Ij+td21b/Uy7VW+Xuypju52sbTmfczmTXm/apdNz1G8baqUj1yXHdKzci4e53HSc2NeqL8+rjH0cxeXxjKHzv8td2pW/c3/ModPpddLvN4k3+S5/aqGUvtX4nM9kJP3q5D2nrkHnY+rimA9IGIABGIABGICBZIBC6QYKpdxk6vi6mInfu8nxTL42efrJPh93G9ylsbpp1AbUb4SyIPMGVjass9u4a2OZ8yyrttOR46PjmosaZ9Vb5edsd7LOSbVj/zw+p9eybuc23LLjQsDyam3f65FvriyXvrivtlXGepW3lLVcN9753/WlvrnjLu+S91rqbeur/8//KS71NTtfHx1znZ05OcdZ58l25trHkq+ynPOhCAMwAAMwAAMw0DFAobRjoVQ3qN2msevTYsxtTrsNrhfQY5o/1+cxtdoguuiRz/WNUtcn/Z6TunQs+dFYlc1zzfOmNVtvYKveLndVxvo7WW+k1+RspNf63c6tm8ZyXTwn86++bvNvXz2na6vMUlweV2zWV/3vZCy7ph3lTTGqaFSRpGPZ1VvXfRVK2/C5Jl5k+DCFARiAARiAgdNggELpgIWSNo/6qlduYn3hLW1etenMYkc68tx63EreG0cVFJJVn8Zty+fdHPe5le/d7+/kuGKzTffLhjb7Plebvuex/cqvw0l+ZHuuUNI82c4cpS37Uf1Vf/3pYliar5gdt+NKXzRfepfsS4fk0qe5uGxLsXpO9V9jS3Y9t7adfst4naRba2M7Ptf46Ct11qF2Tm6Us8p46lt7fH5+Pl1dXU1PnjyZHjx48Cx/a+cj985rh5yQExiAARiAgbvEAIVSsxFes4CjDWJu1rUxzLcmOu42/eqznDesI/3pmzaJnlf15phk6qbcG0nP9ya+6rc/2e/jtFH1a3Mrn3L+KCb74s28fLFfegOhzbT02a7aznbm3rK1sMh5NWfeyMtPz3dr3+2XW+fNMbjfrexJh/Phfv3hj1okVBtrdUv/KC7rdG4ta906rzlS39qfuSLGMduWc2Qm5ubaT+fLbeXM8XnctjTf9jymNvOwFKOKIxVJl5eX09nZ2eqcLOllfD1f5IpcwQAMwAAMHJIBCqUNNoWHXChsc6O4DQaWipUlm7sUWUu6j2H84uKCN0rcIymSYQAGYAAGTpQBCqUTXfhj2ITiA8XfsTLw6NGj6enTpxRJ3B/ZHMEADMAADJwwAxRKJ7z4x7pJxS8KKBiAARiAARiAARiAgUMzQKFEocSTEhiAARiAARiAARiAARiAgcIAhVJJyKErV+zz9AQGYAAGYAAGYAAGYAAGDs8AhRKFEk8PYAAGYAAGYAAGYAAGYAAGCgMUSiUhVO+Hr95ZA9YABmAABmAABmAABmDg0AxQKFEo8fQABmAABmAABmAABmAABmCgMEChVBJy6MoV+zw9gQEYgAEYgAEYgAEYgIHDM0ChtFAovfypj04X51+d9I85X/vc30+/fPVseu6D79uo4ta837zx9Um67hr09l3+bxP7PuPVuvz0lZev1+q27MqG8vDjb3xxev973r3X9RSDYlH/5PW24lNMim0tq/bpLvBxWzk7pN5d/2HwNr6LP98Tt5nfzTF30u1rTPeeTpa+w28cWAPWAAZg4FQYoFDaoVDSZjILIH/Y1020i421m89jgU+bsDdfO2sLD8VS49zEb+dum03/yPZdL5SUi7nNoYuSbXK2dm1GuV2af4gNu3xaytmS35qf1/CS/LGNd/H7PrRNMeO54mAUq2xuo3ukT/22K90USmzA5lhhDD5gAAb2yQCF0kKhlBvAuonUpvZnr3z52eZWsjr/0cPP7/1tw21AU+NNG3NjKTc61obom5/55HWxpY3RSK7rH9neR6HU+XNTfd2m96Z0r9UjH5TftfKWy+vEfftod8mZeFGxLw6lZx/+3qQN+1+vH62F7kHffumFZ/emtXZdsGzDwFobIzmv5SF9GPlGPxszGIABGDhNBiiUFgqluQtDhdL3vvLi9SZLH+7acOlHX//S5kU/+pqWnliPnsCmjOT8liY3C9pAdDr8pkpj+qmbm7nxkd2MV/Ptj/u1CVMstul2k6/lyba/IqfY0m8dp82UXbJtWa2BfUxdimEuJ7b92ec/8mx+bqBzbvZLb82n8lLXPOfnWPY7n2rTho49Jnmvh9uqwzkVR9o069wsjtZqVOxorm2n37atdjTXHHu+Y3J/xtL1ZVxpO/utW631y6e6JmlL417v5z/8V9fMST5jyrilu86vPkje83Nu+u3xubnOg+MarZd0ZLypW/1ak+6hTfqWcWmObWbruPP663yq+c5rT2M6l23lQ/pz3L7TnuZGhHVn3WEABo6VAQqlHQslbSJULGlzrSe4al0oedG1SXBh4D613lh4I5JjuVnyuDYy3hhpw5GbFW9AtJmRntHGVWPWbb0+t+6lDZN0yN62G52cKx9st9Pb5S7na45/nE/nxeeSt26P+Tw3sZLTBs4yymH31cPqs+1nKxnnV/3SpQLOMhqr+VMeco5ls+1k5Ld9lqzOHZfXtp53djrdNQfVln0b8Sad+pGcfbHtmoO61rvkrNqqLMgfx2tZxeZ4Mofuy1a+Z85zbClno1xZh3Q7Z+6rbc2VxzOWTmYprpxvnbXt/Pc8r63PHYfz75z5PHNe7XD+9r2NXJALGIABGDgMAxRKsdHeFEJvtPRhrye32gh3m4huwyJbdaOY9utGQ2Oyo831cx9473XrTYnn2R+dyw9tjruNiPq8YfHczu85/+yL/LSOtW31MwvLqrfLXZWx3U7WtpzPuZxJrwsK6fQc9duGWumQ3uzLY+Wye5JfZTJujdnXlKvHVcY+juLyeMbQ+d/lTrYlm7o7fZLr+JHOa17jTU2uXbWpsaW8rs1ZtwYZd7WdY44x48510FxdP5nTHNe8nGt9lpdvo2vTOa/XZ+rXceYxx+o6JC/2I33LuTq2jH2t4zqvNtQn+epzytV8a0761tmh7zCbAvJO3mEABmDgbQYolG6gUMpNgI7r5jDHEz5tFEYbw7kNy2isbjy0efFXaPLtRbfJyk2NfdSGKue5X22nI8dHxzUXNZaqt8rP2e5knZNqx/55fE6vZd0qL3PrpiJJ+bS8Wtv3euSbK8ulL+6rbZWxXuUtZS3XjXf+d33SJz3ps4+rvY4f9akg8By3yZT9tK3Ua989T23djOf8jF96cp6PJS85jacf6b84miuEJNu9abT9NTlL/9KPTofWxv1qnZfMlcfrOmacS3Et6baNzJX4KDcoAAAgAElEQVT70o77Um7u2rQ87dsfzOSCXMAADMDAcTBAobRjoVQ3K92GoOvTBVA3NXlRzG2GPJYbqK4v9Wnz5g2ZfK4bzq5P+j0ndem42xhVme5c87xpzXa0ge1yN7LdyUqv4ujyU/tGemscc+umMf3UOZl/jeUm0rL21eddW2VqDJqTfT5WbNZX/e9kLFvtub+2XTxdX53nnHe/J7RLzqxXsVWbOpfu5M/HmjeXD83tOEsba3PmOTVO99uWrtVkapRX++1Y3PotqceThbSl4zUynX3pnLundDnbNE/VV86PYxPBOrAOMAAD95kBCqUDFkracIy+grO0YdHGKTcm3UYlwZW8ix5tWnLzZVu5GdPcnJO6dCzf556qOzbb9Hzp1AbJ52rT9zy2X97oec7I9tJmTLbncibb1V/bzLaLwXGM5itmx+240hfNn8u37Xeby7m4bEuxWUf1fy5ujdX8W0+2WpP6tTjbdtwp72OtmXKmr63KL/er3SVnlfHUa78yJ9VezWnOt+xordfmzDpla6TLvmZuOgakq+O/zl+Ky7HNrVm31jXf1W7n2ygO56W2Dx48mJ48eTJdXV1N5+fnf8FKleWcjRsMwAAMwMBNMEChtGWh5I1A3WzlhkBjfqrrtm46XVB43Bumkf5cdG16PK/qzTHJ1E25Nzae322MpMP+pF0fp42q33Hl/FFM9sW5lC/2SxtobcClz3bVdrYz95atm7GcV3Mm++mvdai17/bLrfPmGNzvVvY03/lwv/7wx6iwsMxa3dI/ist+O7eWtW6d1xypL38qx7nWadd+57jte0ytc2IbOq9robFdcqb53ZooFumtuZe8xtL3Glv1W3nLuDLHm+QsbXb5yrXqGHceZbPjV35n/1JcNW+Ou85T7Ol7nbfk9xJ3jivbx48fT0+fPp0ePXr0F4ymDMd/ef2SD/IBAzAAA9szQKFUNoXAtD1M5O7u5W5UNLCWx7mWKlayADm1dVKBxBul42Tz1FgkXjiEgdNggEKJQoknszAAAzBw1AycnZ1Nl5eXFElwetScsnE+jY0z63xa60yhxAcPHzwwAAMwAAMwAAMwAAMwAAOFAQqlkhCeFJzWkwLWm/WGARiAARiAARiAARjoGKBQolDi6QEMwAAMwAAMwAAMwAAMwEBhgEKpJKSrJunjKQMMwAAMwAAMwAAMwAAMnBYDFEoUSjw9gAEYgAEYgAEYgAEYgAEYKAxQKJWE8KTgtJ4UsN6sNwzAAAzAAAzAAAzAQMcAhRKFEk8PYAAGYAAGYAAGYAAGYAAGCgMUSiUhtZrUf7u/OP/qpH/MqX/2mP+JvsqOzv0f7aVrJHOs/fb9N298favYN43ruQ++79qO7Dnvm+q4TXn79+NvfHF6/3vefWvrqX8qqtwrFtn86SsvXzPYxWafTj1nXW526XNeb3utd/HxNueKb8V+k/ct3Ud1Xd/0P83Ne7N0n+qa3SYP6OZpOwzAwCkyQKG0Q6GkDYQ2p95IeGNRP6RdbFjuroCmTc2br521G3TFUuNcE5c3Ssqbf1wQ5Pyl4iBl93m8y+Z5bc6UIxVGsqXY1uZirdw+82X/9YBhG16WcmaettG9lIdd1npJ922OL+Vsre2b0pP2vF5doVS5z3lLxxRKbOCWGGEcRmAABrZhgEJpoVDKD++6cdCH889e+fKzJ/+S1fmPHn7+Vt82bLPQ28yp8aaOubGUq8fKURZf9dzyx7rpt3/btGtzJq6yeFybi7Vy2/h+qDlLOVOevv3SC9fXnFg6lJ/HZHcpZ2t9VTEjXWvld5XT+uUDgk30ZcxioivENtGHLBsqGIABGIABMUChtFAozV0o+kD+3ldevP5Q1tukb37mk9c//rD3E+m5r0SljOT8ZNxvp7QB0Id+p0P2/VZGbd3UzI2P7Ga8mm9/3K/NjL46k3Z1vPYribUwyjhtQ+1o0y+fchNUN1c1Lslbr3OZeanjivezz3/kWYxpK+dlv/3VXNlwfpy7TXLWxe0+8VV1Ozb7UL+i1+VXcaT/h8rZ3HqsyVnGpphyLZ0PcWlWvR7Omex7TG3O17HHMlee2/nna2AuLuVafui+If0q8nSudZVO6Xdcnf053Z1P0mG/Ot055tjUSpfvYzqX3Zo/9StPzo9anWfuNM96Ne6YJOP+yp9lMie25bGR39ZJywYHBmAABmDgJhigUNqxUNIHvjY92lxr06M2NxhaJG90vRHywnmDkJsGj+VmyePaaHhTog1IbhZ0nhuLutGxXrXWbb0+t+7c0Hhjotby0jHaOKWd7lh+1TdKNV+aN8qZfLCfkss4HYf9dH69WVOrODy/+uJx57WOO57qg/3VPM+ttiWzJmdrdNc47VeXM8s6B5JNGx4/RM6cb6+Hzp0/xzSXs1z7Tk56HZf1ue1y5bFsM1furzmT7bz2dJ6c6dxxmQv5Zjm16auO9SN7na2RbvsnfV1Ro/EuHs/LNv1Rf+Y65VKf5qRvGuv8qLqtb2RD45lDnY90WxctGyQYgAEYgIGbYIBCaYdCyR/4+hDX1+30xL/7sB9tyuY+7L1Bkg0vtDdAz33gvdcbEM33mFr7o2P5oc2b5qSMjuumw/K1YJnzz77Iz6p/7tx+aUPln87HuZxlTjLfOq5fe1QMlq8+O8e2rzY3vHXccaVO93X+5npIrtr3XLcje53ubm06uU5n+n/InNV8dP5XGedKbcbRzVX+u4265kpexYt0pM56nDY8ppxlsW9d8lUy1ef0LY9TzqxoXD6rtb2Uy2ONp75O3n1uFY+LNvfVttOZfqUP9ls6ar7z2kwbOSf7R/LWLbuW73z0GC2bIxiAARiAgZtigELpBgql/NDODYUXKcfdp1YbBv1kn4+7De7SWN2AaGPhYiQ3jLnRsc5uk6JNVc6zrNpOR46PjkebzLphHeWsblzT74zXcat1jqvPzrFt1/FRDNUHyXX+dusxyqd0jOx3ujvZTs4xSt7xpP/qz1z5eB85qzF0/lcZx9DFVfNtGceUOZAesaPCWOOj4iFzZdvyM4ss6c351eeMK49Tzr6nT/ZbrbnJOfIn9dm/KuN+t7Jl3WbfY2q7mJVLPYSQf2+89Onra0q2pUv2NM8xpK7ueCSX13LOq+to3/OhRspzzAYJBmAABmDgphigUNqxUPImwQvSbVy6Psl3GxLr8eag6te4x3KT0/VZl1ptTnKzlRs7jctO7ZN+z0ldlh+NVdk812Yon8ZrrMvD2pzl5koxzPlUx50z57iOp995vNbfuiFc0l/lbbPLxVofaow130s+1fGqr47b59p2/ta5XZxVxnq17i5yvHHOgsJybi0vfe7LVv5V/jXe+e0cpN3UW33OuPI45bz2yXP65+Oco77UN5Jxf201VzErRo85tozHY/JRb83V/tN/ff76x8WTZByD5UftSG4U+5xPIxv0s0mCARiAARi4CQYolA5YKM1t3pY2B3Vjp41Nt9EzJJJ3EVE3SLaVGybNyznW41a+14LHY2odm216rM6zL3Vj1m0ApSN98lzH7fMah23XTabkPFcyddzzaqt52uxlf+dv3RDW2HO+xupXHz1edTvONTmra6s52uDbf+s6RM5qvmucin+Uszp3TlZjjrPmzDlWf7Lg/m6tO9uWV1vHM648Tjmz4vXy+qTeJd2WHeXM425tK9c+fbKcW/mk38P0V4xVJOn6VkyScQyWH7Ujubk1ko/d+oxsdP0XFxfT06dPp0ePHv3FtdvJ0scGCwZgAAZgQAxQKG1ZKHmToY1FXkx1I5RPnXVcvy6iTU0+GXdhMdKftrR5sP6qN8ckUzcZ3pR4frcxkw77k3Z9nDaqfsdV57vfdtVKj3Uqnzmm44zNeXG/Nm1ZYNS4JOc1qrqrzxqv/tqvtJv+OW+57p7TbQhHOVO/dXm+27mYJFPjcm6Ua41nzhWfNrtpa05/1X2TOav57nIo/7ucdbn1Gkm+i0n9zmmNa8RYt9a2k2M6lk6vR3KUceVxxp/xdPrte86RrdTn2NR2Oev0Jgeal36kPut0nqwr45yb262Hcua4bCvXxbY8ljFpbtq2zFyrAkmF0uPHj59xMCfPGJskGIABGIABCqUtCyUunrt38dRN5rGs4Wizewz+HWvODpmbLifqq0XkIX3cxrYK6nzosI2OY55zfn4+XV1d8UaJzzwKZRiAARhYzQCFErCshuWYN0FrfOs2uGvmnbIMOXvnAwG92ahvM/Q2pfadMjfHFPuDBw+mJ0+e8LU7PutO5rPumK4/fHnnZwg5uVs5oVDiw+NkPjzY9G9+cyJn78yZv3aWX72jSHpnntgMkBMYgAEYgIG7zgCFEoXSyRRKd/1ixX8+cGAABmAABmAABmBgfwxQKFEoUSjBAAzAAAzAAAzAAAzAAAwUBiiUSkKo0vdXpZNrcg0DMAADMAADMAADMHCsDFAoUSjx9AAGYAAGYAAGYAAGYAAGYKAwQKFUEnKsFS1+8bQFBmAABmAABmAABmAABvbHAIUShRJPD2AABmAABmAABmAABmAABgoDFEolIbVK159H9n+I1/9P2eafSvo/yktX1X/s5/Zdfwp5m9g3jU//fFV2ZM9531THbcrbv9v+c9D6vzzKvWJZ+oe09unUc3bT6+683vZa37TfN6XPfwZ9dN/a9E/Hi2n/SXWzfVO+zulxHLLvNd2n/TnfGNvfU2FyTa5hAAa2YYBCaYdCSRsFffB7I+EP5LqxcrFhuW0W6hBzXvi7D09vvnY2qa32N90keb50qQDyhkltt2lZKg6sb9+tN1p1jdf4sTZnytFPX3n5elMnvWtzsVZuja83KXObOTNP26zHUoy7+L2k+zbH13K25MOSnqXxkf58CDCS6fq3tef7MoUSm6SOK/rgAgZgYI4BCqWFQik3rfWDWhv8n73y5Wcbfcnq/EcPPz/pw3ku8XdhrMabPs+NpVw9Vo6y+Krnlj/WTb/926ZdmzNxlcXj2lysldvG90PNWcqZ8vTtl164vubE0qH8PCa7Szlb66sKC+kayW9rZ9+Fkvy3TRdNc3GN4qWfzRQMwAAMnB4DFEoLhdLcRaFN2ve+8uL1h7A+gL/5mU9e//htgJ9I663J6GtkKSM5PxnPD3R9yHc6ZF/9/qkf/nPjI7sZr+bbH/drM1rfCMn+2q/l1cIo47QNtaNNv3xSPiwrfc635/mre/JL8pZVfrxhcs7quOL97PMfeRZj2pKs52W/7WqubDg/zt0mOevidp/4qrodm31QLmTP/V1+aw4rCzUnt5WzufVYk7OMTT6n385HsuD1cG5k3+tZWZEuj9W11vzOP18Dc3Ep1/JD9w3pV5Gn87w/OK7O/pzuzifpsF/yu+rOMefF8eV15bHMi3RnTqvuLm/SY56s022uR+ZjTVxzDFs/7eltcFhz1hwGYGBXBiiUdiyUtHHQpkeba2161NYNhje6+sDPBfOHe93gSSY3HR7XBsObD20qcpOj87q5qH7YtnVbr8+tW603adlaXnpkLzdJ1r3UKgf1jVLn5yhn8sF+ypb0eb7jsJ/Or3y1z4rH86svktO481rHHVv1Qf225bk+t23bX8rZGt01TvvV5cyy6Ufa8PghcuZ8ez107vw5JvWNcpZr38lJr+OyPrddrjyWbebK/TVnsp3Xns6TM507LnMh3yynNn3VsX5kr7M10m3/pG+Usy4ez8s2/XF/xqG+amfOb+tQ2+mu11q11dmzzpoj51g6LEPLZgkGYAAGYGAbBiiUdiiU/IGvD2R93U5P/HPz5gUZbcq0aRltaPzhLxvW443Jcx947/W8ugm0P5KXH9q8dZsF9XnjZt2d33P+2Rf5aR1rWvulzZ5/Oh/ncpY5Sb91XL/2mBvD6rNzbPtqc8Nbxx1f6nRf52+uh+Sqfc91O7LX6e7WppPrdKb/h8xZzUfnf5VxrtRmHN1c5X90fUle14B0pM56nDY8ppxlsW9d8lUy1ef0LY9TzqxoXD6rtb2Uy2ONp75O3n1uFU+99j3mttPZcZS+LPlt3Woda/bJr1yLJXs5d4nhlOWYjRIMwAAMwMAmDFAo3UChlBuLbsOQ47k42jDoJ/t83G0UlsbqBkQbGRcjuWHMDY51arPhNzPu08Yl57lfbacjx0fHo01mbpI0d5QzyWXO0u+M13GrtXz12Tm27To+iqH6MPK3W49RPqVjZL/LRSfbyTlGyTue9F/9mSsf7yNnNYbO/yrjGLq4ar4t45gyB9IjdlQYa3xUPGSubFt+ZpElvTm/+pxx5XHK2ff0yX6rNTc5R/6kPvtXZdzvVras2+x7TG0Xs3Mp3ZZNO0t+e45ax1r77FO2I3s5VzI5x8eyk3IcszmCARiAARjYlAEKpR0LpfwgV/K7jUvXJ9luQ+IF7DYmdSw3OZbPPsur1aYhN1u5sdO44qh90uU5qcvyo7Eqm+faUOXTeI11eVibM+lzgacY5nyq486Z17COp995vNbfuiFc0l/lbbPLxVofaow130s+1fGqr47b59p2/ta5XZxVxno32ZhrjuWlzzqylX+Vf413fjsH3pCrTb3V54wrj1POa588p38+zjnqS30jGffXVnMVs2L0mGPLeDTW9acvS35bv1rHutSX4zpOezk26k8ZjtkcwQAMwAAMbMMAhdIBC6W5zVu3MckFrhs7bRa6jZ7nSN5FRN0g2VZumDQv51iPW/leCx6PqXVstumxOs++yH/LqO02gOpPnzzXcfu8xmG9dUMluf+/vXN5kS2r1v2fdBsiikcb3iqQ64MCReRSnixB8VWUGFAFng2nBOtClZIUbvCAgri1IwjngI1KSmxodU5lRwvMRu1O2kiQ7NiyZ8t1+eL4Jd8ee65HRMZzxa+RzLXmY8wxx/xFxPjWWhnhsepT2z2ulhqnZC/rW/7WhLCuPcerzYIv63VcbXudU2JW91ZjlNjbf9vaR8xqvOs6tfa+mNWxQ30dQ+11jZna9Kf6ZMH1rb1uze3+tpXc57ryOO2YFe+X9yftjtl2376Yud2l58q9T5/cz6V8sl+aQ3fjvE7bcrvHtEr1yTnVR/PmY6+tcX3rGmO4ZavWnZ2ddVdXV93NzU13fn7+xGu79uWcZAsGYAAGTocBhNKaQsmJgT7g8wVTE6G86qzjmgw44XC/mnhU+zmXkg2Pq3azTX1qEujkwuNbCY5s2J+c18c5R7XvddXxrve8KmXHNrXebNNxrs1xd73+LywFRl2X+jmG1Xb1We3VX/uV86Z/jlvuu8e0EsK+mKnetjze5dCa1Keuy7FRrNWeMdf69KUjOdeQ/Wp7kzGr8W7FUP63YtaKrfdI/VtrUr1jWtfVx1hrrz1PtulYNr0fyVGuK49z/bmeln37nmM0V9rz2lS2YtaymxxoXPqR9nScMRUH8iX/J7Bl337n2Iyb22Vf9rKtsqY+rXVV32xD9tQ29e/i4qK7vb3tHj16NHnMVNv0m74PxIpYwQAMHBIDCKUVPkgPaePwZfU3kppkHkoM+5LdQ/DvUGO2z9i0YqK6VmK/Tz9XnVuCOi86rDr+2PtLIHFHafX31WPfd/xnz2EABoYYQCghlE7m6mkrwR16cdD2P1f58+4IMXny8U/HQ3diiNNxftguFovu+voakcRn4cl8Fvp9i/I437PYt93uG0KJD4eT+XBAKK3+5kLMno5Z6xEzRNLTceLDnJjAAAzAAAwcOwMIJYTSyQilY3+x4j8fODAAAzAAAzAAAzCwOwYQSgglhBIMwAAMwAAMwAAMwAAMwEBhAKFUAoJK351KJ9bEGgZgAAZgAAZgAAZg4FAZQCghlLh6AAMwAAMwAAMwAAMwAAMwUBhAKJWAHKqixS+utsAADMAADMAADMAADMDA7hhAKCGUuHoAAzAAAzAAAzAAAzAAAzBQGEAolYBUla6vR748f7nTjzHqV+HX+VFJ/5q8bFX7h35u3/Vr9+us/dDXty3//BXSm9pz/U6P9kB/2pP0Wz9Yq71Rm1nN9k0cm4NNrafl0yo/eLrp+Lb8mVq3D1+2tR+y69c5vw21uyuWU1mjH3sCAzAAA7tlAKF0D6GkpFHJqZNHJ0z1N1W2ldRs+8WixPWdNxZLkVjn0prrOmufoXPHRPFzYjbUf1dt912X/dyUHdtzqeRVsfN5lhJMb7/2UnO/st86x94vs76OjbExQ2urY/1a26Y/dc6+823s9VgstrUfsuvXI0Jptx/GfXxRzz7AAAzAwP4YQCiNCKW8yl0TIiUVv3ntW3eJq/rq/FcPvtYpkTt2sOt6cz1DbdmvdawEzMmY2pXgP3zxiwcRr/usK9eqNcpW1m3ieCiB3qZQ2oTvQzbku4S3yqF+bjskobSNvR7aZ8dgG2Xyr/c3+bGNebC5vw99Yk/sYQAGYGA6AwilEaE0BJMSiZ98+4VlMqHE7btf+tzyT1f1lfDpT4Jg6JGo7KN+vkuTiaCSlZYNza96/9XEfKi9b95cr8bbH9dLDOrxLs/pMoWP+7bKobtU7t/nt3yWP4q55v3hi88vz/24mdsVB/uY/mcSqLnU33dgpqzLe+I19yWRsmUGvCaV3kePV6m1qq3aTr+rDY/Jeh3nerKt2k6/3abY2D/H0zbHGM79qhzYvtdc2+2nbKRfWe+xKs247eo1Z/+qbcXDbRqb9r1H//f//O+7Phlz2/fcOda+qbQdzZX18tNj02/3qb557oxljvf8OS73yXZVqq/HZh+tSRdx5JvjUmOWdjie/kFKrIgVDMAADMyTAYTSPYWSEhsl7l957hPLxF1lTZKV3DghzxeSkx7ZyHodZ6LmdiVATpic7MiG+us8k6K+BC5t267nsu1MtJxwqXR/z+fkTudT/2RjaNzQuhwv+ad+8kmlzmXX7U7+vC77rb45t/rXfal9cl2aR3+qq7ZrP8/petmtftmW+ijh156tY9tztNajtiG/vY7c3+w/ZjvXpb51f3We67S9LPv8nsKwmfc6Mu66Synbmkul4i9/dS7bGuvxtT1j0LJt/9Uv5/RceYe0xshz1XG2qbJlN9tlo7KrdtlMxnVeufOah9aVc3E8/f2NWBErGIABGJgXAwilFZL8Cr+TGSVCulLrZHeqUKpJTdp3EqM5XK95lAQ9+y8fWpY10bI/6u9E0ImhbaisiZv7V7+H/LMv8jNtjx0P2fSa+9aVyWHO73Vnu/2QLccwx6i91b/2sR31XcY+7hy0+rZsyoZ8sB86H4qD27O//VBdjY/bWnOP+e2Y51yrrkv9+3yQr07U3aeWrfnUZ4hh+51z517XOXSesWvZdvtYzGy7FW+3ZVn7je199TVt+bjaVL3qUgyqLuOUx7YzFjP3o5zXBz/7yX7CAAzAwDQGEEobEEqZtOi4JtTZnmAqMcsENdtaSY3b+9qc6LmfkkjfEcqrzK3EVInjoQilTH61Fq8r45hraLU7BpmU5hi1pz33r31c78Ta8XSZcVXfvsRT9RYM3j/VDdlvseG1elyWrfWM+W1faszTro5btj3WsXDpOxa2IZ/dlmtWu230za96j81Yt8bV2OdY2/D8Ld7t71jM3K/O53qVuWbNnTFRm/6yfz1Wu32tbTpv7UerLuOUx7Y5tAb3oZz2YUqciBMMwAAMzI8BhNI9hVJN8FrJSqtOL6ahJKWV1PgF6LZMpFp17q9SiZcTTfnspN19WnWy7zHu51L9+9rcp1VqXCaN2ae1hqzLOOb8Tiqz3XYzxjlG7a3+tY/tDCXW7mNfZcN1LlXnZF1lxk5+aD9yP9Nv21DptWadj1vrGfN7yGfbVdmyPXWs7bTWOeafx6pMhltzZ8wsdnIvMnZD8w612Z/W/G6TH/n6qrFLPz2mlulrbdN5tek6zZtrdsxV1/J5ii+t+ambXzLAnrKnMAADMPA0AwilPQqlVjJnSFtJjdtU1mRMiVAmZ9nX/Z2cO3mSDbV5Lp97rM49xnUu5XvfV4erj9dWx3uurJc//p+OoXVlcqj12oaTymxPH5w4ZozsRxVtfetyf83lGNQyfco2j7Uf2aZj74fbHbvWXF5rtWE79f9WPHfLlsa43XO37PbZVn3dr77xqvdcydnQeqqt5NG20m+1e511H9VPAtVzq73eQfV8tm1brs9S9sxf1us4/dS57CRn3t/0fcxGba+su11zpV/pi9eV82bMbGOsvLy87G5vb7tHjx71vhbGbND+9IcxMSEmMAADMHB4DCCU1hRKraRDgGcC4+Qs7yRkwqT+Tprcx0lOn/18ESnJ8bhqN9vUp4ooJ+ce30oKM8nKeX2cc1T7XpfX4zEqvTbPXcem3VxXja1ty3eNqWuS/UwKNbf6el79T1kVFuqT86dv1W/ZUV+vzX74PMsWC/a/Nae/TVFtrXXl3C3bGbchv91W42Tfx2xX3+WX12XbjrfK5Cz30/Nlmfugsa29SL/VP+3nXssn/R+h92tIKMmHlu8eq/ahva77pb2snPn14dg4Zl5/nd/rmrIfue5VY+b5h0oJJAmli4uLO/aH+tN2eB/87Al7AgMwAAPTGEAorSmUAGwaYLuM01jivU1fhhJvJ72Z1Lsuk+9t+neItquwOUQfWz4N7XWr/9zqzs/Pu5ubG+4o8dmBUIYBGICB2TOAUALy2UC+T6E0lAz7DkMKJd9RyLohG7QdnjA/tT05Ozvrrq6ueOyOz4zZfGac2muY9fI5AgOrM4BQ4kNvNh96hyqU9MbUemQKkbT6GxZv8sQMBmAABmAABmBgVwwglBBKsxFKu3rRMA9v0DAAAzAAAzAAAzAwfwYQSgglhBIMwAAMwAAMwAAMwAAMwEBhAKFUAsLVgflfHWCP2WMYgAEYgAEYgAEYgIExBhBKCCWuHsAADMAADMAADMAADMAADBQGEEolIGPKknauPsAADMAADMAADMAADMDA/BlAKCGUuHoAAzAAAzAAAzAAAzAAAzBQGEAolYDUqwP6CufL85c7/e6NfiAzf+m+9u0717j3Hn5n+VwydUQAACAASURBVBXRfX0Otd6+y/911n6I6/Katvn13P5B2W3OcYixHfPpF698efk6Gus3td2/UfXrV7/RKeZTx43128TrfmwO2ud/JZI9Zo9hAAZg4LgZQCjdQygpmUoB5OS4Jm27SMy38UKUOHznjcVSJFb7WntdZ+3TOvcPrSpu/lN8Wn23VbeL/Vg3Ptta833sas/efu2lTqLkEOykD0NCya9H7UWOmXKsMfe9QDJlHvoc9wco+8f+wQAMwMC8GUAojQilTBJr8quE+zevfevuCrn66vxXD7620avb+3oR1vWmH0Nt2a8eK0Ypvpzo7losVb82fa47J4rRpu3uw16+Bu4zv/Z4l/t8H6GUa16X9fvEirHz/uBlf9lfGIABGDgOBhBKI0JpCGQlfT/59gudkmIlZd/90ueWf776bhGgOye+Ol3tZR/1812aTPJkv2VD8/uujMqamA+1982b/mm8/XG9EkitJefV8dTH8qpQkt2cpyal8lPx1Dj1dftXnvvEnR+KT7Vjf9N2rrlvPzJmuSbNoTbbVZl7lPWZZGd9zq+YZWzH2tRXa3fsc6zmUFvuSfpqP93ueGmc5u2zXX3y+Bq7jJn6yJdct+fJfeyLkfdXPvu4tdeymfPmmtSmc/ubZcYlY1bXVP3n/Dg+0Ngn9gkGYAAGYGCTDCCU7imUlHhJLCmZ++GLzy9LCyVvlBLOTBKzXsl4Jm9uy+TW7Ur+nBAqyctEXueZ7PUlorJv27brc9uemmTWZN2+D5XyK+8oqa/8sC0nx/JJbTV2Tm699rSXx/ZBa/E6XVdtur7GNP3SsePj/o6bxrlOZd+cY3ttP23X81mweM0+97x967FPsmNbtu25bKvPtmwMsTTU5vlV1vj1+aw1JQsSOfattb8t257Xa3WcXK+y2lIfz5P9OOYDFwZgAAZgAAZOlwGE0j2EkhNiJVl63E53lFqJY19SqOTRSWF9ETrJc4KrdieRz/7Lh5bjnOx6rP3RufyQcGolia2ksOX3kH/2RX56/illTVCrn9VujZ3aUxA6TqrX/BkDjVV8VaZv1abbNNZ2VJf9VO+98BzZbhutOrWNxbIm6bkfLZv2wX5qfOXBbTUGWou5G7MtG+mLzvOv7l+2+bjukepVp9eMxqd9rcFxlp9De237OcZ1nkPrzD11u8ZkvFo+ui/lk3tOPIgHDMAADMDAqTCAUCqJ3yob72Q1k00d18Q029O+xjspzHodDyVufW32x7aUIPqxIyfGastE2X0zWXWdEskc5/o+G9ned+zE2n6pzES2+lZjV9vrPNmu41Z8q03ZcEzTLx07UZffSuyfe+ZjS5sPX/zi3WNrsmc/+pL2ob1On20n96Plb93rjGuKrqzPtXlfp9qud0ntp0r5b9u2W9tb9VqDxuoCg47lawqYVlzSro/7Yu49lR33dan57HOWrb4eQ0liAAMwAAMwAAOnxQBC6Z5CqSZWrcSzVacXWl+Cp7ahJM9tGu8XbKvObSqVGDpZlc+ZTKu9VSf7HpO23L+vrfbNcyXD9dG7bJcfabfGrrbnWB1nfyfiQ33c5vjJvuuylF35paRecZFQUt/84o4hG0N7LTtD+5Frsk9aW+6/61Wq3vYU7yGRM8X2mI2cOzlzfZ+v8lOPq3qfLJi8ByqTBdurZV9sh/ajz6dqm/PT+kBkv9lvGIABGICBZAChtEehpAS07/G4oSRPG5jJsM5byXZutPo76VRyrERaderjuXzucTnGdS7HBI/X5jmnjst12C/f1ZGNKcmzkmAn3bLhuV22xIHatF4LDPd1qTFaixJ7rU19NY/+3GfIN8dDfdzf5dh+tPwdSvRbMUw/Pa/KKbbtX8v3tKXjyozW3SfU1Ff/3+e7cxKdirHGyNZQPHNe70XW+bjuketlO7ly/Srlo0ePutvb2+7y8vKpPV3FDn35UIYBGIABGICBw2QAobSmUHISX5PHTDzVlo/16LgmZ06g3c/Cos9+vpCUIHpctZtt6lMFgJNfj28l0rJhf3JeH+cc1b7XVcerfuiOkmzLF/slwZNfhDElefbc8s++qpyyH7km+WD/vR8+b80hv+ucOb/HeG22pT5D+5FM2V7OVddVWbDvnlel/Ryz7flyjrRf41U5UHuLLdm1TZU6V78cr/qMkX1R2VqT1lXnqnH1unN+xyXnzrn6jheLRXd9fd1dXV11Z2dnT7DWN4b6w/wgZF/YFxiAARiAgRYDCKU1hVIrmNSd7otMIqjvzsmpctESYXOKhcSRRBJ3lE73dT8nnlkLHMMADMDA0wwglBBKXAmHARhYkYGLiwseu1sxZnwAP/0BTEyICQzAAAwcNgMIJT7sSZJhAAZgAAZgAAZgAAZgAAYKAwilEhCU/WEre/aH/YEBGIABGIABGIABGNgFAwglhBJXD2AABmAABmAABmAABmAABgoDCKUSkF2oU+bgKggMwAAMwAAMwAAMwAAMHDYDCCWEElcPYAAGYAAGYAAGYAAGYAAGCgMIpRIQlP1hK3v2h/2BARiAARiAARiAARjYBQMIJYQSVw9gAAZgAAZgAAZgAAZgAAYKAwilEpCqTl/6/Ke6y/OXO/2g6Btf/UL3+9cXnX5Is/YbOte49x5+p5OtoX6H2Gbf5f86az/kNW1zPz7ywQ90v371G0e559vcs1+88uXl66g1x6o/2ptsym7L5rbq8r1Ac2uvtefbmg+7XDmFARiAARiAgd0zgFC6h1BSop0CyMlxTZqc0G0zMd/Gi0eJ6ztvLJYisdrXWuo6a5/WuWxKeCpu/lN8Wn23VbeL/Vg3Ptta833sripg+uYaszPW3mdX+7mOUFp3PvmhOX3hAKG0+w+uPhaoZy9gAAZgAAY2yQBCaUQoZTJVk18lS7957Vt3V8jVV+e/evC1WVxdrutN8Ibasl89VoxSfOnunBJOxbL2PeZzJc+K0TGvwb7na8B165Ta46F9Xnce2dy1UEr+151/nRgyhgQABmAABmAABnbHAEJpRCgNwagE6SfffmGZpOlu0ne/9Lnl39uvvbR8PM8iQHdO/PhetZd91M93aXx3SgmZksCWDc3vuzIqa2I+1N43b/qn8fbH9Upm6x0hze2r6+7XV1ahpH45TyagapOfiqfG6dztX3nuE3d+OElOO54/63LNffuh/o5prklzqM12VeYeZX1fwp/za46M7Vib+mrtjn2O1dxqs98q01f76XbHS+M0b5/t6pPH19hlzNRHvmQ8PE/uo9ur3xlz9Unbtc021CfX5Prqv2NS61vrGoqZ7VPu7oOKWBNrGIABGICBfTCAULqnUFLyJbGkxP2HLz6/LC2UvKFKzFpJohM2J3DurzITNbcrGXRCqAQzE0edZwLbl6ynbdv1XLat0sljlu4vG5qvJuvpf9/xJoSSfPLa014ee36tJf1Wfd9+1JhqnNeoY8fHth03jXOdyr455XP1Rf1tx20+93zmxGv2ueftW499kh3bsm3PZVt9tmVjiKWhNs+vshW/ul/V1tB+jNnuW6djNrauoZjl3BzzwQ0DMAADMAAD82UAoXQPoaRkSgmgki89bqc7SjXZ04unL5HVWCfi9UXmRM8Jrto1j/o/+y8fWpZOdj3W/uhcfkg4ZWLofqpzYuy6lt9D/tkX+WkbU0rNk4/eVT+r3Ro7tacgdJxUr/kzBhq7jFf58o1q035rrO2oLvup3nvhObLdNlp1ahuL5dB+tGzaB/up8ZUHt9UYaC3mbsy2bLTYUL3b+jhzn7pHrs812FZeZFB7337YhkqtW32zTj7XR2Brv751KSZDMct5OJ7vhyN7y97CAAzAAAwglDYglDLZbCVZ2Z4vOiV3NcFze19yqfa+NtnKZFlJpu8IOTHW+EyUPV8raZStHOe+fTayve9Y8yixtl8qMxmuvtXY1fY6T7bruBXfalM2HNP0S8cWZU68n3vmY0ubD1/84t1ja7JnP2oy7vqhvU6f3T/3o+Vv3euMa4qurM+1eV+n2k4BYx9dyn/btl23qWytT/WtNXiesf1I+62Yp0/2TWXykDFOe2Mxy74c8yEKAzAAAzAAA/NlAKF0T6GkhCxfIK3Es1WnMa0Ez7acKFb7anebxtf+Wec2lUoQncTKZibTam/VyZbHpC3372urffNcSWjeUcq2lt0aO/k5NG/215pb8cs+nt8xbfVXH43RvLprqLhIKKlv3rUYsqExmaR7Xq95aD9a/spW316r3vb6xIDnn2J7zIZtqUzOXN/na63PeYZiabsuW7Ed40Rjcz7bGqrPPhzP90ORvWVvYQAGYAAGzABCaY9CSYla32NLY4liJsPaTCWGTo69uVmqvwWGkmP1VZ36eC6fe1yOcZ1L+T4keLw2zzl1XK7DfvmujmxMSYCVgEvQqJQNz+2yJQ7UpvX2xVBjtBb9H5rWpr6yrz/bHfLN8VAf93c5th8tfzVv3S/ba8Uw/XQ/lVNs27+W72lLx5UZrdt3iYb6eo6M/9B+pC3vRdbZXl+M1Nd96rrMXV/Mch6O+TCFARiAARiAgfkygFBaUyg5mapJlpIvJYZKENWWj/3oOJN+vbCcQLufhUWf/XwxKgn0uGo329QnE1DZcJLo8a2kUDbsT87r45yj2ve66njVDwks2ZYv9kuCx/FUm2Jabdofl55b/rnOY23X5VjcPJf3w+etOeR3nTPn9xjPbVvqM7QfyZTt5VyVs7om++55VdrPMdueL+dI+8mA7FYO1N5iS3bTL9n03sonz1vtO2Y5NteVc9WYqp/msG2Vfetq2XfMcjzH8/1wZG/ZWxiAARiAAYTSmkKJFw8vnmRAIqjvzkn2O6Xjlgg7pfWzVt4jYAAGYAAGYOC4GUAoIZSeuMLOC/q4X9DsH/sHAzAAAzAAAzAAA5thAKGEUEIowQAMwAAMwAAMwAAMwAAMFAYQSiUgKPDNKHDiSBxhAAZgAAZgAAZgAAaOmQGEEkKJqwcwAAMwAAMwAAMwAAMwAAOFAYRSCcgxq15856oNDMAADMAADMAADMAADGyGAYQSQomrBzAAAzAAAzAAAzAAAzAAA4UBhFIJCAp8MwqcOBJHGIABGIABGIABGICBY2YAoYRQ4uoBDMAADMAADMAADMAADMBAYeAkhNL5+Xl3c3PT3d7eLkudH7O6xXeuzsAADMAADMAADMAADMDAdhk4CaFkiBaLRff48eMOobRdqBxvSuIMAzAAAzAAAzAAAzBwrAwglMottmPdSPzmTQgGYAAGYAAGYAAGYAAGNscAQgmhxGOIMAADMAADMAADMAADMAADhQGEUgkIKnxzKpxYEksYgAEYgAEYgAEYgIFjZQChhFDi6gEMwAAMwAAMwAAMwAAMwEBhAKFUAnKsihe/uVoDAzAAAzAAAzAAAzAAA5tjAKGEUOLqAQzAAAzAAAzAAAzAAAzAQGEAofTPgFxeXi5/Z+nRo0dAUiDhysTmrkwQS2IJAzAAAzAAAzAAA8fBAELpn6JAAkk/SHtxcYFQQijBAAzAAAzAAAzAAAzAwIkzgFD6JwD6Edqbm5uOO0rHofC5EsM+wQAMwAAMwAAMwAAMbJOBkxdKZ2dn3dXVFY/dnfgVg22+yLDNmzgMwAAMwAAMwAAMHB8DJyGUfLdIj9bprpHOgfX4YGXP2DMYgAEYgAEYgAEYgIFdMXASQmlXwWQeXrgwAAMwAAMwAAMwAAMwMA8GEEo8csbdNRiAARiAARiAARiAARiAgcIAQqkEhCsA87gCwD6yjzAAAzAAAzAAAzAAA/dhAKGEUOLqAQzAAAzAAAzAAAzAAAzAQGEAoVQCch/VyViuWsAADMAADMAADMAADMDAPBhAKCGUuHoAAzAAAzAAAzAAAzAAAzBQGDgJofTgl7/rfvSnv3WfeeHr3eu/fb97892/dB//9GebMJw9+H738A9/Xfadw9UArffH7/+907p2tZ5vvvnzuzkz9puaXz8KrK96b33dO18FP48rOJtiBTvwAAMwAAMwAAMwsC4DCKWiHFcVShJcEl4SB+tsgsevI2am+DpXoaQfCdaPBffFfLFYdI8fP+Y3swrfffGing8RGIABGIABGIABGHiSgZMQShIxvoukOxwSD30gTBEfOdZCZ12hpPl+8M6fu1f/691OvqXtseNVfR2zt6n29Ctjvyn7uqOEUHryhbyp2GKHuMIADMAADMAADMDA/zBwEkJpbLOVzP/0+h93f35MT+MshNxuwaU2CS7XZ5mCp9qugsrCzYJJ86W/ak/bGq9HCOVj1us470rJns5Vn+ux7Woj16U23yWzjWyXjZZftj2l9CNyFxcXT6x3yliEEm/gUzihD5zAAAzAAAzAAAzch4GTF0oSFBISKhVIlfk/Sq/87K27NoumFEKuqwJItiQ4/v0///tOCKhPipYcq76a135ovObJ/nWjq6+1XeetPp7X6/C577RZRHlun3uNLZutuYfqEEq8cQ3xQRt8wAAMwAAMwAAM7JuBkxdKEgcWDNqMMRGgvhYU6m+RYRExtKFVDNW50pcqTlp26/ipfapg07i0Vf1Ue/qmvrrTNGXNLZ/uW8cdJd4478sQ42EIBmAABmAABmBgjAGE0ohQsijIx9xWEUrqm2Pz8bgquiQ8/Iib5s07Xa2NTHHTalddq0/O43HZb0woaYxseF322ba2XSKUeGPbNmPYhzEYgAEYgAEYgAGE0oBQ8l2dvONUxc3QHSX19eNrerGlAPE4iw2XFlLZt++FmuJmlT4SOemXxmZda+68o1TnUtsuxRJCiTeuyiDnMAEDMAADMAADMLBpBk5eKEnMOMm3MLKI8LlEhAIvYSIhk3eUVK/zWqf6tO1+Q0LI4knj3N++6bz+Vf9qu85bYsrjPE+dV+31/6W0Pvev89R11vbW+T7/R+ny8nL5G0wSXC3fqHuaNWJCTGAABmAABmAABk6NgZMXShYJuqMjESNRJHEisSAYJAJ8t0cC6ntvvfeUKLLwcD8LilqvsRYgnkfzJ3RVdEig2K5KizaP0bnbLcKq3263AFR79S2Fntrsp+dJoZQxke206/5j5T6FkgSSfqx2nW/cG1sX7XyIwAAMwAAMwAAMwMA8GDh5oQTIxwfyfR+9s0jjjtLx7T2vV/YMBmAABmAABmBgVwwglBqPtO0q+Myz3gt9XaF0dna2/KFa3U1CJK0Xe5glbjAAAzAAAzAAA6fCAEIJofTEo3/HAL5EjsSO/m5ubjrdIbLfvlvUanMfSt7gYQAGYAAGYAAGYAAGxhhAKCGU7kTGGCy084YCAzAAAzAAAzAAAzBwKgwglBBKCCUYgAEYgAEYgAEYgAEYgIHCAEKpBORUFDLr5GoQDMAADMAADMAADMAADPQzgFBCKHH1AAZgAAZgAAZgAAZgAAZgoDCAUCoBQVX3q2piQ2xgAAZgAAZgAAZgAAZOhQGEEkKJqwcwAAMwAAMwAAMwAAMwAAOFgZMQSg9++bvuR3/6W/eZF77evf7b97s33/1L9/FPfxYYCgyrXh1QLH/8/t+7swff31kstYfaS+2p5tX833zz5xubf+irxxeLRXd9fX331eT8FhNX1FZ9zdAfZmAABmAABmDgeBhAKN1TLEhwSXjVZN31P73+R+c/i7WpLxDbqLZXHb+OmJky91yF0tXVVacfp+2Ls3+4FqF0PG90fXtJPXsIAzAAAzAAAzDQx8BJCCUJDd9F0p0IJfh9AVm1vk9QuF7z2abmXUUs2ca6Qkl3XH7wzp+7V//r3eUdGPsxpbzv3FPmWKdP+qW7Sw//8NeN3tGS+EEo8Ya5DpuMgRsYgAEYgAEYmBcDJyGUhqCVCJGAkaDxnZ8UN37Uy20WXLKpca7PUuOd0KetVl3Om3d+hmx7PfI9562CSrZlx4JJ83usyjrevo7N7UfeNHdL+A3FTG2+A6f1ykbGdMiv9H3o+Pz8vLu5uekuLi6eWO/QGLchlOb1Bud9pWRfYQAGYAAGYAAGVmUAofRPsSFxoOBJPDj5r8LG5+6r/q6rIsX1Fh/eGI31eAmOV3721l0yr74pGmyj2pYtCY5//8//vhubfle/1LfeeVH/FGb2z+XQ3O4j/2VX9l3ncV63z71m9VV8HWOfe40tX217aolQ4o1wKiv0gxUYgAEYgAEYgIE+BhBK8ViegpSJehUfaq/iwELAib4D7XoLBtfr3KLBdS6n2nb/LNNv1VdbmtO+9PmW9tynriv71DnUNhaz6qfGpG9ql4iyrznfLo65o8Sb5S44Yw44gwEYgAEYgIHDZwChNCKU8g6PgK7ioE9QuL4m/BIFFkruk4/P+U6L5nJ7n1iRnRybd4iqIJMNr8VipM/ulLlbsVBdzqPz2m9MKLm/H8vLeNjeNkuE0uG/aW1z/7HN/sMADMAADMAADJgBhFIICAUlE3kl/TVRr3V9Ysb1KZQsUFwnoWPxormnijD1lY30Lf323CmidGwh5fZtCaX0S75mzNJPtelPcXBMXOeyrtP12yoRSrw5bost7MIWDMAADMAADBwXAwilAaFUhY0FRk3qlejrL+GvfX2ewijHub2KjOyT9uVDtWUh1BIjtm/fpwiQvrntRxV2qh+LWcs3zWO/bNtliizXjZX8j9JxvQmN7Sft7CcMwAAMwAAMwMA+GEAoDQglbYgTf9+dUVJfN6r2UdJvYeJxKutYCQ0/YqZ2fY13/XKElu2WX9976727L2yQuEgRZX/lV9brPP2rYqVv7jpONlLg1XG5brXVL5ZIoSTf0yeLP69hSolQ4s10Cif0gRMYgAEYgAEYgIEhBk5eKA0Fh7bTe/Hw6N3p7Tmvc/YcBmAABmAABmCgxQBC6Z//J9MKDnWn96JBKJ3envM6Z89hAAZgAAZgAAZaDCCUEEpPPUrYAuVU6iSUbm9vl3/60Vo9xue1LxaL7vr6+q5dfd1GyRssDMAADMAADMAADMyLAYQSQolkHwZgAAZgAAZgAAZgAAZgoDCAUCoB4UrAvK4EsJ/sJwzAAAzAAAzAAAzAwDoMIJQQSlw9gAEYgAEYgAEYgAEYgAEYKAwglEpA1lGbjOEqBQzAAAzAAAzAAAzAAAzMiwGEEkKJqwcwAAMwAAMwAAMwAAMwAAOFAYRSCQhXAuZ1JYD9ZD9hAAZgAAZgAAZgAAbWYeAohJK+ollf1Vy/rnmdBTOGFwoMwAAMwAAMwAAMwAAMwMAYA0chlLyIKT8G6r6UwA8DMAADMAADMAADMAADMLAuA0cllPSDn1dXV53KdRfMOF4sMAADMAADMAADMAADMAADYwwglPgfJUQnDMAADMAADMAADMAADMBAYQChVAIypixp5+oDDMAADMAADMAADMAADMyfgaMSSmdnZ8tH7/S/SsA5fzjZY/YYBmAABmAABmAABmBgXwwclVBSkCyWrq+v+V8l7oYhmGEABmAABmAABmAABmBgKwwclVDSlzg8fvy409eF70tZMi9XNWAABmAABmAABmAABmBg/gwcnVDiW+/mDyVvPOwxDMAADMAADMAADMDAvhlAKHGrkrtzMAADMAADMAADMAADMAADhQGEUgnIvpUr83P1BAZgAAZgAAZgAAZgAAb2z8BRCSV9250evdMXOgDP/uFhD9gDGIABGIABGIABGICBuTJwFEJJX95wc3PT3d7ednw1OC/Gub4YWRdswwAMwAAMwAAMwMDhMHAUQglgDgcY9oK9gAEYgAEYgAEYgAEYOAUGEEr8jxKPMcIADMAADMAADMAADMAADBQGEEolIKegjlkjV4FgAAZgAAZgAAZgAAZgYJgBhBJCiasHMAADMAADMAADMAADMAADhQGEUgkIynpYWRMf4gMDMAADMAADMAADMHAKDCCUEEpcPYABGIABGIABGIABGIABGCgM7EwoLRaL7vr6evkV33zNN1chTuEqBGuEcxiAARiAARiAARg4XgZ2JpQMiX4sVj8ay+8hHS803ktK9hAGYAAGYAAGYAAGYGCuDCCUyi22uW406+JNDAZgAAZgAAZgAAZgAAamM4BQQijxPCoMwAAMwAAMwAAMwAAMwEBhAKFUAoLKnq6yiRWxggEYgAEYgAEYgAEYmCsDCCWEElcPYAAGYAAGYAAGYAAGYAAGCgMIpRKQuSpi1sXVHhiAARiAARiAARiAARiYzgBCCaHE1QMYgAEYgAEYgAEYgAEYgIHCwEEJpcvLy+XvLPHV4dOVLlcFiBUMwAAMwAAMwAAMwAAMbJ6BgxJKEkj6MdqLiwsUbVG0wL95+IkpMYUBGIABGIABGIABGOhj4KCE0vn5eXdzc8OP0SKSEMowAAMwAAMwAAMwAAMwsFcGDkIonZ2ddVdXVzx2x4thry+GvqsJ1HOlCQZgAAZgAAZgAAZOj4GdCaXFYtFdX18vxZAer+P/kE4PNt5g2HMYgAEYgAEYgAEYgIFjYWBnQulYAoKfvHhhAAZgAAZgAAZgAAZgAAYQSjzuxuNuMAADMAADMAADMAADMAADhQGEUgkIVw+4egADMAADMAADMAADMAADMIBQQihx9QAGYAAGYAAGYAAGYAAGYKAwgFAqAeHqAVcPYAAGYAAGYAAGYAAGYAAGEEoIJa4ewAAMwAAMwAAMwAAMwAAMFAZ2JpS++ebPux+///fu7MH3uwe//F33oz/9rfvMC1/fyIbI3k+v/7H8e/2372/E5i6uImj9ioP8V1wUH8VpE3M/+9EPd79/fdG98dUvdM9/8pnu8vzl7qXPf2ojtjfh35gN+f3ew+885bPqf/HKlw9yHfJNMVfs5eOvX/1G95EPfuAgfR2LP+1cRYMBGIABGIABGDh1BmYhlLyJEhyrCiX1t4CTnY9/+rPdm+/+ZWOCxb61yn0LJQkniRH9SUhJULX8XKdOQkHCYZ2xGrMtoaQ1vv3aS0sxs65vfeMQSnyg9LFBPWzAAAzAAAzAwPExsDOhpDsmD//w1+VdJN01kRiRKNkkNOsKJfmlsfJll0Ip55Jo/Wr1xwAAGFdJREFUkh+K0yZiojsZuqMhMaQ7HBIHKYSU1Kc4Uv8fvvj8xu6A3Fco9cVAft/njtI2hZJi7btI9/Wzb/3UH9+bLHvGnsEADMAADMDAcTKwM6E0BIhF1L/+2xvLR9H0GF0VUrrz48fr8g5Q2u0TSr5z4/EWRRoru997673lfOqX4kXtPvfY9Et2NFaPz+nvlZ+99dTjfxKFHtvnd66hHi8Wi+76+rq7vLzciICSfT+WN/QongSFhJTvOKU40TgLIbdLGMi2Stdl6fEp4FSnPinY7Futd1wsQDxW/byOtF37p930K+fWmLTbatP8uUbP7fkoj/ONkH1j32AABmAABmAABioDByOUJCIsJCxs/P86EiRVoLT+x6kllCx0LI6qbQkltelP87m/55b48V0et9mWSvn8lf/3H0v/5KOOfedM4+Snx8tmy++6KXm+DaGk5N7/S5Nz+diiwiLA5xII6qN6iQ2Ln5Y9tbm/7aq0mNF4t6uvbbmv5qx3wdRmkeKxObdt22/3T9tDd5Rk03eEPDbjJDu57trfvlPyRgsDMAADMAADMAADx8/AQQklixOBZQFThY3aLFiyv+olXDQuwZRI+cE7f16OcX328zzup/kkeKrt1ljbSX9kx0JJ7frz2Oznun2UKS5a87cEgMZYROSxxrdEjUSFxUzOYTGT4qXa67OpetnMsRZxsmHbOvactX+fUEo7HlvtaV7HQH36bHk85fG/QbKH7CEMwAAMwAAMnC4DByOULC4qjBIu9X93+gSHhUvakODxo29ZWlBZKGmMHqPz3SELJQkf3TVqjfV86U8KJdnOcT627fRzl8cSEnmnpM5dxYXaU8zksdrWEUopZur8fTZVX31LMZPHtln794mb1hqqvT7x57koT/eNlL1n72EABmAABmBgfgwchVDS42opLlp3mQSnhUuCqnH52F626TiFkvrq7pPvKHmevCuUc/h4SCjl2Dr3vs4lFvT/N31iReIi75zIz6w7JKGUAqcKG/udd6CGhJLEY8ak3mVCKM3vDXBfr0HmhSUYgAEYgAEYOHwGDl4oCSKJmRQ7Eh95btAsXHyusiV2sj2FkgSPhJKFmcdapPnuksbIhufrE0oa5/+7yjlXOd7G/yhpfiX9eVdJIsPfeleFVBUMU4RSCqtcb0vMZLuPUwC5TmW9Q5Tz2Lbq1Fd+5v8Uqa6uJW0rJikQ07b6bUIo6Us5bm9vu0ePHt09Hpg+cHz4b5rsEXsEAzAAAzAAA6fBwFEIJcEoceJH1/ILESxS3ObSYkZjLXjcptLiJ4WS+kr8ZLvPVad59XiebY8JJdnTPDlv+q72sb9tCSXNq8RfQkJ/9RveLJbcbvGhcVOEkkWLx2sujXV93rnJGFjceFz1TX5kWwob2Um/1Sbx57k9T85R150xSSGpsWrLONjeKqUEkoTSxcXF6N6vYpe+468lYkSMYAAGYAAGYAAGVmHgIITSKg7TF8CPmYHz8/Pu5uaGO0oTLhIc8z7jO+9TMAADMAADMHD8DCCUSNi4s7EDBs7Ozrqrqyseu9tBrPlgOv4PJvaQPYQBGIABGDgEBhBKJG4IJRiAARiAARiAARiAARiAgcIAQqkE5BDUKz5wFQUGYAAGYAAGYAAGYAAG9ssAQgmhxNUDGIABGIABGIABGIABGICBwgBCqQQE5b5f5U78iT8MwAAMwAAMwAAMwMAhMIBQQihx9QAGYAAGYAAGYAAGYAAGYKAwgFAqATkE9YoPXEWBARiAARiAARiAARiAgf0ygFBCKHH1AAZgAAZgAAZgAAZgAAZgoDCwM6H0zTd/3v34/b93Zw++3z345e+6H/3pb91nXvj6RjZE9n56/Y/l3+u/fX8jNneh4LV+xUH+Ky6Kj+K0ibmf/eiHu9+/vuje+OoXuuc/+Ux3ef5y99LnP7UR2/ZPtt97+J2n7Lpebb945csbndNzb6N0nOS3YqcYrjKP1u1xWvevX/1G95EPfmAlG6vMR9/9XmUi/sQfBmAABmAABubNwCyEkiGV4FhFKH3805/t3nz3L3ciy2JLpWzZ7rbKfQkliygJAv+tI2gsiPoEmNpbdiUeJCJa41Rnn1xafIztg+16nMrW/GN2JJjefu0lhFK5qjIWN9rn/WHB/rK/MAADMAADp8bAzoSS7pg8/MNfl3eRdNdEAkVCZZMBX1Uo5dzyaZN3udJ237GFmuaWaFJ8FKe+/qvUWzRIeEgYKfGXAJANCyULlXq+yjxDfdcRSrYn36YKJI/JNavO65If7jOlXFcoyWffRepb+5T56cMHEQzAAAzAAAzAAAzsn4GdCaWhzbaI+td/e2MpVnRHpwop3SnyHR8/wldt9gkl37nx+NbdopZQGquTXfmpfvKp5bfaPG+f33Udeb5YLLrr6+vu8vJypWQ/bdRjCwgLJbXrzosFhdpTWLXaJWJ0x0aP9FmA1XlaYkHz5B0fH3tu2+gTSupnux7rdVSh5PO0rWOPU+mxnldln1CyPY9f525VzsPx/t8A2QP2AAZgAAZgAAZgoI+BgxFKEhEWEhY2EhlyXMImhZPOW3d/WkLJd20sjqptB6Ylilp9Jdj8eJ/b7UudSwJQbb5L1JrD8/eVuxBKVRjVc/mWQsq+tvq5TaUFTdbp2IKjJVLcd0goSahY/Kj0XZxqV4In/zer2tR5S+j1CSXFwOLIc9kP+03Jmy0MwAAMwAAMwAAMzIOBgxJKFkaCS2JE4sZiJNssSLJOY1pCSSLlB+/8+YnH/Fr9+kRM9pUv+XhcPa8+aKz+/GLp89vtuyolcHxHyHdHMuFvCaBDEkoWK4pXihqLF68pRZDbcp0a31pX2vSeKCYSZCpdJ6FlkeY6ynm8MbKP7CMMwAAMwAAMwMDBCCX//1KFsiVG+gRHihrbkQDyo29Z+q5Q9vOdIdep9GOB8kO2clzLN/ngu1/qm3P6uAq8nG8XxxZKSvQ1n0WEBcixCyWty2uyMPK51+w4TxVKvjtlEeYSocSbqFmihAUYgAEYgAEYmBcDRyGUJGBSXEig1DqB2SeULFyG4JX9llBKUSbhU/3IO0zVB/XPO0pD8++yrQolzZ13R+YglLwmfyGEhZKFk9pbdapv3VFq1akvf8QABmAABmAABmAABubJwMELJYEnwZFiJ+/aJJgtoWRRNSZY+oSS7LutPsJX7yjp7pP+z8piSqX/7yr9XOV4F/+jVAVDFVISF7qDkiJDa2gJqlyb+vsuVdbrWPV9bWqXcLPIybHVZgoYr8N3jXxuv1Wmzb450qbntq0hn913qNSXctze3naPHj1CZCE0YQAGYAAGYAAGYOCAGTgKoaTEMx9jyzs/vuPjx9pcqr8TVoslt6m0mHEfiyH1dZ1Lj69iy/VjdrM9fbf9oXKbQsmPj6msAkAiwu0WNRYc2eY+/n8gCwrXu6z2LcbcPmQ7xY36pa0UNZ7bQklx1bF907nGe86sr23uk3PbvttU2u+hPcw2CSQJpYuLi6c4y34cz/PKFPvKvsIADMAADMDA8TBwEELp0IGRIKqP2MnnvvpDXw/+7e8Fen5+3t3c3HBH6YCvHvH62N/rg9gTexiAARiAgUNiAKE0IWHT3am8Q+UNRCjxYjYLY+XZ2Vl3dXXFY3cTXm9jsaSd1x0MwAAMwAAMwMAuGEAoDSRuftwv/z8qNwWhxIs0eeAYHmAABmAABmAABmBgPgwglAaEEqDPB3T2kr2EARiAARiAARiAARhYhQGEEkKJLxWAARiAARiAARiAARiAARgoDCCUSkBWUZn05aoEDMAADMAADMAADMAADMyTAYQSQomrBzAAAzAAAzAAAzAAAzAAA4UBhFIJCFcE5nlFgH1lX2EABmAABmAABmAABlZhAKGEUOLqAQzAAAzAAAzAAAzAAAzAQGFgZ0Lpm2/+vPvx+3/vzh58v3vwy991P/rT35Y/2LqKqttG349/+rOdvv5bXwWur/uWX/JvE3N95IMf6H796je6X7zy5e7Zj364+/3ri+6Nr35hJdseJzuytwm/dmXjpc9/qnvv4XeWf5fnL3fPf/KZg/Zfe6O92mZ8ZH9fsdjF3NrzTbEqXhQrMaTXjl4L29yblu0hhu3fuszcZz/EquIi/1p+b6NuE+9n2/ALm1wdhgEYgAEY2BYDByOUJKAe/uGvOxdP+xJKTjoyqXRSlsnPsQol+51rMcRee6vNfYZKj19HcCi5ffu1l5pJ9zELpaF1OZb3ScxtY6j0vqy7r322p6ytjrWQsFBfR1QMMaz5timUtFdaQ12Xz72+Tcfa9lul91e+OTZDPrZsUEcyAwMwAAMwcEwM7EwopRDS3aX6I67ZvusA6m6S7iJZNMm/TfnghMdJhhMbJRpK2CWUdKz5fvLtF7p33ljs9CrxptZZ7QwltzUWdezYuWz/6sHXuh+++PxgMtmyM+SXkj7tV2vcodcNrWtXvntftL+bnHOdtWkvxy5CjPm4zrxjNqe2+31jav9d9bNf930N78pf5iEhgwEYgAEYuA8DOxNKfU76cbefXv+jyz8/puf2FC9ZJ3Hzg3f+3Kldj83JRn2sz/1tf9VH6xaLRXd9fd1dXl5uLAGUOFIiJ3Ek8aTzhy9+cZmo+yqtSl8RbyXwTlbcJx9Pkk3Z/8pzn7h7fCltaD7199hMKrVXY+3pW+tqveZPf7z/8sFzZuk1u99Qqb6yUxNz+SzxqXqPVz/1r+vx3HlXynbTRwtb2as2MmbeC/X3+LQtn/oeI/NY++RyaG7N0fLJY6fOLRvpm8bbttq8HsXGtnWstvqncbXNdTk+1zU0t+2rT+suYI1b+q35cn9kq9bJD68p4+V51d5iWO2ay2Prmsdilmuu9jNOtq/Sa0sGWz5X37KP4qULDF6X7Nb5077aawwdG8qn+ScmxAQGYAAG5sfA3oWSoRq6o6Q7PvpzX4siCSDfBbKwUp/s73aLI4umFF6221duUygpabFYygQrfVHy5ETJ9U4Sa73bZSsTISVnulul0mOd4Pk8benY7bbp0omWkirV6dwJ2Viip/6eT+Nsc2qZYzV/CqN6Lpt1HX1Jt/rad69bpRNFz+s2nztmPlfM3Udtbvf6huZ3H8WljpOIdrxVKsHN+E2x2+pTbfnca9AcWpP90XlNruV3y7bqNS7HZ0w9l9fhc8/teAzZtl+Ov8fmPLaTvsumXw9qzzaNlc/1z3PZnkrVeU7Xy1auOW27j8q+dfXZzbGKVbLvtrpunXu/HCO/Vn2e/rfWY9uU80sA2FP2FAZgAAaGGTgKoVRFlB+V0+ZaCKXw0bEf7dNY3XFSP8Mg0ZTCy/W7LJ0kPffMx5bJlhIUJT+tREWJjOrTv77ky33U7oRIdU6KVN8aa3/kg/prPosE20w7mVy5f9a15rCd9MV1U8uWn563lTzWeNbxOW+Nc/ZtrSfbvabcJ42pMcwxObePtQaN8T64vparrMtjW3NrzdXH9DuPZacVY9XX2HnOylH6MDa3beQY17XilL62bKcdtevP9rx/suE6HVtkuK6WdR/Unn7ovC9m6c8Uu9mnZVN1VUDnuvLYthSDZLbul/tRDn+QEh/iAwMwAAPzZOAohFKKId0RkghSKSizzZDmHScd+5G7LA9FKCm5yWSlJnBaU7Z7jaqrCa7bVNZkbaytJm1OqnxV3Qmk631uuzVhVHtfktlnw7aGyhqLXGcreax+1XXmXNV29s15PCbbp64px9hOlvK3xlbtqvNeuJS/HjtmV/1afeqaPZfZqutuxbhVZ79q/F2vcmxu9235rTpdCHAsXNpv2fax7WgtZlJ+eUyWGfvsbxu1bK1vSsxkp7Uu22/ZdZvKVsxbdcllHttW3QP3cUwyHh5DOc9kgH1lX2EABmDgaQaOQihp43wXSMInRU6fUPIdpby7dEgAKEnS/wsoMUm/auKitlZdTcbSho6H2tXmhNHjWnVuc1KqPk6k5JPbW3VD9txffWxjSulxTuJc+s5ZK1GsCedQclrjnH1b68k6+za2prRZ16yx8rfWZ/zdtsq6PKY1t9ZcBUXWyadsb8W49vF8Kquf2ZbzuL5V1/K7VWcbKlt25IvXMuSX7Whd9XXiNpctOzUerZhp/NAaWnY9p8qWTdXJX83vvlnXYlRx0lzun6X802sr7WU7x09/oBITYgIDMAAD82LgYITS2P8OqV1fH64/PU5nEKtQsp36P0k+97hVym38j5KSkPsIJSdASnRaa6nJWvapY51A9dlyfydM6pcJpOrzXHO16tIHJWd9CZr6qU1CyHOqTn7U/8tI31t+ykauq/ZJn9QvfcpE1uNsK+eVDZ+nv2nbx2nTdSr76t1W/59mlXV5ntYcqstk2Ov0OlRaXMiO2nMPxtateDpm9sPl2NzZT3Nqbtd53twvt6nUnOm3zi2o1a515XmO9bH6VK7d5rK1vrGYeWxrP9xW/Xe9y7oPrpc/dd0+d8zkn/trnr4YVhY8hnJeSQD7yX7CAAzAQD8DByOUtEn5mFx+OYM3UHeSfKfIdRZK+VhdFUUWT9lHc9nGWLkNoVSTKfvgxMVJje+auMykxomM2zKp67PveerYIbs1KZcN+el5Wwmn5k9/PK/LOr/suU2l/JH9TOr61qSxTgbVx37Jhv6q7eyTvqtfxqEmstXn7Ov9Sn9zPbJtv1w6Ph7repdpX8eu11olsldZl8e69Nzy0YLFbWm3xlwxSKFUY5Rr9j6mvdo+NPdQzGSnFTfPVcfmeu1DcqC11z5qr3UaWzmocRuLWfWtNXddm1moPmtsMiz/kpX03zZlwzGQL7bdWpfj6f6U/R+mxIbYwAAMwMD8GDgooTQGmIRSFUEWSqsIn7F5aJ8f6OzpdvZUSTbJ9HZiC7PEFQZgAAZgAAb2y8DRCCUJofr7SIIHobRfgHgBE38YgAEYgAEYgAEYgIE5MnDwQsmP47UexdOGIJR4Yc7xhcma4BoGYAAGYAAGYAAG9svAwQslANkvIMSf+MMADMAADMAADMAADJwiAwil/wX4pwg+a4Z7GIABGIABGIABGICBIQYQSgilu2/AGgKFNt5IYAAGYAAGYAAGYAAGTokBhBJCCaEEAzAAAzAAAzAAAzAAAzBQGEAolYCckkpmrVwVggEYgAEYgAEYgAEYgIE2AwglhBJXD2AABmAABmAABmAABmAABgoDk4XSYrHorq+vu9vb2+7Ro0cEsgQSJd5W4sSFuMAADMAADMAADMAADBwjA5OFkhd3fn7ePX78uJNwch0l8MMADMAADMAADMAADMAADMyJgZWF0tnZWffHP/6xk2CaUyBYCy9sGIABGIABGIABGIABGIABM4BQ4hE6BC8MwAAMwAAMwAAMwAAMwEBhAKFUAmIFScnVBBiAARiAARiAARiAARg4XQZWFkqC5fLysru4uEB1IrJgAAZgAAZgAAZgAAZgAAZmycBaQsli6ebmhv9V4oUxyxcGV49O9+oRe8/ewwAMwAAMwAAMiIGVhZK+zOHq6oqvCEcgIZBgAAZgAAZgAAZgAAZgYLYMrCWU+NY7VDZXWmAABmAABmAABmAABmBgzgwglLgKMNurAHN+4bI2PphgAAZgAAZgAAZgYLsMIJQQSgglGIABGIABGIABGIABGICBwsDKQkk/NPv48eNusVgQzBJMVP12VT3xJb4wAAMwAAMwAAMwAAO7YmCyUJIwur6+7m5vb/lqcAQSIhkGYAAGYAAGYAAGYAAGZs3AZKG0K+XGPFwlgAEYgAEYgAEYgAEYgAEY2DcDCCWuBMz6SsC+X2DMz5s8DMAADMAADMAADBwnAwglhBJCCQZgAAZgAAZgAAZgAAZgoDCAUCoBQfEfp+Jn39g3GIABGIABGIABGICBTTKAUEIocfUABmAABmAABmAABmAABmCgMIBQKgHZpArFFlc1YAAGYAAGYAAGYAAGYOA4GUAoIZS4egADMAADMAADMAADMAADMFAYQCiVgKD4j1Pxs2/sGwzAAAzAAAzAAAzAwCYZQCghlLh6AAMwAAMwAAMwAAMwAAMwUBhAKJWAbFKFYourGjAAAzAAAzAAAzAAAzBwnAwglBBKXD2AARiAARiAARiAARiAARgoDCCUSkBQ/Mep+Nk39g0GYAAGYAAGYAAGYGCTDCCUEEpcPYABGIABGIABGIABGIABGCgMIJRKQDapQrHFVQ0YgAEYgAEYgAEYgAEYOE4GEEoIJa4ewAAMwAAMwAAMwAAMwAAMFAYQSiUgKP7jVPzsG/sGAzAAAzAAAzAAAzCwSQYQSgglrh7AAAzAAAzAAAzAAAzAAAwUBhBKJSCbVKHY4qoGDMAADMAADMAADMAADBwnAxJK/x+LUq4YXpFnDwAAAABJRU5ErkJggg==;" vertex="1" parent="1">
          <mxGeometry x="1920" y="-78.5" width="842" height="597" as="geometry" />
        </mxCell>
        <mxCell id="RmjtfXcaY5Lmv4AUt83Y-166" style="edgeStyle=none;rounded=0;orthogonalLoop=1;jettySize=auto;html=1;entryX=0.51;entryY=0.997;entryDx=0;entryDy=0;entryPerimeter=0;" edge="1" parent="1" source="RmjtfXcaY5Lmv4AUt83Y-145" target="RmjtfXcaY5Lmv4AUt83Y-165">
          <mxGeometry relative="1" as="geometry" />
        </mxCell>
        <mxCell id="RmjtfXcaY5Lmv4AUt83Y-167" value="Role Definition" style="edgeLabel;html=1;align=center;verticalAlign=middle;resizable=0;points=[];" vertex="1" connectable="0" parent="RmjtfXcaY5Lmv4AUt83Y-166">
          <mxGeometry x="0.2251" y="-3" relative="1" as="geometry">
            <mxPoint as="offset" />
          </mxGeometry>
        </mxCell>
        <mxCell id="RmjtfXcaY5Lmv4AUt83Y-168" style="edgeStyle=none;rounded=0;orthogonalLoop=1;jettySize=auto;html=1;" edge="1" parent="1" source="RmjtfXcaY5Lmv4AUt83Y-1" target="RmjtfXcaY5Lmv4AUt83Y-129">
          <mxGeometry relative="1" as="geometry" />
        </mxCell>
        <mxCell id="RmjtfXcaY5Lmv4AUt83Y-179" value="" style="shape=image;verticalLabelPosition=bottom;labelBackgroundColor=default;verticalAlign=top;aspect=fixed;imageAspect=0;image=https://static.wixstatic.com/media/584acb_5c86f60c39b34000afacbbc4bd979910~mv2.jpg/v1/fill/w_740,h_578,al_c,q_85,usm_0.66_1.00_0.01,enc_auto/584acb_5c86f60c39b34000afacbbc4bd979910~mv2.jpg;" vertex="1" parent="1">
          <mxGeometry x="1960" y="-780" width="740" height="578" as="geometry" />
        </mxCell>
        <mxCell id="RmjtfXcaY5Lmv4AUt83Y-187" style="edgeStyle=none;rounded=0;orthogonalLoop=1;jettySize=auto;html=1;" edge="1" parent="1" source="RmjtfXcaY5Lmv4AUt83Y-183" target="RmjtfXcaY5Lmv4AUt83Y-186">
          <mxGeometry relative="1" as="geometry" />
        </mxCell>
        <mxCell id="RmjtfXcaY5Lmv4AUt83Y-192" value="route all traffic&amp;nbsp;&lt;div&gt;through&lt;/div&gt;" style="edgeLabel;html=1;align=center;verticalAlign=middle;resizable=0;points=[];" vertex="1" connectable="0" parent="RmjtfXcaY5Lmv4AUt83Y-187">
          <mxGeometry x="-0.0009" y="1" relative="1" as="geometry">
            <mxPoint as="offset" />
          </mxGeometry>
        </mxCell>
        <mxCell id="RmjtfXcaY5Lmv4AUt83Y-188" style="edgeStyle=none;rounded=0;orthogonalLoop=1;jettySize=auto;html=1;entryX=0.5;entryY=1;entryDx=0;entryDy=0;" edge="1" parent="1" source="RmjtfXcaY5Lmv4AUt83Y-183" target="RmjtfXcaY5Lmv4AUt83Y-185">
          <mxGeometry relative="1" as="geometry" />
        </mxCell>
        <mxCell id="RmjtfXcaY5Lmv4AUt83Y-191" value="route all traffic&amp;nbsp;&lt;div&gt;through&lt;/div&gt;" style="edgeLabel;html=1;align=center;verticalAlign=middle;resizable=0;points=[];" vertex="1" connectable="0" parent="RmjtfXcaY5Lmv4AUt83Y-188">
          <mxGeometry x="-0.1936" y="-3" relative="1" as="geometry">
            <mxPoint as="offset" />
          </mxGeometry>
        </mxCell>
        <mxCell id="RmjtfXcaY5Lmv4AUt83Y-189" style="edgeStyle=none;rounded=0;orthogonalLoop=1;jettySize=auto;html=1;entryX=0.5;entryY=1;entryDx=0;entryDy=0;" edge="1" parent="1" source="RmjtfXcaY5Lmv4AUt83Y-183" target="RmjtfXcaY5Lmv4AUt83Y-184">
          <mxGeometry relative="1" as="geometry" />
        </mxCell>
        <mxCell id="RmjtfXcaY5Lmv4AUt83Y-190" value="route all traffic&amp;nbsp;&lt;div&gt;through&lt;/div&gt;" style="edgeLabel;html=1;align=center;verticalAlign=middle;resizable=0;points=[];" vertex="1" connectable="0" parent="RmjtfXcaY5Lmv4AUt83Y-189">
          <mxGeometry x="-0.2583" relative="1" as="geometry">
            <mxPoint as="offset" />
          </mxGeometry>
        </mxCell>
        <mxCell id="RmjtfXcaY5Lmv4AUt83Y-194" style="edgeStyle=none;rounded=0;orthogonalLoop=1;jettySize=auto;html=1;" edge="1" parent="1" source="RmjtfXcaY5Lmv4AUt83Y-183" target="RmjtfXcaY5Lmv4AUt83Y-193">
          <mxGeometry relative="1" as="geometry" />
        </mxCell>
        <mxCell id="RmjtfXcaY5Lmv4AUt83Y-183" value="hub vnet&lt;div&gt;firewall&lt;/div&gt;" style="rounded=0;whiteSpace=wrap;html=1;" vertex="1" parent="1">
          <mxGeometry x="3070" y="-480" width="120" height="60" as="geometry" />
        </mxCell>
        <mxCell id="RmjtfXcaY5Lmv4AUt83Y-184" value="spoke 1 vnet" style="rounded=0;whiteSpace=wrap;html=1;" vertex="1" parent="1">
          <mxGeometry x="3010" y="-650" width="120" height="60" as="geometry" />
        </mxCell>
        <mxCell id="RmjtfXcaY5Lmv4AUt83Y-185" value="spoke 2 vnet" style="rounded=0;whiteSpace=wrap;html=1;" vertex="1" parent="1">
          <mxGeometry x="3180" y="-644" width="120" height="60" as="geometry" />
        </mxCell>
        <mxCell id="RmjtfXcaY5Lmv4AUt83Y-186" value="spoke 3 vnet" style="rounded=0;whiteSpace=wrap;html=1;" vertex="1" parent="1">
          <mxGeometry x="3370" y="-490" width="120" height="60" as="geometry" />
        </mxCell>
        <mxCell id="RmjtfXcaY5Lmv4AUt83Y-193" value="express route" style="rounded=0;whiteSpace=wrap;html=1;" vertex="1" parent="1">
          <mxGeometry x="2880" y="-360" width="120" height="60" as="geometry" />
        </mxCell>
        <mxCell id="RmjtfXcaY5Lmv4AUt83Y-196" value="backup for compute, db, etc ." style="rounded=0;whiteSpace=wrap;html=1;fillColor=#f8cecc;strokeColor=#b85450;" vertex="1" parent="1">
          <mxGeometry x="1300" y="-390" width="120" height="60" as="geometry" />
        </mxCell>
        <mxCell id="RmjtfXcaY5Lmv4AUt83Y-197" value="infra - iaas and paas" style="rounded=0;whiteSpace=wrap;html=1;fillColor=#f8cecc;strokeColor=#b85450;" vertex="1" parent="1">
          <mxGeometry x="1300" y="-300" width="120" height="60" as="geometry" />
        </mxCell>
        <mxCell id="RmjtfXcaY5Lmv4AUt83Y-198" value="azure ocmpute gallery or some shit" style="rounded=0;whiteSpace=wrap;html=1;fillColor=#f8cecc;strokeColor=#b85450;" vertex="1" parent="1">
          <mxGeometry x="1300" y="-210" width="120" height="60" as="geometry" />
        </mxCell>
        <mxCell id="wRA6TTg1Th0wQAFIgvEN-1" value="&lt;b&gt;Network watchers&lt;/b&gt;" style="rounded=0;whiteSpace=wrap;html=1;strokeWidth=1;fillColor=#dae8fc;strokeColor=#007FFF;fontColor=#007FFF;" vertex="1" parent="1">
          <mxGeometry x="827" y="30" width="180" height="30" as="geometry" />
        </mxCell>
      </root>
    </mxGraphModel>
  </diagram>
  <diagram id="6tuSxUpDodROz2d9bL_7" name="Page-2">
    <mxGraphModel dx="430" dy="691" grid="1" gridSize="10" guides="1" tooltips="1" connect="1" arrows="1" fold="1" page="1" pageScale="1" pageWidth="827" pageHeight="1169" math="0" shadow="0">
      <root>
        <mxCell id="0" />
        <mxCell id="1" parent="0" />
        <mxCell id="RF6xKK4dRclWZlHuKzLd-7" style="edgeStyle=none;rounded=0;orthogonalLoop=1;jettySize=auto;html=1;entryX=0;entryY=0.5;entryDx=0;entryDy=0;" edge="1" parent="1" source="RF6xKK4dRclWZlHuKzLd-1" target="RF6xKK4dRclWZlHuKzLd-8">
          <mxGeometry relative="1" as="geometry" />
        </mxCell>
        <mxCell id="RF6xKK4dRclWZlHuKzLd-1" value="VM" style="rounded=0;whiteSpace=wrap;html=1;" vertex="1" parent="1">
          <mxGeometry x="840" y="720" width="120" height="60" as="geometry" />
        </mxCell>
        <mxCell id="RF6xKK4dRclWZlHuKzLd-2" value="Storage" style="rounded=0;whiteSpace=wrap;html=1;" vertex="1" parent="1">
          <mxGeometry x="1480" y="720" width="120" height="60" as="geometry" />
        </mxCell>
        <mxCell id="RF6xKK4dRclWZlHuKzLd-5" style="edgeStyle=none;rounded=0;orthogonalLoop=1;jettySize=auto;html=1;entryX=0.5;entryY=1;entryDx=0;entryDy=0;" edge="1" parent="1" source="RF6xKK4dRclWZlHuKzLd-3" target="RF6xKK4dRclWZlHuKzLd-4">
          <mxGeometry relative="1" as="geometry" />
        </mxCell>
        <mxCell id="RF6xKK4dRclWZlHuKzLd-15" value="Network flow" style="edgeLabel;html=1;align=center;verticalAlign=middle;resizable=0;points=[];" vertex="1" connectable="0" parent="RF6xKK4dRclWZlHuKzLd-5">
          <mxGeometry x="0.0206" y="1" relative="1" as="geometry">
            <mxPoint as="offset" />
          </mxGeometry>
        </mxCell>
        <mxCell id="RF6xKK4dRclWZlHuKzLd-11" style="edgeStyle=none;rounded=0;orthogonalLoop=1;jettySize=auto;html=1;entryX=0;entryY=0.5;entryDx=0;entryDy=0;" edge="1" parent="1" source="RF6xKK4dRclWZlHuKzLd-3" target="RF6xKK4dRclWZlHuKzLd-2">
          <mxGeometry relative="1" as="geometry" />
        </mxCell>
        <mxCell id="RF6xKK4dRclWZlHuKzLd-12" value="Logically&lt;div&gt;Tied&lt;/div&gt;" style="edgeLabel;html=1;align=center;verticalAlign=middle;resizable=0;points=[];" vertex="1" connectable="0" parent="RF6xKK4dRclWZlHuKzLd-11">
          <mxGeometry x="0.2121" y="-2" relative="1" as="geometry">
            <mxPoint x="-12" y="-2" as="offset" />
          </mxGeometry>
        </mxCell>
        <mxCell id="RF6xKK4dRclWZlHuKzLd-3" value="Private endpoint&lt;div&gt;privatelink.blob.core.windows.net&lt;/div&gt;" style="rounded=0;whiteSpace=wrap;html=1;" vertex="1" parent="1">
          <mxGeometry x="1290" y="720" width="120" height="60" as="geometry" />
        </mxCell>
        <mxCell id="RF6xKK4dRclWZlHuKzLd-13" style="edgeStyle=none;rounded=0;orthogonalLoop=1;jettySize=auto;html=1;entryX=0.5;entryY=0;entryDx=0;entryDy=0;" edge="1" parent="1" source="RF6xKK4dRclWZlHuKzLd-4" target="RF6xKK4dRclWZlHuKzLd-2">
          <mxGeometry relative="1" as="geometry" />
        </mxCell>
        <mxCell id="RF6xKK4dRclWZlHuKzLd-14" value="Network flow" style="edgeLabel;html=1;align=center;verticalAlign=middle;resizable=0;points=[];" vertex="1" connectable="0" parent="RF6xKK4dRclWZlHuKzLd-13">
          <mxGeometry x="-0.1239" relative="1" as="geometry">
            <mxPoint as="offset" />
          </mxGeometry>
        </mxCell>
        <mxCell id="RF6xKK4dRclWZlHuKzLd-4" value="NIC&lt;div&gt;network interface card&lt;/div&gt;&lt;div&gt;Private IP&lt;/div&gt;" style="rounded=0;whiteSpace=wrap;html=1;" vertex="1" parent="1">
          <mxGeometry x="1290" y="585" width="120" height="60" as="geometry" />
        </mxCell>
        <mxCell id="RF6xKK4dRclWZlHuKzLd-9" style="edgeStyle=none;rounded=0;orthogonalLoop=1;jettySize=auto;html=1;" edge="1" parent="1" source="RF6xKK4dRclWZlHuKzLd-8" target="RF6xKK4dRclWZlHuKzLd-3">
          <mxGeometry relative="1" as="geometry" />
        </mxCell>
        <mxCell id="RF6xKK4dRclWZlHuKzLd-8" value="CNAME&lt;div&gt;https://test696969palestine.&lt;/div&gt;&lt;div&gt;blob.core.windows.net/peepee&lt;br&gt;&lt;/div&gt;" style="rounded=0;whiteSpace=wrap;html=1;" vertex="1" parent="1">
          <mxGeometry x="1110" y="720" width="120" height="60" as="geometry" />
        </mxCell>
        <mxCell id="RF6xKK4dRclWZlHuKzLd-16" value="Cross Vnet comm" style="text;html=1;align=center;verticalAlign=middle;resizable=0;points=[];autosize=1;strokeColor=none;fillColor=none;" vertex="1" parent="1">
          <mxGeometry x="1000" y="838" width="120" height="30" as="geometry" />
        </mxCell>
      </root>
    </mxGraphModel>
  </diagram>
</mxfile>
